<svg width="313" height="313" viewBox="0 0 313 313" fill="none" xmlns="http://www.w3.org/2000/svg">
<path d="M135.477 73.9804L122.924 63.5196C119.419 60.5993 115.002 59 110.44 59H39.5C34.3283 59 29.3684 61.0545 25.7114 64.7114C22.0545 68.3684 20 73.3283 20 78.5V234.5C20 239.672 22.0545 244.632 25.7114 248.289C29.3684 251.946 34.3283 254 39.5 254H273.5C278.672 254 283.632 251.946 287.289 248.289C290.946 244.632 293 239.672 293 234.5V98C293 92.8283 290.946 87.8684 287.289 84.2114C283.632 80.5545 278.672 78.5 273.5 78.5H147.96C143.398 78.5 138.981 76.9007 135.477 73.9804Z" fill="#232537"/>
<path d="M230 242C201.659 235.657 179 208.727 179 180.364V149.545L230 129L281 149.545V180.364C281 208.737 258.341 235.657 230 242ZM189.2 154.682V180.364C189.491 192.24 193.639 203.692 201.007 212.969C208.376 222.245 218.56 228.834 230 231.727C241.44 228.834 251.624 222.245 258.993 212.969C266.361 203.692 270.509 192.24 270.8 180.364V154.682L230 139.273L189.2 154.682Z" fill="#B8BCDF"/>
<path d="M230 180.364C237.042 180.364 242.75 174.615 242.75 167.523C242.75 160.431 237.042 154.682 230 154.682C222.958 154.682 217.25 160.431 217.25 167.523C217.25 174.615 222.958 180.364 230 180.364Z" fill="#B8BCDF"/>
<path d="M204.5 200.909C207.014 205.523 210.7 209.381 215.18 212.088C219.661 214.796 224.775 216.255 230 216.318C235.225 216.255 240.339 214.796 244.82 212.088C249.3 209.381 252.986 205.523 255.5 200.909C255.372 191.171 238.456 185.5 230 185.5C221.498 185.5 204.627 191.171 204.5 200.909Z" fill="#B8BCDF"/>
</svg>
