<svg width="313" height="313" viewBox="0 0 313 313" fill="none" xmlns="http://www.w3.org/2000/svg">
<path d="M135.477 73.9804L122.924 63.5196C119.419 60.5993 115.002 59 110.44 59H39.5C34.3283 59 29.3684 61.0545 25.7114 64.7114C22.0545 68.3684 20 73.3283 20 78.5V234.5C20 239.672 22.0545 244.632 25.7114 248.289C29.3684 251.946 34.3283 254 39.5 254H273.5C278.672 254 283.632 251.946 287.289 248.289C290.946 244.632 293 239.672 293 234.5V98C293 92.8283 290.946 87.8684 287.289 84.2114C283.632 80.5545 278.672 78.5 273.5 78.5H147.96C143.398 78.5 138.981 76.9007 135.477 73.9804Z" fill="#073042"/>
<path d="M213.963 241.748C212.139 241.316 210.613 240.306 208.478 238.117C204.911 234.46 202.016 232.938 196.984 232.072C191.765 231.174 189.445 229.235 188.051 224.605C186.33 218.89 184.531 216.152 180.578 213.235C176.093 209.925 174.943 207.007 176.037 201.717C177.051 196.819 176.663 193.336 174.604 188.858C172.148 183.515 172.451 180.66 175.94 176.283C179.138 172.27 180.142 169.617 180.621 163.913C181.105 158.157 182.707 155.795 187.427 153.884C191.366 152.289 194.736 149.52 196.605 146.344C198.765 142.67 199.081 142.249 200.419 141.251C202.579 139.641 204.326 139.194 207.652 139.403C213.43 139.765 216.527 139.072 220.407 136.547C225.466 133.256 228.534 133.256 233.593 136.547C237.473 139.072 240.57 139.765 246.348 139.403C251.812 139.06 254.085 140.494 257.416 146.38C259.066 149.298 262.44 152.137 266.132 153.716C271.391 155.965 272.919 158.017 273.307 163.351C273.727 169.128 274.913 172.358 278.052 176.283C281.549 180.652 281.854 183.51 279.395 188.858C277.337 193.336 276.948 196.819 277.962 201.717C279.057 207.007 277.906 209.925 273.422 213.235C269.47 216.152 267.671 218.89 265.949 224.605C264.555 229.235 262.235 231.174 257.015 232.072C251.973 232.939 249.075 234.466 245.522 238.129C241.583 242.187 238.759 242.858 233.253 241.038C228.749 239.551 225.281 239.544 220.795 241.016C217.652 242.046 215.977 242.226 213.963 241.748Z" fill="black"/>
<path d="M213.963 240.67C212.139 240.237 210.613 239.227 208.478 237.038C204.911 233.381 202.016 231.858 196.984 230.993C191.765 230.096 189.445 228.156 188.051 223.527C186.33 217.81 184.531 215.073 180.578 212.156C176.093 208.846 174.943 205.927 176.037 200.638C177.051 195.739 176.663 192.257 174.604 187.779C172.148 182.436 172.451 179.581 175.94 175.203C179.138 171.19 180.142 168.538 180.621 162.834C181.105 157.078 182.707 154.716 187.427 152.805C191.366 151.21 194.736 148.441 196.605 145.264C198.765 141.591 199.081 141.17 200.419 140.172C202.579 138.561 204.326 138.115 207.652 138.324C213.43 138.686 216.527 137.992 220.407 135.468C225.466 132.177 228.534 132.177 233.593 135.468C237.473 137.992 240.57 138.686 246.348 138.324C251.812 137.981 254.085 139.414 257.416 145.301C259.066 148.218 262.44 151.058 266.132 152.637C271.391 154.885 272.919 156.938 273.307 162.272C273.727 168.049 274.913 171.279 278.052 175.203C281.549 179.573 281.854 182.431 279.395 187.779C277.337 192.257 276.948 195.739 277.962 200.638C279.057 205.927 277.906 208.846 273.422 212.156C269.47 215.073 267.671 217.81 265.949 223.527C264.555 228.156 262.235 230.096 257.015 230.993C251.973 231.86 249.075 233.388 245.522 237.049C241.583 241.109 238.759 241.778 233.253 239.96C228.749 238.471 225.281 238.465 220.795 239.937C217.652 240.967 215.977 241.147 213.963 240.67Z" fill="white"/>
<path d="M246.359 182.383C246.019 181.689 246.31 180.857 247.004 180.517C247.698 180.178 248.531 180.469 248.871 181.162C249.211 181.856 248.919 182.688 248.225 183.028C247.531 183.368 246.699 183.076 246.359 182.383ZM253.111 196.252C252.771 195.559 253.062 194.727 253.756 194.387C254.45 194.047 255.283 194.338 255.623 195.032C255.963 195.725 255.672 196.557 254.978 196.897C254.284 197.237 253.451 196.946 253.111 196.252ZM253.701 178.257C249.259 175.088 243.465 174.269 238.1 176.343L252.764 206.474C257.705 203.541 260.634 198.472 260.884 193.028L266.449 193.423C266.768 193.444 267.047 193.208 267.067 192.882C267.088 192.563 266.852 192.286 266.526 192.265L260.89 191.863C260.835 189.491 260.266 187.071 259.135 184.741C258.004 182.418 256.449 180.476 254.617 178.964L257.782 174.283C257.962 174.02 257.893 173.659 257.629 173.479C257.365 173.298 257.004 173.368 256.824 173.631L253.701 178.25" fill="#3DDC84"/>
<path d="M240.182 189.602C236.046 191.599 231.598 192.612 226.962 192.612C216.517 192.612 207.031 187.313 201.5 178.881C201.062 178.215 200.16 178.056 199.515 178.527L194.192 182.445C193.588 182.889 193.449 183.735 193.873 184.359C201.139 195.198 213.443 201.987 226.962 201.987C233.02 201.987 238.843 200.663 244.263 198.048L240.182 189.602Z" fill="#4285F4"/>
<path d="M229.793 156.267V149.908C229.793 148.32 228.503 147.03 226.913 147.03C225.324 147.03 224.033 148.32 224.033 149.908V156.267H229.793Z" fill="#4285F4"/>
<path d="M219.418 168.68L199.619 209.401C199.189 210.281 198.959 211.238 198.939 212.216L198.821 217.549C198.793 218.929 200.389 219.706 201.458 218.832L205.58 215.448C206.336 214.831 206.947 214.054 207.378 213.173L226.892 173.028L219.425 168.687L219.418 168.68Z" fill="#4285F4"/>
<path d="M254.894 212.209C254.874 211.231 254.638 210.274 254.214 209.394L234.415 168.673L226.948 173.028L246.463 213.159C246.893 214.04 247.504 214.81 248.26 215.434L252.382 218.818C253.451 219.692 255.054 218.915 255.019 217.535L254.901 212.202L254.894 212.209Z" fill="#4285F4"/>
<path d="M226.913 155.761C222.145 155.761 218.273 159.637 218.273 164.394C218.273 169.151 222.152 173.028 226.913 173.028C231.674 173.028 235.553 169.151 235.553 164.394C235.553 159.637 231.674 155.761 226.913 155.761ZM226.913 169.145C224.297 169.145 222.159 167.016 222.159 164.394C222.159 161.773 224.29 159.644 226.913 159.644C229.536 159.644 231.667 161.773 231.667 164.394C231.667 167.016 229.536 169.145 226.913 169.145Z" fill="#073042"/>
</svg>
