<svg width="313" height="313" viewBox="0 0 313 313" fill="none" xmlns="http://www.w3.org/2000/svg">
<path d="M135.477 73.9804L122.924 63.5196C119.419 60.5993 115.002 59 110.44 59H39.5C34.3283 59 29.3684 61.0545 25.7114 64.7114C22.0545 68.3684 20 73.3283 20 78.5V234.5C20 239.672 22.0545 244.632 25.7114 248.289C29.3684 251.946 34.3283 254 39.5 254H273.5C278.672 254 283.632 251.946 287.289 248.289C290.946 244.632 293 239.672 293 234.5V98C293 92.8283 290.946 87.8684 287.289 84.2114C283.632 80.5545 278.672 78.5 273.5 78.5H147.96C143.398 78.5 138.981 76.9007 135.477 73.9804Z" fill="#891619"/>
<path d="M174.441 147.716L227.028 129L281 147.426L272.277 216.97L227.028 242L182.514 217.295L174.441 147.716Z" fill="#E23237"/>
<path d="M281 147.426L227.028 129V242L272.277 216.97L281 147.426Z" fill="#B52E31"/>
<path d="M227.11 142.207L194.34 215.092L206.568 214.844L213.172 198.375H242.481L249.656 214.972L261.316 215.219L227.11 142.207ZM227.19 165.605L238.279 188.76H217.522L227.223 165.605H227.19Z" fill="white"/>
</svg>
