<svg width="313" height="313" viewBox="0 0 313 313" fill="none" xmlns="http://www.w3.org/2000/svg">
<path d="M135.477 73.9804L122.924 63.5196C119.419 60.5993 115.002 59 110.44 59H39.5C34.3283 59 29.3684 61.0545 25.7114 64.7114C22.0545 68.3684 20 73.3283 20 78.5V234.5C20 239.672 22.0545 244.632 25.7114 248.289C29.3684 251.946 34.3283 254 39.5 254H273.5C278.672 254 283.632 251.946 287.289 248.289C290.946 244.632 293 239.672 293 234.5V98C293 92.8283 290.946 87.8684 287.289 84.2114C283.632 80.5545 278.672 78.5 273.5 78.5H147.96C143.398 78.5 138.981 76.9007 135.477 73.9804Z" fill="#2E1406"/>
<rect width="205" height="131" transform="translate(88 123)" fill="#2E1406"/>
<path fill-rule="evenodd" clip-rule="evenodd" d="M241.548 149.516C236.27 142.894 227.616 136.626 213.735 137.831C199.983 139.024 193.171 147.221 189.696 155.301C187.945 159.372 187.061 163.392 186.618 166.408C186.397 167.911 186.287 169.153 186.233 170.011C186.205 170.44 186.192 170.772 186.186 170.992C186.182 171.102 186.181 171.184 186.18 171.236C186.18 171.262 186.179 171.28 186.179 171.291L186.179 171.3V171.301L186.179 171.302L186.179 173.377L184.103 173.476L184.1 173.477L184.095 173.477C184.087 173.477 184.071 173.478 184.049 173.48C184.005 173.482 183.935 173.487 183.839 173.495C183.648 173.51 183.358 173.537 182.984 173.58C182.234 173.668 181.148 173.824 179.837 174.096C177.208 174.643 173.725 175.649 170.254 177.474C163.406 181.076 156.551 187.862 156.371 201.072C156.282 207.61 158.403 212.153 161.522 215.391C164.694 218.686 169.044 220.777 173.592 222.071C178.128 223.361 182.714 223.815 186.193 223.942C187.925 224.005 189.367 223.986 190.37 223.951C190.871 223.934 191.262 223.913 191.523 223.897C191.583 223.893 191.637 223.89 191.683 223.887C191.737 223.883 191.781 223.88 191.816 223.877C191.835 223.876 191.852 223.874 191.865 223.873L191.885 223.872L191.9 223.871C193.101 223.766 194.161 224.653 194.265 225.852C194.37 227.051 193.481 228.108 192.279 228.213L192.09 226.042C192.279 228.213 192.278 228.213 192.277 228.213L192.274 228.213L192.266 228.214L192.239 228.216C192.216 228.218 192.184 228.221 192.144 228.224C192.062 228.23 191.946 228.238 191.796 228.247C191.497 228.266 191.065 228.289 190.52 228.308C189.431 228.345 187.884 228.365 186.034 228.298C182.345 228.164 177.383 227.681 172.395 226.263C167.42 224.848 162.27 222.46 158.372 218.411C154.42 214.307 151.899 208.641 152.003 201.013C152.209 185.891 160.258 177.805 168.217 173.618C172.15 171.55 176.047 170.432 178.946 169.829C180.101 169.589 181.106 169.429 181.901 169.323C181.969 168.4 182.088 167.191 182.296 165.775C182.776 162.509 183.739 158.1 185.682 153.582C189.595 144.483 197.558 134.859 213.357 133.488C229.027 132.129 239.004 139.322 244.967 146.803C247.928 150.516 249.906 154.3 251.144 157.147C251.764 158.575 252.203 159.776 252.489 160.629C252.519 160.719 252.547 160.806 252.574 160.888C252.639 160.912 252.706 160.936 252.775 160.962C253.582 161.261 254.725 161.71 256.091 162.318C258.817 163.532 262.464 165.394 266.123 167.984C273.387 173.126 281.07 181.426 281 193.491C280.931 205.172 276.142 213.352 270.452 218.702C264.839 223.981 258.322 226.534 254.572 227.047C251.129 227.519 239.481 227.806 228.92 227.98C223.59 228.069 218.465 228.129 214.674 228.167C214.333 228.17 214.003 228.174 213.684 228.177L223.932 238.269C224.79 239.115 224.799 240.495 223.952 241.352C223.105 242.208 221.722 242.217 220.863 241.372L206.872 227.593C206.014 226.747 206.005 225.367 206.852 224.511L220.661 210.551C221.509 209.694 222.892 209.685 223.75 210.53C224.609 211.376 224.618 212.756 223.77 213.613L213.676 223.818C213.983 223.815 214.302 223.812 214.63 223.808C218.416 223.77 223.53 223.71 228.847 223.622C239.583 223.444 250.869 223.155 253.978 222.729C256.781 222.345 262.47 220.218 267.456 215.53C272.367 210.912 276.571 203.836 276.631 193.466C276.689 183.48 270.367 176.332 263.595 171.539C260.235 169.161 256.857 167.433 254.31 166.299C253.041 165.733 251.986 165.319 251.255 165.048C250.889 164.913 250.605 164.814 250.417 164.749C250.322 164.717 250.252 164.694 250.207 164.679C250.184 164.672 250.168 164.666 250.158 164.663L250.15 164.661L250.149 164.66L250.149 164.66L250.148 164.66L248.998 164.298L248.693 163.135L248.693 163.135L248.693 163.134L248.693 163.132L248.691 163.127C248.689 163.118 248.685 163.102 248.678 163.08C248.666 163.035 248.646 162.964 248.617 162.868C248.561 162.676 248.471 162.386 248.346 162.011C248.094 161.262 247.7 160.179 247.136 158.882C246.005 156.281 244.209 152.853 241.548 149.516Z" fill="#FF8515"/>
<path d="M239.964 175.811V200.022H237.032V175.811H239.964Z" fill="#FF8515"/>
<path d="M215.9 200.022V175.811H224.081C225.98 175.811 227.533 176.153 228.739 176.839C229.952 177.517 230.851 178.435 231.434 179.594C232.017 180.752 232.309 182.045 232.309 183.471C232.309 184.898 232.017 186.194 231.434 187.361C230.859 188.527 229.968 189.457 228.762 190.151C227.557 190.836 226.012 191.179 224.128 191.179H218.264V188.578H224.034C225.334 188.578 226.378 188.354 227.166 187.905C227.955 187.455 228.526 186.848 228.881 186.084C229.243 185.312 229.424 184.441 229.424 183.471C229.424 182.502 229.243 181.635 228.881 180.87C228.526 180.106 227.951 179.507 227.155 179.073C226.359 178.632 225.302 178.411 223.986 178.411H218.832V200.022H215.9Z" fill="#FF8515"/>
<path d="M194.396 200.022H191.322L200.212 175.811H203.238L212.129 200.022H209.055L201.82 179.641H201.631L194.396 200.022ZM195.53 190.565H207.92V193.165H195.53V190.565Z" fill="#FF8515"/>
</svg>
