<svg width="313" height="313" viewBox="0 0 313 313" fill="none" xmlns="http://www.w3.org/2000/svg">
<path d="M135.477 73.9804L122.924 63.5196C119.419 60.5993 115.002 59 110.44 59H39.5C34.3283 59 29.3684 61.0545 25.7114 64.7114C22.0545 68.3684 20 73.3283 20 78.5V234.5C20 239.672 22.0545 244.632 25.7114 248.289C29.3684 251.946 34.3283 254 39.5 254H273.5C278.672 254 283.632 251.946 287.289 248.289C290.946 244.632 293 239.672 293 234.5V98C293 92.8283 290.946 87.8684 287.289 84.2114C283.632 80.5545 278.672 78.5 273.5 78.5H147.96C143.398 78.5 138.981 76.9007 135.477 73.9804Z" fill="url(#paint0_linear_117_2)"/>
<rect width="205" height="131" transform="translate(88 123)" fill="url(#paint1_linear_117_2)"/>
<path d="M238.5 133.652C239.389 134.755 239.842 136.244 240.745 139.218L260.54 204.241C253.105 200.382 245.125 197.68 236.875 196.229L223.989 152.678C223.887 152.33 223.675 152.024 223.385 151.807C223.094 151.589 222.741 151.472 222.379 151.472C222.016 151.473 221.663 151.591 221.373 151.809C221.084 152.027 220.872 152.333 220.771 152.681L208.039 196.207C199.753 197.652 191.738 200.358 184.271 204.231L204.159 139.205C205.07 136.234 205.523 134.748 206.411 133.644C207.197 132.673 208.217 131.919 209.376 131.452C210.686 130.927 212.242 130.927 215.349 130.927H229.556C232.666 130.927 234.223 130.927 235.537 131.456C236.697 131.922 237.716 132.678 238.5 133.652Z" fill="#FDFFFE"/>
<path d="M240.867 207.333C237.604 210.126 231.091 212.029 223.589 212.029C214.384 212.029 206.665 209.161 204.618 205.305C203.887 207.515 203.723 210.043 203.723 211.661C203.723 211.661 203.241 219.591 208.757 225.107C208.757 224.426 208.891 223.752 209.152 223.123C209.412 222.494 209.794 221.923 210.276 221.442C210.757 220.96 211.329 220.578 211.958 220.318C212.587 220.057 213.261 219.923 213.942 219.924C218.85 219.924 218.848 224.204 218.844 227.682V227.989C218.844 233.266 222.068 237.787 226.653 239.694C225.946 238.242 225.58 236.648 225.581 235.034C225.581 229.999 228.534 228.128 231.969 225.95C234.701 224.219 237.736 222.294 239.824 218.435C240.952 216.355 241.541 214.027 241.538 211.661C241.54 210.193 241.313 208.733 240.867 207.333Z" fill="#FF5D01"/>
<path d="M240.867 207.333C237.604 210.126 231.091 212.029 223.589 212.029C214.384 212.029 206.665 209.161 204.618 205.305C203.887 207.515 203.723 210.043 203.723 211.661C203.723 211.661 203.241 219.591 208.757 225.107C208.757 224.426 208.891 223.752 209.152 223.123C209.412 222.494 209.794 221.923 210.276 221.442C210.757 220.96 211.329 220.578 211.958 220.318C212.587 220.057 213.261 219.923 213.942 219.924C218.85 219.924 218.848 224.204 218.844 227.682V227.989C218.844 233.266 222.068 237.787 226.653 239.694C225.946 238.242 225.58 236.648 225.581 235.034C225.581 229.999 228.534 228.128 231.969 225.95C234.701 224.219 237.736 222.294 239.824 218.435C240.952 216.355 241.541 214.027 241.538 211.661C241.54 210.193 241.313 208.733 240.867 207.333Z" fill="url(#paint2_linear_117_2)"/>
<defs>
<linearGradient id="paint0_linear_117_2" x1="30.5" y1="254" x2="293" y2="70.0013" gradientUnits="userSpaceOnUse">
<stop stop-color="#0D0F1E"/>
<stop offset="1" stop-color="#16013E"/>
</linearGradient>
<linearGradient id="paint1_linear_117_2" x1="7.88462" y1="131" x2="190.032" y2="-11.713" gradientUnits="userSpaceOnUse">
<stop stop-color="#0D0F1E"/>
<stop offset="1" stop-color="#16013E"/>
</linearGradient>
<linearGradient id="paint2_linear_117_2" x1="255.56" y1="184.638" x2="236.241" y2="225.082" gradientUnits="userSpaceOnUse">
<stop stop-color="#FF1639"/>
<stop offset="1" stop-color="#FF1639" stop-opacity="0"/>
</linearGradient>
</defs>
</svg>
