<svg width="313" height="313" viewBox="0 0 313 313" fill="none" xmlns="http://www.w3.org/2000/svg">
<path d="M135.477 73.9804L122.924 63.5196C119.419 60.5993 115.002 59 110.44 59H39.5C34.3283 59 29.3684 61.0545 25.7114 64.7114C22.0545 68.3684 20 73.3283 20 78.5V234.5C20 239.672 22.0545 244.632 25.7114 248.289C29.3684 251.946 34.3283 254 39.5 254H273.5C278.672 254 283.632 251.946 287.289 248.289C290.946 244.632 293 239.672 293 234.5V98C293 92.8283 290.946 87.8684 287.289 84.2114C283.632 80.5545 278.672 78.5 273.5 78.5H147.96C143.398 78.5 138.981 76.9007 135.477 73.9804Z" fill="#202B40"/>
<path fill-rule="evenodd" clip-rule="evenodd" d="M133.192 162.493C134.87 164.191 134.87 166.943 133.192 168.641L106.153 196L133.192 223.359C134.87 225.057 134.87 227.809 133.192 229.507C131.514 231.205 128.794 231.205 127.116 229.507L94 196L127.116 162.493C128.794 160.795 131.514 160.795 133.192 162.493Z" fill="#C9D6EC"/>
<path fill-rule="evenodd" clip-rule="evenodd" d="M200.011 158.886C198.066 158.233 196.648 156.477 196.648 154.428C196.648 151.983 194.663 150 192.214 150H182.786C180.337 150 178.352 151.983 178.352 154.428C178.352 156.477 176.934 158.233 174.989 158.886C173.326 159.445 171.713 160.112 170.159 160.879C168.264 161.813 165.952 161.566 164.458 160.074C162.676 158.294 159.785 158.294 158.002 160.074L151.521 166.546C149.738 168.326 149.738 171.213 151.521 172.993C153.014 174.485 153.262 176.793 152.326 178.685C151.558 180.237 150.89 181.847 150.331 183.508C149.676 185.45 147.918 186.865 145.866 186.865C143.416 186.865 141.431 188.848 141.431 191.293V200.707C141.431 203.152 143.416 205.135 145.866 205.135C147.918 205.135 149.676 206.55 150.331 208.492C150.874 210.105 151.52 211.672 152.261 213.183C153.168 215.033 152.919 217.285 151.46 218.742C149.711 220.489 149.711 223.321 151.46 225.068L158.123 231.721C159.839 233.434 162.621 233.434 164.337 231.721C165.782 230.278 168.021 230.045 169.845 230.965C171.496 231.798 173.214 232.517 174.989 233.114C176.934 233.767 178.352 235.523 178.352 237.572C178.352 240.017 180.337 242 182.786 242H192.214C194.663 242 196.648 240.017 196.648 237.572C196.648 235.523 198.066 233.767 200.011 233.114C201.739 232.533 203.413 231.836 205.024 231.031C206.806 230.14 208.988 230.374 210.398 231.782C212.08 233.462 214.808 233.462 216.49 231.782L223.336 224.946C225.018 223.267 225.018 220.543 223.336 218.863C221.926 217.456 221.691 215.277 222.583 213.497C223.389 211.889 224.088 210.218 224.669 208.492C225.324 206.55 227.082 205.135 229.134 205.135C231.584 205.135 233.569 203.152 233.569 200.707V191.293C233.569 188.848 231.584 186.865 229.134 186.865C227.082 186.865 225.324 185.45 224.669 183.508C224.072 181.735 223.351 180.02 222.517 178.372C221.596 176.55 221.83 174.315 223.275 172.872C224.991 171.159 224.991 168.381 223.275 166.667L216.612 160.014C214.862 158.267 212.025 158.267 210.276 160.014C208.817 161.471 206.562 161.719 204.709 160.814C203.195 160.074 201.627 159.429 200.011 158.886ZM216.189 166.578C214.673 165.064 212.215 165.064 210.699 166.578C209.435 167.84 207.471 168.077 205.942 167.152L205.227 166.719C202.249 164.917 198.976 163.557 195.498 162.727L194.658 162.526C192.924 162.112 191.701 160.565 191.701 158.786C191.701 156.661 189.977 154.94 187.85 154.94H187.15C185.023 154.94 183.299 156.661 183.299 158.786C183.299 160.565 182.076 162.112 180.342 162.526L179.502 162.727C175.955 163.573 172.621 164.971 169.596 166.827L168.947 167.225C167.377 168.188 165.35 167.95 164.046 166.649C162.491 165.096 159.969 165.096 158.414 166.649L158.105 166.958C156.549 168.511 156.549 171.028 158.105 172.581C159.408 173.883 159.647 175.907 158.682 177.475L158.283 178.122C156.425 181.143 155.025 184.472 154.177 188.014L153.976 188.853C153.562 190.584 152.012 191.805 150.23 191.805C148.102 191.805 146.378 193.527 146.378 195.651V196.349C146.378 198.473 148.102 200.195 150.23 200.195C152.012 200.195 153.562 201.416 153.976 203.147L154.177 203.986C155.008 207.459 156.371 210.727 158.175 213.701L158.608 214.414C159.535 215.941 159.298 217.902 158.033 219.164C156.517 220.678 156.517 223.132 158.033 224.646L158.524 225.136C160.019 226.628 162.442 226.628 163.936 225.136C165.194 223.88 167.154 223.655 168.664 224.594L169.42 225.064C172.492 226.974 175.886 228.41 179.502 229.273L180.342 229.474C182.076 229.888 183.299 231.435 183.299 233.214C183.299 235.339 185.023 237.06 187.15 237.06H187.85C189.977 237.06 191.701 235.339 191.701 233.214C191.701 231.435 192.924 229.888 194.658 229.474L195.498 229.273C199.045 228.427 202.379 227.029 205.404 225.173L206.226 224.669C207.695 223.768 209.591 223.991 210.81 225.208C212.265 226.66 214.623 226.66 216.078 225.208L216.752 224.535C218.206 223.082 218.206 220.727 216.752 219.275C215.533 218.058 215.309 216.165 216.212 214.698L216.717 213.878C218.575 210.857 219.975 207.528 220.823 203.986L221.024 203.147C221.438 201.416 222.988 200.195 224.77 200.195C226.898 200.195 228.622 198.473 228.622 196.349V195.651C228.622 193.527 226.898 191.805 224.77 191.805C222.988 191.805 221.438 190.584 221.024 188.853L220.823 188.014C219.959 184.403 218.521 181.014 216.608 177.947L216.137 177.192C215.197 175.684 215.422 173.728 216.68 172.471C218.174 170.979 218.174 168.56 216.68 167.068L216.189 166.578Z" fill="#C9D5EC"/>
<path fill-rule="evenodd" clip-rule="evenodd" d="M187.5 207.978C194.125 207.978 199.496 202.615 199.496 196C199.496 189.385 194.125 184.022 187.5 184.022C180.875 184.022 175.504 189.385 175.504 196C175.504 202.615 180.875 207.978 187.5 207.978ZM187.5 212.829C196.809 212.829 204.355 205.295 204.355 196C204.355 186.705 196.809 179.171 187.5 179.171C178.192 179.171 170.646 186.705 170.646 196C170.646 205.295 178.192 212.829 187.5 212.829Z" fill="#C9D5EC"/>
<path fill-rule="evenodd" clip-rule="evenodd" d="M241.808 229.507C240.13 227.809 240.13 225.057 241.808 223.359L268.847 196L241.808 168.641C240.13 166.943 240.13 164.191 241.808 162.493C243.486 160.795 246.206 160.795 247.884 162.493L281 196L247.884 229.507C246.206 231.205 243.486 231.205 241.808 229.507Z" fill="#C9D6EC"/>
</svg>
