<svg width="313" height="313" viewBox="0 0 313 313" fill="none" xmlns="http://www.w3.org/2000/svg">
<path d="M135.477 73.9804L122.924 63.5196C119.419 60.5993 115.002 59 110.44 59H39.5C34.3283 59 29.3684 61.0545 25.7114 64.7114C22.0545 68.3684 20 73.3283 20 78.5V234.5C20 239.672 22.0545 244.632 25.7114 248.289C29.3684 251.946 34.3283 254 39.5 254H273.5C278.672 254 283.632 251.946 287.289 248.289C290.946 244.632 293 239.672 293 234.5V98C293 92.8283 290.946 87.8684 287.289 84.2114C283.632 80.5545 278.672 78.5 273.5 78.5H147.96C143.398 78.5 138.981 76.9007 135.477 73.9804Z" fill="#9E896A"/>
<path d="M265.99 157.781C265.701 157.486 265.403 157.199 265.097 156.921C264.794 156.647 264.508 156.338 264.205 156.063C263.902 155.788 263.616 155.478 263.313 155.204C263.009 154.929 262.724 154.619 262.42 154.344C262.117 154.069 261.831 153.76 261.528 153.485C261.224 153.21 260.939 152.901 260.635 152.626C260.332 152.35 260.046 152.042 259.743 151.767C268.596 160.142 273.668 171.539 273.861 183.488C273.861 211.962 243.84 235.127 206.93 235.127C186.262 235.127 167.772 227.858 155.474 216.464L161.721 222.479C174.001 234.354 192.902 242 214.07 242C250.979 242 281 218.837 281 190.449C281 178.316 275.574 166.82 265.99 157.781Z" fill="black"/>
<path d="M269.399 183.488C269.399 209.626 241.431 230.813 206.93 230.813C172.43 230.813 144.462 209.626 144.462 183.488C144.462 167.283 155.171 152.97 171.627 144.48C188.083 135.991 198.328 127.296 206.93 127.296C215.533 127.296 222.887 134.393 242.234 144.482C258.69 152.967 269.399 167.283 269.399 183.488Z" fill="#FBF0DF"/>
<path d="M269.399 183.488C269.39 180.127 268.909 176.784 267.971 173.556C263.098 230.779 190.599 233.529 162.096 216.414C174.909 225.975 190.72 231.054 206.93 230.813C241.377 230.813 269.399 209.591 269.399 183.488Z" fill="#F6DECE"/>
<path d="M182.889 141.336C190.867 136.731 201.469 128.087 211.892 128.07C210.285 127.571 208.613 127.31 206.93 127.296C202.611 127.296 198.006 129.445 192.206 132.675C190.189 133.809 188.101 135.063 185.887 136.37C181.729 138.845 176.963 141.645 171.609 144.446C154.618 153.296 144.462 167.885 144.462 183.488V185.533C155.278 148.742 174.929 145.942 182.889 141.336Z" fill="#FFFEFC"/>
<path d="M201.79 131.644C201.813 135.711 200.927 139.732 199.197 143.415C197.444 147.137 194.9 150.432 191.742 153.072C191.242 153.502 191.635 154.327 192.277 154.086C198.292 151.836 206.413 145.1 202.986 131.507C202.843 130.733 201.79 130.939 201.79 131.644ZM205.842 131.644C208.017 135.054 209.406 138.904 209.909 142.916C210.405 146.911 209.998 150.962 208.715 154.791C208.501 155.392 209.268 155.908 209.697 155.41C213.606 150.598 217.015 141.043 206.805 130.733C206.288 130.287 205.485 130.974 205.842 131.575V131.644ZM210.768 131.352C214.166 133.66 217.027 136.67 219.157 140.179C221.26 143.645 222.57 147.531 222.994 151.561C222.976 151.706 223.016 151.85 223.106 151.967C223.2 152.084 223.334 152.162 223.482 152.186C223.63 152.21 223.781 152.179 223.907 152.098C223.969 152.059 224.023 152.008 224.065 151.948C224.108 151.888 224.138 151.82 224.154 151.749C225.796 145.752 224.868 135.528 211.357 130.217C210.643 129.943 210.179 130.871 210.768 131.283V131.352ZM177.82 149.223C181.867 148.065 185.63 146.085 188.875 143.407C192.074 140.766 194.675 137.477 196.507 133.758C196.828 133.139 197.846 133.379 197.685 134.067C194.597 147.814 184.263 150.684 177.838 150.306C177.16 150.323 177.178 149.412 177.82 149.223Z" fill="#CCBEA7"/>
<path d="M206.93 235.127C170.021 235.127 140 211.962 140 183.488C140 166.304 151.03 150.272 169.503 140.666C174.857 137.916 179.444 135.149 183.532 132.727C185.78 131.387 187.904 130.132 189.957 128.963C196.222 125.389 201.576 123 206.93 123C212.285 123 216.961 125.063 222.815 128.396C224.6 129.376 226.385 130.441 228.295 131.61C232.739 134.256 237.754 137.245 244.358 140.666C262.831 150.272 273.861 166.287 273.861 183.488C273.861 211.962 243.84 235.127 206.93 235.127ZM206.93 127.296C202.611 127.296 198.006 129.445 192.206 132.675C190.189 133.809 188.101 135.063 185.887 136.37C181.729 138.845 176.963 141.645 171.609 144.446C154.618 153.296 144.462 167.885 144.462 183.488C144.462 209.591 172.484 230.831 206.93 230.831C241.377 230.831 269.399 209.591 269.399 183.488C269.399 167.884 259.243 153.296 242.234 144.48C235.487 141.043 230.222 137.813 225.956 135.269C224.011 134.119 222.226 133.053 220.602 132.109C215.194 129.014 211.25 127.296 206.93 127.296Z" fill="black"/>
<path d="M219.513 196.033C218.711 199.195 216.886 202.029 214.302 204.127C212.336 205.949 209.83 207.083 207.162 207.357C204.414 207.127 201.821 205.991 199.791 204.127C197.233 202.02 195.434 199.186 194.651 196.033C194.626 195.846 194.645 195.655 194.707 195.476C194.769 195.296 194.873 195.133 195.01 194.999C195.151 194.865 195.32 194.763 195.504 194.701C195.689 194.639 195.885 194.619 196.079 194.641H218.103C218.296 194.622 218.49 194.645 218.672 194.708C218.855 194.772 219.021 194.874 219.16 195.008C219.296 195.139 219.398 195.3 219.46 195.478C219.521 195.656 219.54 195.846 219.513 196.033Z" fill="#B71422"/>
<path d="M199.791 204.264C201.816 206.13 204.401 207.277 207.145 207.529C209.882 207.274 212.46 206.126 214.48 204.264C215.116 203.692 215.712 203.078 216.265 202.426C215.156 201.218 213.813 200.247 212.318 199.57C210.808 198.888 209.177 198.509 207.519 198.457C205.747 198.494 204.008 198.949 202.445 199.784C200.901 200.606 199.58 201.79 198.595 203.234C199.006 203.593 199.363 203.938 199.791 204.264Z" fill="#FF6164"/>
<path d="M200.077 202.906C200.97 201.797 202.103 200.904 203.39 200.292C204.691 199.67 206.113 199.343 207.555 199.332C210.21 199.401 212.748 200.433 214.694 202.237C215.105 201.807 215.497 201.36 215.872 200.914C213.602 198.831 210.6 197.647 207.466 197.597C205.795 197.61 204.146 197.98 202.63 198.683C201.13 199.376 199.802 200.389 198.738 201.652C199.161 202.094 199.607 202.512 200.077 202.906Z" fill="black"/>
<path d="M207.091 208.388C204.137 208.146 201.345 206.938 199.149 204.951C196.385 202.701 194.441 199.661 193.598 196.274C193.538 195.973 193.548 195.661 193.628 195.364C193.708 195.064 193.857 194.787 194.062 194.555C194.309 194.269 194.618 194.042 194.965 193.892C195.316 193.739 195.696 193.666 196.079 193.678H218.103C218.486 193.671 218.865 193.745 219.214 193.897C219.561 194.047 219.87 194.272 220.12 194.555C220.323 194.791 220.469 195.067 220.546 195.366C220.624 195.663 220.631 195.973 220.566 196.274C219.723 199.662 217.778 202.701 215.016 204.951C212.823 206.934 210.039 208.142 207.091 208.388ZM196.079 195.672C195.793 195.672 195.722 195.792 195.704 195.827C196.458 198.765 198.165 201.395 200.576 203.336C202.363 205.019 204.65 206.075 207.091 206.343C209.527 206.078 211.811 205.035 213.606 203.37C216.009 201.426 217.71 198.796 218.46 195.862C218.421 195.806 218.367 195.762 218.304 195.736C218.241 195.708 218.172 195.699 218.103 195.707L196.079 195.672Z" fill="black"/>
<path d="M234.095 197.099C239.862 197.099 244.536 194.451 244.536 191.187C244.536 187.922 239.862 185.276 234.095 185.276C228.328 185.276 223.654 187.922 223.654 191.187C223.654 194.451 228.328 197.099 234.095 197.099ZM180.069 197.099C185.836 197.099 190.51 194.451 190.51 191.187C190.51 187.922 185.836 185.276 180.069 185.276C174.302 185.276 169.628 187.922 169.628 191.187C169.628 194.451 174.302 197.099 180.069 197.099Z" fill="#FEBBD0"/>
<path d="M184.977 188.816C186.915 188.822 188.813 188.271 190.445 187.229C192.051 186.205 193.314 184.727 194.075 182.983C194.823 181.26 195.021 179.35 194.642 177.511C194.258 175.659 193.322 173.967 191.956 172.658C190.566 171.323 188.816 170.421 186.92 170.063C185.013 169.694 183.04 169.88 181.236 170.598C179.453 171.302 177.916 172.515 176.818 174.085C175.742 175.63 175.164 177.466 175.161 179.347C175.161 181.856 176.195 184.261 178.035 186.036C179.876 187.811 182.373 188.811 184.977 188.816ZM229.187 188.816C231.127 188.832 233.03 188.289 234.67 187.253C236.282 186.236 237.554 184.761 238.323 183.018C239.079 181.297 239.285 179.385 238.912 177.542C238.534 175.688 237.601 173.991 236.237 172.677C234.849 171.337 233.1 170.429 231.204 170.066C229.295 169.694 227.319 169.877 225.511 170.593C223.725 171.296 222.186 172.508 221.086 174.079C220.007 175.625 219.427 177.463 219.424 179.347C219.42 181.848 220.444 184.248 222.274 186.023C224.104 187.798 226.59 188.802 229.187 188.816Z" fill="black"/>
<path d="M181.943 179.949C182.671 179.953 183.385 179.748 184 179.357C184.61 178.968 185.087 178.414 185.369 177.765C185.65 177.117 185.726 176.399 185.586 175.708C185.443 175.012 185.092 174.375 184.58 173.882C184.058 173.38 183.401 173.04 182.688 172.904C181.971 172.766 181.23 172.835 180.551 173.104C179.881 173.368 179.303 173.824 178.89 174.413C178.484 174.993 178.266 175.684 178.266 176.391C178.266 177.331 178.653 178.234 179.342 178.901C180.041 179.572 180.973 179.948 181.943 179.949ZM226.153 179.949C226.881 179.953 227.595 179.748 228.21 179.357C228.82 178.968 229.296 178.414 229.578 177.765C229.86 177.117 229.936 176.399 229.796 175.708C229.653 175.012 229.302 174.375 228.79 173.882C228.268 173.38 227.61 173.04 226.898 172.904C226.181 172.766 225.439 172.835 224.761 173.104C224.09 173.368 223.513 173.824 223.1 174.413C222.694 174.993 222.476 175.684 222.476 176.391C222.476 177.327 222.858 178.223 223.539 178.889C224.22 179.555 225.145 179.936 226.117 179.949H226.153Z" fill="white"/>
</svg>
