<svg width="313" height="313" viewBox="0 0 313 313" fill="none" xmlns="http://www.w3.org/2000/svg">
<path d="M135.477 73.9804L122.924 63.5196C119.419 60.5993 115.002 59 110.44 59H39.5C34.3283 59 29.3684 61.0545 25.7114 64.7114C22.0545 68.3684 20 73.3283 20 78.5V234.5C20 239.672 22.0545 244.632 25.7114 248.289C29.3684 251.946 34.3283 254 39.5 254H273.5C278.672 254 283.632 251.946 287.289 248.289C290.946 244.632 293 239.672 293 234.5V98C293 92.8283 290.946 87.8684 287.289 84.2114C283.632 80.5545 278.672 78.5 273.5 78.5H147.96C143.398 78.5 138.981 76.9007 135.477 73.9804Z" fill="#400050"/>
<path d="M278.706 154.286L234.39 128.646C233.656 128.184 232.647 128 231.546 128C230.445 128 229.436 128.277 228.702 128.646L184.661 154.379C183.101 155.301 182 157.607 182 159.359V210.733C182 211.748 182.184 212.947 182.918 213.961L280.908 156.777C280.358 155.67 279.532 154.84 278.706 154.286Z" fill="#9B4F96"/>
<path d="M182.642 213.869C183.101 214.607 183.743 215.252 184.386 215.621L228.61 241.354C229.344 241.816 230.353 242 231.454 242C232.555 242 233.564 241.723 234.298 241.354L278.339 215.621C279.899 214.699 281 212.393 281 210.641V159.267C281 158.437 280.908 157.515 280.449 156.684L182.642 213.869Z" fill="#68217A"/>
<path d="M251.089 196.16C247.235 202.985 239.895 207.597 231.546 207.597C219.159 207.597 209.067 197.451 209.067 185C209.067 172.549 219.159 162.403 231.546 162.403C239.895 162.403 247.235 167.015 251.089 173.932L263.017 167.015C256.778 156.039 245.033 148.568 231.546 148.568C211.544 148.568 195.304 164.893 195.304 185C195.304 205.107 211.544 221.432 231.546 221.432C244.942 221.432 256.686 214.053 262.925 203.17L251.089 196.16ZM261.824 187.029L262.65 183.063H258.796V178.728H263.475L264.576 173.01H269.072L267.971 178.636H271.458L272.559 173.01H276.963L275.862 178.636H278.064V182.971H275.036L274.21 186.937H278.064V191.272H273.385L272.284 196.806H267.788L268.889 191.272H265.402L264.301 196.806H259.897L260.998 191.272H258.796V186.937H261.824V187.029ZM266.228 187.029H269.715L270.54 183.063H267.054L266.228 187.029Z" fill="white"/>
</svg>
