<svg width="313" height="313" viewBox="0 0 313 313" fill="none" xmlns="http://www.w3.org/2000/svg">
<path d="M135.477 73.9804L122.924 63.5196C119.419 60.5993 115.002 59 110.44 59H39.5C34.3283 59 29.3684 61.0545 25.7114 64.7114C22.0545 68.3684 20 73.3283 20 78.5V234.5C20 239.672 22.0545 244.632 25.7114 248.289C29.3684 251.946 34.3283 254 39.5 254H273.5C278.672 254 283.632 251.946 287.289 248.289C290.946 244.632 293 239.672 293 234.5V98C293 92.8283 290.946 87.8684 287.289 84.2114C283.632 80.5545 278.672 78.5 273.5 78.5H147.96C143.398 78.5 138.981 76.9007 135.477 73.9804Z" fill="#004A81"/>
<path d="M229.939 167.904H256.884L258.745 147.052H229.939V126.689H281L280.511 132.153L275.506 188.267H229.939V167.904Z" fill="#18B9FF"/>
<path d="M230.06 220.788L229.97 220.814L207.292 214.691L205.842 198.45H185.404L188.256 230.424L229.967 242L230.06 241.973V220.788Z" fill="#1A92C7"/>
<path d="M255.153 187.406L252.7 214.675L229.989 220.805V241.991L271.734 230.422L272.04 226.981L275.582 187.406H255.153Z" fill="#18B9FF"/>
<path d="M230.008 126.689V147.052H180.823L180.415 142.476L179.487 132.153L179 126.689H230.008ZM229.939 167.907V188.27H207.547L207.139 183.694L206.21 173.37L205.725 167.907H229.939Z" fill="#1A92C7"/>
</svg>
