<svg width="313" height="313" viewBox="0 0 313 313" fill="none" xmlns="http://www.w3.org/2000/svg">
<path d="M135.477 73.9804L122.924 63.5196C119.419 60.5993 115.002 59 110.44 59H39.5C34.3283 59 29.3684 61.0545 25.7114 64.7114C22.0545 68.3684 20 73.3283 20 78.5V234.5C20 239.672 22.0545 244.632 25.7114 248.289C29.3684 251.946 34.3283 254 39.5 254H273.5C278.672 254 283.632 251.946 287.289 248.289C290.946 244.632 293 239.672 293 234.5V98C293 92.8283 290.946 87.8684 287.289 84.2114C283.632 80.5545 278.672 78.5 273.5 78.5H147.96C143.398 78.5 138.981 76.9007 135.477 73.9804Z" fill="#1B4B93"/>
<path d="M226.5 145C205.781 145 189 153.353 189 163.667C189 173.98 205.781 182.333 226.5 182.333C247.219 182.333 264 173.98 264 163.667C264 153.353 247.219 145 226.5 145ZM189 173V187C189 197.313 205.781 205.667 226.5 205.667C247.219 205.667 264 197.313 264 187V173C264 183.313 247.219 191.667 226.5 191.667C205.781 191.667 189 183.313 189 173ZM189 196.333V210.333C189 220.647 205.781 229 226.5 229C247.219 229 264 220.647 264 210.333V196.333C264 206.647 247.219 215 226.5 215C205.781 215 189 206.647 189 196.333Z" fill="white"/>
</svg>
