<svg width="313" height="313" viewBox="0 0 313 313" fill="none" xmlns="http://www.w3.org/2000/svg">
<path d="M135.477 73.9804L122.924 63.5196C119.419 60.5993 115.002 59 110.44 59H39.5C34.3283 59 29.3684 61.0545 25.7114 64.7114C22.0545 68.3684 20 73.3283 20 78.5V234.5C20 239.672 22.0545 244.632 25.7114 248.289C29.3684 251.946 34.3283 254 39.5 254H273.5C278.672 254 283.632 251.946 287.289 248.289C290.946 244.632 293 239.672 293 234.5V98C293 92.8283 290.946 87.8684 287.289 84.2114C283.632 80.5545 278.672 78.5 273.5 78.5H147.96C143.398 78.5 138.981 76.9007 135.477 73.9804Z" fill="#004646"/>
<path d="M221.5 123C188.636 123 162 149.636 162 182.5C162 215.364 188.636 242 221.5 242C254.364 242 281 215.364 281 182.5C281 149.636 254.364 123 221.5 123ZM252.296 142.314L252.318 142.244L253.085 139.362L253.433 139.618C255.033 140.806 256.562 142.086 258.012 143.454L257.919 143.755L257.898 143.825C257.673 144.501 257.208 145.07 256.591 145.426C255.974 145.781 255.248 145.898 254.55 145.754C254.176 145.677 253.82 145.527 253.504 145.313C253.188 145.098 252.917 144.823 252.707 144.503C252.498 144.184 252.354 143.826 252.283 143.45C252.213 143.074 252.217 142.688 252.296 142.314ZM239.002 147.8L239.024 147.73C239.465 146.242 241.046 145.36 242.579 145.754C244.09 146.172 244.997 147.73 244.624 149.263V149.334L241.51 160.838L241.255 160.629C239.716 159.488 238.074 158.492 236.351 157.654L239.002 147.8ZM228.682 134.993L228.704 134.923L230.099 129.741L230.517 129.81C232.283 130.112 234.05 130.508 235.769 130.972L234.305 136.434L234.284 136.504C234.059 137.179 233.594 137.749 232.977 138.104C232.36 138.46 231.634 138.577 230.937 138.433C230.562 138.356 230.206 138.206 229.89 137.991C229.574 137.777 229.303 137.502 229.094 137.182C228.884 136.862 228.74 136.504 228.669 136.129C228.599 135.753 228.603 135.367 228.682 134.993ZM207.113 143.825L207.136 143.755L210.807 130.112L211.203 130.043C213.032 129.687 214.878 129.423 216.734 129.252C216.827 129.671 216.827 130.135 216.712 130.554L216.691 130.624L212.74 145.266L212.718 145.336C212.493 146.012 212.028 146.582 211.411 146.937C210.794 147.293 210.068 147.41 209.371 147.265C208.996 147.189 208.641 147.039 208.324 146.824C208.008 146.61 207.737 146.334 207.528 146.015C207.318 145.695 207.174 145.337 207.103 144.961C207.033 144.586 207.037 144.2 207.116 143.826L207.113 143.825ZM173.365 175.202C172.924 176.689 171.343 177.572 169.833 177.177C169.272 177.041 168.768 176.732 168.391 176.294C169.183 169.462 171.291 162.848 174.598 156.817C174.83 156.817 175.062 156.839 175.294 156.91C176.029 157.11 176.656 157.588 177.043 158.244C177.43 158.9 177.545 159.68 177.363 160.42L177.341 160.49L173.39 175.133L173.365 175.202ZM185.265 183.196V183.267L181.314 197.91L181.292 197.979C180.851 199.443 179.34 200.303 177.83 199.955C176.272 199.582 175.319 198.003 175.691 196.445V196.375L179.643 181.732L179.664 181.662C180.105 180.175 181.686 179.292 183.22 179.687C184.731 180.106 185.638 181.661 185.265 183.196ZM186.405 163.254C184.847 162.882 183.894 161.302 184.266 159.745L184.288 159.675L188.239 145.032L188.261 144.962C188.702 143.475 190.283 142.592 191.793 142.987C192.524 143.185 193.149 143.659 193.536 144.31C193.922 144.961 194.039 145.738 193.862 146.474L193.84 146.566L189.889 161.209L189.867 161.279C189.426 162.743 187.915 163.602 186.405 163.254ZM194.074 213.249L194.052 213.318C193.611 214.783 192.1 215.642 190.59 215.295C189.032 214.923 188.079 213.342 188.452 211.785L188.473 211.714L192.424 197.072L192.446 196.979L192.632 196.537C194.167 197.867 195.851 199.014 197.652 199.954L194.074 213.249ZM206.044 222.197L206.022 222.267L203.21 232.75L202.815 232.587C201.111 231.958 199.443 231.236 197.818 230.425L200.421 220.757L200.443 220.687C200.655 219.96 201.145 219.346 201.805 218.977C202.466 218.608 203.245 218.512 203.975 218.712C205.51 219.107 206.416 220.663 206.044 222.197ZM222.291 214.783L222.221 215.109V215.178L218.27 229.821L218.248 229.891C218.023 230.566 217.558 231.136 216.941 231.491C216.324 231.847 215.598 231.964 214.901 231.82C214.527 231.742 214.172 231.591 213.857 231.377C213.541 231.162 213.271 230.887 213.061 230.567C212.852 230.248 212.707 229.89 212.636 229.515C212.565 229.14 212.568 228.754 212.646 228.38V228.31L216.598 213.667L216.619 213.597C216.835 212.868 217.328 212.252 217.993 211.882C218.659 211.513 219.442 211.419 220.176 211.621C220.564 211.725 220.926 211.908 221.238 212.161C221.55 212.413 221.806 212.728 221.988 213.086L222.082 213.504L222.221 214.178L222.314 214.667L222.291 214.783ZM260.943 218.571C252.668 227.613 241.326 233.795 228.566 235.491L228.45 234.724L228.241 233.19L228.055 232.075L227.845 230.611L227.567 228.821L227.451 228.124L227.196 226.427L227.033 225.427L226.823 224.126L226.614 222.871L226.405 221.662L226.196 220.477L226.01 219.315L225.8 218.199L225.614 217.13L225.475 216.34L225.312 215.572L225.22 215.085L225.034 214.109L224.893 213.411L224.731 212.551L224.592 211.947L224.477 211.366L224.36 210.809L224.29 210.436L224.127 209.739L224.011 209.228L223.895 208.716L223.802 208.391L223.687 207.927L223.593 207.485L223.478 207.044L223.362 206.624L223.292 206.369L223.176 205.974L223.083 205.602L223.012 205.347L222.919 205.114L222.85 204.905L222.757 204.579L222.687 204.347L222.64 204.208C222.526 203.835 222.386 203.47 222.223 203.116L222.153 202.977L222.687 201.581L220.572 201.651L219.991 201.673C200.792 202.069 188.404 193.91 188.404 181.128C188.404 167.577 201.884 156.677 219.177 156.677C227.497 156.677 234.632 158.978 240.257 163.371C245.045 167.113 248.554 172.273 250.367 178.107L250.413 178.246L250.459 178.409L250.552 178.71L250.691 179.269L251.064 180.57L251.458 182.058L253.202 188.426L260.012 213.876L261.197 218.291L260.943 218.571ZM263.872 160.42L263.85 160.49L259.899 175.133L259.877 175.203C259.435 176.666 257.925 177.526 256.413 177.178C254.856 176.806 253.904 175.226 254.275 173.668L254.297 173.598L258.248 158.955V158.886C258.475 158.164 258.97 157.557 259.632 157.189C260.293 156.822 261.071 156.722 261.804 156.91C262.535 157.114 263.16 157.593 263.546 158.248C263.931 158.902 264.048 159.681 263.872 160.42ZM273.866 179.943L269.891 194.586V194.656C269.472 196.214 267.869 197.12 266.311 196.701C264.754 196.283 263.848 194.679 264.267 193.122L264.288 193.053L268.239 178.41L268.261 178.34C268.703 176.852 270.283 175.969 271.794 176.364C272.525 176.561 273.15 177.036 273.536 177.687C273.923 178.338 274.04 179.114 273.863 179.85L273.866 179.943ZM226.614 170.182C226.614 171.168 226.222 172.114 225.525 172.811C224.828 173.509 223.882 173.9 222.895 173.9C221.909 173.9 220.963 173.509 220.266 172.811C219.568 172.114 219.177 171.168 219.177 170.182C219.177 169.195 219.568 168.249 220.266 167.552C220.963 166.855 221.909 166.463 222.895 166.463C223.882 166.463 224.828 166.855 225.525 167.552C226.222 168.249 226.614 169.195 226.614 170.182Z" fill="black"/>
</svg>
