<svg width="313" height="313" viewBox="0 0 313 313" fill="none" xmlns="http://www.w3.org/2000/svg">
<path d="M135.477 73.9804L122.924 63.5196C119.419 60.5993 115.002 59 110.44 59H39.5C34.3283 59 29.3684 61.0545 25.7114 64.7114C22.0545 68.3684 20 73.3283 20 78.5V234.5C20 239.672 22.0545 244.632 25.7114 248.289C29.3684 251.946 34.3283 254 39.5 254H273.5C278.672 254 283.632 251.946 287.289 248.289C290.946 244.632 293 239.672 293 234.5V98C293 92.8283 290.946 87.8684 287.289 84.2114C283.632 80.5545 278.672 78.5 273.5 78.5H147.96C143.398 78.5 138.981 76.9007 135.477 73.9804Z" fill="#2B2E3A"/>
<path d="M210.455 149.362C195.015 146.554 182.807 149.493 177.941 157.91C174.31 164.19 175.348 172.517 180.458 181.418C180.585 181.649 180.767 181.845 180.989 181.988C181.211 182.132 181.465 182.217 181.728 182.237C181.991 182.257 182.255 182.211 182.496 182.104C182.737 181.996 182.947 181.83 183.108 181.621C183.235 181.453 183.328 181.262 183.381 181.058C183.434 180.854 183.446 180.642 183.416 180.434C183.386 180.225 183.314 180.025 183.205 179.845C178.602 171.827 177.706 164.641 180.683 159.491C184.726 152.499 195.615 149.877 209.888 152.473C210.298 152.541 210.718 152.446 211.059 152.207C211.399 151.968 211.631 151.605 211.706 151.197C211.78 150.788 211.691 150.367 211.457 150.024C211.223 149.68 210.863 149.443 210.455 149.362ZM188.488 192.237C194.731 199.089 202.842 205.516 212.092 210.849C234.49 223.764 258.335 227.215 270.086 219.213C270.262 219.098 270.413 218.949 270.53 218.775C270.648 218.601 270.729 218.405 270.77 218.199C270.832 217.888 270.799 217.567 270.676 217.275C270.552 216.984 270.344 216.736 270.078 216.564C269.812 216.392 269.501 216.304 269.184 216.31C268.868 216.316 268.56 216.418 268.302 216.601C257.784 223.762 235.134 220.483 213.676 208.111C204.702 202.936 196.847 196.713 190.83 190.108C190.69 189.954 190.521 189.829 190.333 189.74C190.144 189.65 189.94 189.599 189.732 189.589C189.524 189.579 189.316 189.609 189.119 189.68C188.923 189.75 188.742 189.858 188.588 189.998C188.434 190.138 188.309 190.308 188.221 190.496C188.132 190.685 188.082 190.889 188.073 191.097C188.063 191.305 188.095 191.513 188.166 191.708C188.237 191.904 188.347 192.084 188.488 192.237Z" fill="#9FEAF9"/>
<path d="M266.337 190.314C276.447 178.386 279.977 166.389 275.121 157.99C271.549 151.81 263.996 148.547 253.957 148.416C253.647 148.416 253.344 148.508 253.085 148.679C252.826 148.85 252.623 149.093 252.502 149.378C252.38 149.664 252.345 149.978 252.402 150.283C252.458 150.588 252.602 150.869 252.818 151.093C253.106 151.393 253.501 151.567 253.917 151.579C262.944 151.696 269.452 154.507 272.379 159.572C276.412 166.548 273.264 177.246 263.92 188.27C263.782 188.428 263.678 188.612 263.612 188.811C263.547 189.009 263.522 189.219 263.538 189.428C263.554 189.636 263.612 189.839 263.707 190.025C263.802 190.212 263.934 190.378 264.093 190.513C264.253 190.648 264.438 190.75 264.638 190.813C264.838 190.876 265.049 190.899 265.257 190.88C265.466 190.862 265.668 190.803 265.854 190.705C266.04 190.608 266.203 190.475 266.337 190.314ZM240.354 149.889C231.213 151.845 221.483 155.669 212.139 161.057C189.017 174.388 173.934 194.047 176.029 208.301C176.057 208.508 176.125 208.708 176.231 208.889C176.337 209.07 176.478 209.228 176.645 209.353C176.897 209.544 177.201 209.654 177.516 209.671C177.831 209.687 178.144 209.609 178.415 209.445C178.594 209.338 178.751 209.195 178.875 209.027C178.999 208.858 179.088 208.666 179.137 208.463C179.187 208.259 179.195 208.048 179.162 207.841C177.302 195.185 191.599 176.552 213.722 163.796C222.787 158.569 232.208 154.866 241.018 152.981C241.276 152.93 241.517 152.815 241.72 152.648C241.922 152.48 242.08 152.265 242.179 152.022C242.277 151.778 242.314 151.514 242.285 151.253C242.255 150.992 242.161 150.742 242.011 150.526C241.891 150.354 241.738 150.207 241.561 150.095C241.383 149.982 241.185 149.906 240.978 149.87C240.771 149.835 240.559 149.841 240.354 149.889Z" fill="#9FEAF9"/>
<path d="M202.896 218.183C208.183 232.924 216.83 242 226.555 242C233.647 242 240.208 237.172 245.325 228.671C245.436 228.493 245.51 228.295 245.543 228.088C245.576 227.881 245.568 227.67 245.519 227.466C245.471 227.262 245.381 227.07 245.257 226.9C245.133 226.731 244.977 226.588 244.797 226.48C244.617 226.372 244.417 226.301 244.209 226.271C244.001 226.241 243.789 226.253 243.586 226.306C243.383 226.358 243.192 226.45 243.025 226.576C242.858 226.703 242.717 226.861 242.611 227.042C238.013 234.681 232.364 238.837 226.555 238.837C218.477 238.837 210.764 230.742 205.878 217.117C205.811 216.918 205.705 216.733 205.566 216.575C205.427 216.417 205.257 216.289 205.068 216.197C204.782 216.058 204.462 216.008 204.148 216.054C203.834 216.1 203.541 216.239 203.307 216.453C203.152 216.595 203.026 216.767 202.938 216.958C202.85 217.149 202.801 217.356 202.794 217.566C202.787 217.776 202.821 217.986 202.896 218.183ZM251.18 215.299C253.917 206.566 255.387 196.492 255.387 185.993C255.387 159.797 246.206 137.215 233.129 131.416C232.747 131.256 232.318 131.252 231.933 131.405C231.548 131.558 231.238 131.855 231.07 132.233C230.902 132.611 230.889 133.04 231.034 133.427C231.178 133.815 231.469 134.13 231.844 134.306C243.507 139.479 252.22 160.91 252.22 185.993C252.22 196.179 250.796 205.934 248.158 214.354C248.06 214.654 248.053 214.977 248.14 215.281C248.226 215.584 248.401 215.855 248.643 216.059C248.885 216.261 249.182 216.387 249.497 216.42C249.811 216.453 250.128 216.392 250.407 216.244C250.592 216.146 250.756 216.011 250.889 215.849C251.021 215.687 251.12 215.5 251.18 215.299ZM281 213.75C281 209.57 277.607 206.182 273.422 206.182C269.237 206.182 265.844 209.57 265.844 213.75C265.844 217.93 269.237 221.318 273.422 221.318C277.607 221.318 281 217.93 281 213.75ZM277.834 213.75C277.834 214.329 277.72 214.902 277.498 215.436C277.276 215.971 276.951 216.457 276.542 216.866C276.132 217.275 275.646 217.6 275.11 217.821C274.44 218.098 273.712 218.205 272.99 218.134C272.268 218.063 271.575 217.815 270.972 217.413C270.368 217.01 269.874 216.466 269.532 215.827C269.19 215.188 269.011 214.475 269.011 213.75C269.011 212.879 269.27 212.028 269.755 211.303C270.24 210.579 270.929 210.015 271.735 209.681C272.54 209.348 273.427 209.261 274.283 209.43C275.138 209.6 275.924 210.019 276.542 210.635C277.369 211.461 277.833 212.582 277.834 213.75ZM179.578 221.318C183.764 221.318 187.156 217.93 187.156 213.75C187.156 209.57 183.763 206.182 179.578 206.182C175.393 206.182 172 209.57 172 213.75C172 217.93 175.393 221.318 179.578 221.318ZM179.578 218.156C178.705 218.156 177.853 217.897 177.127 217.413C176.402 216.929 175.837 216.241 175.503 215.436C175.169 214.631 175.082 213.745 175.252 212.891C175.422 212.036 175.842 211.251 176.458 210.635C177.075 210.019 177.862 209.6 178.717 209.43C179.573 209.26 180.46 209.347 181.266 209.681C182.072 210.014 182.761 210.579 183.246 211.303C183.73 212.027 183.989 212.879 183.989 213.75C183.989 214.329 183.875 214.902 183.654 215.436C183.432 215.971 183.107 216.457 182.697 216.866C182.288 217.275 181.801 217.599 181.266 217.821C180.731 218.042 180.157 218.156 179.578 218.156Z" fill="#9FEAF9"/>
<path d="M226.555 139.136C230.74 139.136 234.133 135.748 234.133 131.568C234.133 127.388 230.74 124 226.555 124C222.369 124 218.977 127.388 218.977 131.568C218.977 135.748 222.369 139.136 226.555 139.136ZM226.555 135.974C225.385 135.974 224.262 135.509 223.435 134.683C222.608 133.857 222.143 132.736 222.143 131.568C222.143 130.399 222.608 129.278 223.435 128.452C224.262 127.626 225.385 127.162 226.555 127.162C227.725 127.162 228.847 127.626 229.674 128.452C230.502 129.278 230.966 130.399 230.966 131.568C230.966 132.736 230.502 133.857 229.674 134.683C228.847 135.509 227.725 135.974 226.555 135.974ZM227.712 191.345C224.752 191.984 221.836 190.105 221.196 187.15C221.043 186.447 221.031 185.721 221.16 185.013C221.289 184.306 221.556 183.631 221.946 183.026C222.336 182.422 222.842 181.9 223.434 181.491C224.026 181.082 224.693 180.793 225.397 180.641C228.357 180.003 231.272 181.881 231.914 184.837C232.553 187.793 230.672 190.705 227.712 191.345Z" fill="#9FEAF9"/>
</svg>
