<svg width="313" height="313" viewBox="0 0 313 313" fill="none" xmlns="http://www.w3.org/2000/svg">
<path d="M135.477 73.9804L122.924 63.5196C119.419 60.5993 115.002 59 110.44 59H39.5C34.3283 59 29.3684 61.0545 25.7114 64.7114C22.0545 68.3684 20 73.3283 20 78.5V234.5C20 239.672 22.0545 244.632 25.7114 248.289C29.3684 251.946 34.3283 254 39.5 254H273.5C278.672 254 283.632 251.946 287.289 248.289C290.946 244.632 293 239.672 293 234.5V98C293 92.8283 290.946 87.8684 287.289 84.2114C283.632 80.5545 278.672 78.5 273.5 78.5H147.96C143.398 78.5 138.981 76.9007 135.477 73.9804Z" fill="#0F0A28"/>
<path d="M222 127C214.252 127 206.58 128.524 199.422 131.486C192.263 134.447 185.759 138.788 180.281 144.259C169.216 155.311 163 170.299 163 185.928C163 211.974 179.933 234.071 203.356 241.909C206.306 242.38 207.25 240.553 207.25 238.962V229.004C190.907 232.539 187.426 221.107 187.426 221.107C184.712 214.272 180.877 212.445 180.877 212.445C175.508 208.791 181.29 208.909 181.29 208.909C187.19 209.322 190.317 214.979 190.317 214.979C195.45 223.936 204.123 221.284 207.486 219.87C208.017 216.04 209.551 213.447 211.203 211.974C198.105 210.5 184.358 205.433 184.358 182.981C184.358 176.44 186.6 171.196 190.435 167.012C189.845 165.539 187.78 159.41 191.025 151.455C191.025 151.455 195.981 149.864 207.25 157.466C211.911 156.169 216.985 155.521 222 155.521C227.015 155.521 232.089 156.169 236.75 157.466C248.019 149.864 252.975 151.455 252.975 151.455C256.22 159.41 254.155 165.539 253.565 167.012C257.4 171.196 259.642 176.44 259.642 182.981C259.642 205.491 245.836 210.441 232.679 211.915C234.803 213.741 236.75 217.336 236.75 222.816V238.962C236.75 240.553 237.694 242.439 240.703 241.909C264.126 234.012 281 211.974 281 185.928C281 178.189 279.474 170.526 276.509 163.377C273.544 156.228 269.198 149.731 263.719 144.259C258.241 138.788 251.737 134.447 244.578 131.486C237.42 128.524 229.748 127 222 127Z" fill="#D6DFEC"/>
</svg>
