<svg width="313" height="313" viewBox="0 0 313 313" fill="none" xmlns="http://www.w3.org/2000/svg">
<path d="M135.477 73.9804L122.924 63.5196C119.419 60.5993 115.002 59 110.44 59H39.5C34.3283 59 29.3684 61.0545 25.7114 64.7114C22.0545 68.3684 20 73.3283 20 78.5V234.5C20 239.672 22.0545 244.632 25.7114 248.289C29.3684 251.946 34.3283 254 39.5 254H273.5C278.672 254 283.632 251.946 287.289 248.289C290.946 244.632 293 239.672 293 234.5V98C293 92.8283 290.946 87.8684 287.289 84.2114C283.632 80.5545 278.672 78.5 273.5 78.5H147.96C143.398 78.5 138.981 76.9007 135.477 73.9804Z" fill="#551308"/>
<path d="M279.101 175.536L278.94 175.125L263.424 134.559C263.108 133.764 262.549 133.089 261.827 132.632C261.105 132.182 260.262 131.966 259.413 132.011C258.563 132.057 257.749 132.363 257.078 132.887C256.416 133.427 255.936 134.158 255.702 134.981L245.226 167.091H202.804L192.327 134.981C192.099 134.154 191.618 133.419 190.95 132.882C190.28 132.357 189.465 132.052 188.616 132.006C187.767 131.96 186.924 132.177 186.201 132.626C185.481 133.086 184.922 133.76 184.604 134.554L169.06 175.101L168.905 175.512C164.317 187.522 168.213 201.126 178.462 208.871L178.515 208.913L178.658 209.014L202.293 226.745L213.986 235.611L221.109 240.999C221.942 241.633 222.96 241.976 224.006 241.976C225.052 241.976 226.07 241.633 226.903 240.999L234.026 235.611L245.719 226.745L269.497 208.907L269.556 208.859C279.78 201.113 283.67 187.533 279.101 175.536Z" fill="#E24329"/>
<path d="M279.101 175.536L278.94 175.125C271.38 176.68 264.255 179.888 258.076 184.52L224 210.334C235.604 219.129 245.706 226.77 245.706 226.77L269.484 208.931L269.543 208.884C279.783 201.136 283.679 187.543 279.101 175.536Z" fill="#FC6D26"/>
<path d="M202.293 226.769L213.986 235.635L221.109 241.023C221.942 241.657 222.96 242 224.006 242C225.052 242 226.07 241.657 226.903 241.023L234.026 235.635L245.719 226.769C245.719 226.769 235.605 219.104 224.001 210.333C216.76 215.806 209.525 221.284 202.293 226.769Z" fill="#FCA326"/>
<path d="M189.917 184.52C183.743 179.878 176.62 176.661 169.06 175.101L168.905 175.512C164.317 187.522 168.213 201.126 178.462 208.871L178.515 208.913L178.658 209.014L202.293 226.745L224 210.309L189.917 184.52Z" fill="#FC6D26"/>
</svg>
