<svg width="313" height="313" viewBox="0 0 313 313" fill="none" xmlns="http://www.w3.org/2000/svg">
<path d="M135.477 73.9804L122.924 63.5196C119.419 60.5993 115.002 59 110.44 59H39.5C34.3283 59 29.3684 61.0545 25.7114 64.7114C22.0545 68.3684 20 73.3283 20 78.5V234.5C20 239.672 22.0545 244.632 25.7114 248.289C29.3684 251.946 34.3283 254 39.5 254H273.5C278.672 254 283.632 251.946 287.289 248.289C290.946 244.632 293 239.672 293 234.5V98C293 92.8283 290.946 87.8684 287.289 84.2114C283.632 80.5545 278.672 78.5 273.5 78.5H147.96C143.398 78.5 138.981 76.9007 135.477 73.9804Z" fill="#004149"/>
<g clip-path="url(#clip0_195_322)">
<mask id="mask0_195_322" style="mask-type:luminance" maskUnits="userSpaceOnUse" x="200" y="129" width="81" height="113">
<path d="M200 129H281V242H200V129Z" fill="white"/>
</mask>
<g mask="url(#mask0_195_322)">
<path fill-rule="evenodd" clip-rule="evenodd" d="M202.059 189.715C202.238 192.854 205.37 191.419 206.802 190.433C208.145 189.446 208.592 190.253 208.682 188.37C208.771 187.114 208.861 185.949 208.861 184.693C206.802 184.514 204.565 184.962 202.864 186.218C202.059 186.845 200.358 188.908 202.059 189.715Z" fill="#F6D2A2"/>
</g>
<mask id="mask1_195_322" style="mask-type:luminance" maskUnits="userSpaceOnUse" x="200" y="129" width="81" height="113">
<path d="M200 129H281V242H200V129Z" fill="white"/>
</mask>
<g mask="url(#mask1_195_322)">
<path d="M203.759 191.957C203.133 191.957 201.969 191.688 201.79 189.894C201.253 189.536 201.074 189.087 201.074 188.818C200.985 187.742 202.148 186.487 202.775 186.038C204.207 184.962 206.086 184.424 208.055 184.424H209.219V184.693C209.308 185.679 209.219 186.666 209.129 187.563C209.129 187.832 209.129 188.101 209.04 188.37C208.95 189.715 208.682 189.894 208.055 190.164C207.787 190.253 207.518 190.343 207.071 190.702C206.623 190.971 205.102 191.957 203.759 191.957ZM208.055 184.962C206.176 184.962 204.475 185.5 203.133 186.487C202.506 186.935 201.611 188.011 201.701 188.729C201.701 188.998 201.88 189.267 202.238 189.446L202.417 189.536V189.715C202.506 191.15 203.222 191.329 203.759 191.329C204.654 191.329 205.907 190.702 206.713 190.164C207.25 189.805 207.608 189.715 207.876 189.625C208.324 189.446 208.413 189.446 208.503 188.37C208.503 188.101 208.503 187.832 208.592 187.563C208.682 186.756 208.682 185.859 208.682 185.052C208.413 184.962 208.234 184.962 208.055 184.962Z" fill="black"/>
</g>
<mask id="mask2_195_322" style="mask-type:luminance" maskUnits="userSpaceOnUse" x="200" y="129" width="81" height="113">
<path d="M200 129H281V242H200V129Z" fill="white"/>
</mask>
<g mask="url(#mask2_195_322)">
<path fill-rule="evenodd" clip-rule="evenodd" d="M202.059 189.715C202.506 189.536 203.043 189.446 203.312 188.998Z" fill="#C6B198"/>
</g>
<mask id="mask3_195_322" style="mask-type:luminance" maskUnits="userSpaceOnUse" x="200" y="129" width="81" height="113">
<path d="M200 129H281V242H200V129Z" fill="white"/>
</mask>
<g mask="url(#mask3_195_322)">
<path d="M202.059 189.984C201.969 189.984 201.79 189.894 201.79 189.805C201.7 189.625 201.79 189.446 201.969 189.446C202.059 189.446 202.148 189.356 202.148 189.356C202.506 189.177 202.864 189.087 203.043 188.818C203.133 188.729 203.312 188.639 203.491 188.729C203.58 188.818 203.67 188.998 203.58 189.177C203.222 189.625 202.775 189.805 202.417 189.894L202.238 189.984H202.059Z" fill="black"/>
</g>
<mask id="mask4_195_322" style="mask-type:luminance" maskUnits="userSpaceOnUse" x="200" y="129" width="81" height="113">
<path d="M200 129H281V242H200V129Z" fill="white"/>
</mask>
<g mask="url(#mask4_195_322)">
<path fill-rule="evenodd" clip-rule="evenodd" d="M209.398 151.779C197.226 148.371 206.265 132.856 216.021 139.224L209.398 151.779Z" fill="#6AD7E5"/>
</g>
<mask id="mask5_195_322" style="mask-type:luminance" maskUnits="userSpaceOnUse" x="200" y="129" width="81" height="113">
<path d="M200 129H281V242H200V129Z" fill="white"/>
</mask>
<g mask="url(#mask5_195_322)">
<path d="M209.577 152.138L209.308 152.048C203.043 150.255 203.133 145.771 203.312 144.425C203.759 141.017 206.981 137.43 211.278 137.43C212.978 137.43 214.589 137.968 216.2 139.044L216.469 139.224L209.577 152.138ZM211.278 138.058C207.25 138.058 204.296 141.376 203.849 144.515C203.401 147.744 205.37 150.255 209.219 151.421L215.574 139.314C214.231 138.506 212.799 138.058 211.278 138.058Z" fill="black"/>
</g>
<mask id="mask6_195_322" style="mask-type:luminance" maskUnits="userSpaceOnUse" x="200" y="129" width="81" height="113">
<path d="M200 129H281V242H200V129Z" fill="white"/>
</mask>
<g mask="url(#mask6_195_322)">
<path fill-rule="evenodd" clip-rule="evenodd" d="M263.368 138.058C272.945 131.332 281.716 146.578 270.528 150.434L263.368 138.058Z" fill="#6AD7E5"/>
</g>
<mask id="mask7_195_322" style="mask-type:luminance" maskUnits="userSpaceOnUse" x="200" y="129" width="81" height="113">
<path d="M200 129H281V242H200V129Z" fill="white"/>
</mask>
<g mask="url(#mask7_195_322)">
<path d="M270.438 150.793L263.01 137.968L263.278 137.789C264.979 136.623 266.679 135.995 268.38 135.995C272.497 135.995 275.451 139.403 276.077 142.721C276.346 144.067 276.614 148.64 270.707 150.613L270.438 150.793ZM263.815 138.237L270.707 150.165C274.198 148.909 275.988 146.219 275.451 142.99C274.914 139.941 272.139 136.802 268.38 136.802C266.858 136.713 265.337 137.161 263.815 138.237Z" fill="black"/>
</g>
<mask id="mask8_195_322" style="mask-type:luminance" maskUnits="userSpaceOnUse" x="200" y="129" width="81" height="113">
<path d="M200 129H281V242H200V129Z" fill="white"/>
</mask>
<g mask="url(#mask8_195_322)">
<path fill-rule="evenodd" clip-rule="evenodd" d="M265.516 228.817C267.933 230.341 272.408 234.915 268.738 237.157C265.248 240.386 263.279 233.57 260.146 232.673C261.489 230.879 263.189 229.175 265.516 228.817Z" fill="#F6D2A2"/>
</g>
<mask id="mask9_195_322" style="mask-type:luminance" maskUnits="userSpaceOnUse" x="200" y="129" width="81" height="113">
<path d="M200 129H281V242H200V129Z" fill="white"/>
</mask>
<g mask="url(#mask9_195_322)">
<path d="M266.859 238.323C265.427 238.323 264.174 236.888 263.099 235.543C262.115 234.467 261.13 233.301 260.056 232.942L259.609 232.852L259.877 232.494C260.951 230.969 262.741 228.996 265.427 228.548H265.516L265.606 228.637C267.127 229.624 270.439 232.404 270.349 235.005C270.349 235.991 269.812 236.798 268.828 237.426C268.201 238.054 267.575 238.323 266.859 238.323ZM260.593 232.494C261.667 232.942 262.562 234.108 263.458 235.094C264.532 236.44 265.606 237.606 266.769 237.606C267.306 237.606 267.843 237.336 268.38 236.798H268.47C269.275 236.26 269.723 235.633 269.723 234.825C269.723 232.763 267.127 230.162 265.337 228.996C263.726 229.444 262.115 230.521 260.593 232.494ZM268.738 237.426C268.649 237.426 268.559 237.336 268.47 237.247C268.291 236.888 268.112 236.44 268.022 236.081C267.754 235.363 267.485 234.646 266.948 234.108C266.859 234.018 266.859 233.839 266.948 233.66C267.038 233.57 267.217 233.57 267.396 233.66C268.022 234.287 268.38 235.094 268.649 235.902L269.096 236.978C269.186 237.157 269.096 237.336 269.007 237.426H268.738Z" fill="black"/>
</g>
<mask id="mask10_195_322" style="mask-type:luminance" maskUnits="userSpaceOnUse" x="200" y="129" width="81" height="113">
<path d="M200 129H281V242H200V129Z" fill="white"/>
</mask>
<g mask="url(#mask10_195_322)">
<path fill-rule="evenodd" clip-rule="evenodd" d="M221.839 234.018C218.975 234.467 217.364 237.067 214.947 238.413C212.709 239.758 211.814 237.964 211.635 237.605C211.277 237.426 211.277 237.785 210.74 237.247C208.682 233.928 212.888 231.507 215.126 229.893C218.259 229.175 220.228 231.866 221.839 234.018Z" fill="#F6D2A2"/>
</g>
<mask id="mask11_195_322" style="mask-type:luminance" maskUnits="userSpaceOnUse" x="200" y="129" width="81" height="113">
<path d="M200 129H281V242H200V129Z" fill="white"/>
</mask>
<g mask="url(#mask11_195_322)">
<path d="M213.425 239.13C212.262 239.13 211.635 238.144 211.456 237.785H211.367C211.098 237.785 210.919 237.695 210.561 237.336V237.247C208.592 234.108 211.993 231.686 214.231 230.072L215.036 229.534H215.215C215.573 229.444 215.842 229.444 216.2 229.444C218.885 229.444 220.586 231.776 222.018 233.659L222.465 234.287L221.928 234.377C220.228 234.646 218.975 235.722 217.721 236.798C216.916 237.516 216.11 238.144 215.215 238.682C214.499 238.951 213.962 239.13 213.425 239.13ZM211.456 237.247C211.546 237.247 211.635 237.247 211.814 237.336H211.904L211.993 237.426C212.172 237.695 212.62 238.502 213.515 238.502C213.962 238.502 214.41 238.323 214.857 238.054C215.752 237.605 216.558 236.888 217.274 236.26C218.437 235.274 219.691 234.198 221.302 233.749C219.959 231.955 218.348 229.982 216.11 229.982C215.842 229.982 215.573 229.982 215.305 230.072L214.589 230.61C212.262 232.224 209.398 234.287 211.098 236.978C211.188 237.157 211.277 237.247 211.456 237.247ZM211.635 237.874C211.456 237.874 211.277 237.695 211.367 237.516C211.456 236.619 211.904 235.991 212.351 235.274C212.62 234.915 212.799 234.556 212.978 234.198C213.067 234.018 213.246 234.018 213.336 234.018C213.515 234.108 213.515 234.287 213.515 234.377C213.336 234.825 213.067 235.184 212.799 235.543C212.351 236.171 211.993 236.709 211.904 237.426C211.904 237.785 211.814 237.874 211.635 237.874Z" fill="black"/>
</g>
<mask id="mask12_195_322" style="mask-type:luminance" maskUnits="userSpaceOnUse" x="200" y="129" width="81" height="113">
<path d="M200 129H281V242H200V129Z" fill="white"/>
</mask>
<g mask="url(#mask12_195_322)">
<path fill-rule="evenodd" clip-rule="evenodd" d="M209.935 147.564C208.324 146.757 207.16 145.591 208.145 143.708C209.04 142.004 210.74 142.183 212.351 142.99L209.935 147.564ZM268.022 145.95C269.633 145.143 270.796 143.977 269.812 142.094C268.917 140.39 267.216 140.569 265.605 141.376L268.022 145.95Z" fill="black"/>
</g>
<mask id="mask13_195_322" style="mask-type:luminance" maskUnits="userSpaceOnUse" x="200" y="129" width="81" height="113">
<path d="M200 129H281V242H200V129Z" fill="white"/>
</mask>
<g mask="url(#mask13_195_322)">
<path fill-rule="evenodd" clip-rule="evenodd" d="M279.031 189.267C278.852 192.406 275.719 190.971 274.287 189.984C272.945 188.998 272.497 189.805 272.408 187.921C272.318 186.666 272.229 185.5 272.229 184.244C274.287 184.065 276.525 184.514 278.225 185.769C279.12 186.487 280.731 188.46 279.031 189.267Z" fill="#F6D2A2"/>
</g>
<mask id="mask14_195_322" style="mask-type:luminance" maskUnits="userSpaceOnUse" x="200" y="129" width="81" height="113">
<path d="M200 129H281V242H200V129Z" fill="white"/>
</mask>
<g mask="url(#mask14_195_322)">
<path d="M277.42 191.509C276.078 191.509 274.556 190.522 274.108 190.253C273.661 189.984 273.392 189.805 273.124 189.715C272.408 189.446 272.229 189.267 272.139 187.921C272.139 187.652 272.139 187.383 272.05 187.114C271.96 186.217 271.871 185.231 271.96 184.244V183.975H273.124C275.093 183.975 276.973 184.513 278.405 185.59C279.031 186.038 280.195 187.294 280.105 188.37C280.105 188.729 279.926 189.177 279.389 189.446C279.21 191.24 278.047 191.509 277.42 191.509ZM272.497 184.603C272.497 185.41 272.497 186.307 272.587 187.114C272.587 187.383 272.587 187.652 272.676 187.921C272.766 188.998 272.855 188.998 273.303 189.177C273.571 189.267 273.929 189.446 274.466 189.715C275.272 190.253 276.525 190.881 277.42 190.881C277.957 190.881 278.673 190.702 278.763 189.267V189.087L278.942 188.998C279.3 188.818 279.479 188.639 279.479 188.28C279.568 187.563 278.673 186.486 278.047 186.038C276.704 185.052 274.914 184.513 273.124 184.513C272.945 184.603 272.766 184.603 272.497 184.603Z" fill="black"/>
</g>
<mask id="mask15_195_322" style="mask-type:luminance" maskUnits="userSpaceOnUse" x="200" y="129" width="81" height="113">
<path d="M200 129H281V242H200V129Z" fill="white"/>
</mask>
<g mask="url(#mask15_195_322)">
<path fill-rule="evenodd" clip-rule="evenodd" d="M279.031 189.267C278.583 189.087 278.046 188.998 277.778 188.549Z" fill="#C6B198"/>
</g>
<mask id="mask16_195_322" style="mask-type:luminance" maskUnits="userSpaceOnUse" x="200" y="129" width="81" height="113">
<path d="M200 129H281V242H200V129Z" fill="white"/>
</mask>
<g mask="url(#mask16_195_322)">
<path d="M279.031 189.625H278.941L278.762 189.536C278.315 189.356 277.867 189.267 277.599 188.818C277.509 188.729 277.509 188.46 277.688 188.37C277.778 188.28 278.046 188.28 278.136 188.46C278.315 188.729 278.673 188.818 279.031 188.998C279.12 188.998 279.21 189.087 279.21 189.087C279.389 189.177 279.478 189.356 279.389 189.446C279.299 189.536 279.12 189.625 279.031 189.625Z" fill="black"/>
</g>
<mask id="mask17_195_322" style="mask-type:luminance" maskUnits="userSpaceOnUse" x="200" y="129" width="81" height="113">
<path d="M200 129H281V242H200V129Z" fill="white"/>
</mask>
<g mask="url(#mask17_195_322)">
<path fill-rule="evenodd" clip-rule="evenodd" d="M239.381 131.69C251.554 131.69 262.92 133.394 268.917 145.143C274.287 158.236 272.318 172.406 273.213 186.307C273.929 198.235 275.451 211.956 269.991 222.987C264.173 234.556 249.674 237.516 237.77 237.067C228.372 236.709 217.095 233.659 211.725 225.05C205.549 215.006 208.413 200.029 208.861 188.818C209.398 175.545 205.281 162.182 209.666 149.268C214.052 135.726 226.224 132.677 239.381 131.69Z" fill="#6AD7E5"/>
</g>
<mask id="mask18_195_322" style="mask-type:luminance" maskUnits="userSpaceOnUse" x="200" y="129" width="81" height="113">
<path d="M200 129H281V242H200V129Z" fill="white"/>
</mask>
<g mask="url(#mask18_195_322)">
<path d="M239.829 237.426H237.591C233.922 237.337 228.372 236.709 222.913 234.467C217.632 232.314 213.783 229.265 211.277 225.229C206.265 217.068 207.16 205.858 207.966 195.903C208.145 193.392 208.324 191.06 208.413 188.818C208.592 184.155 208.234 179.312 207.787 174.738C207.071 166.308 206.355 157.609 209.129 149.179C211.277 142.901 215.126 138.417 220.944 135.547C225.508 133.305 231.147 132.049 239.202 131.421C251.196 131.332 263.099 133.036 269.096 144.964C273.034 154.56 273.034 164.873 273.124 174.828C273.124 178.594 273.124 182.451 273.392 186.217C273.482 187.383 273.571 188.549 273.571 189.715C274.287 200.656 275.093 213.033 270.081 223.077C267.575 228.189 263.189 231.956 257.192 234.377C252.359 236.35 246.273 237.426 239.829 237.426ZM239.381 131.96C226.761 132.946 214.41 135.726 209.845 149.358C207.071 157.698 207.787 166.308 208.503 174.648C208.861 179.312 209.308 184.065 209.129 188.818C209.04 191.06 208.861 193.392 208.682 195.903C207.876 205.768 206.981 216.889 211.904 224.871C213.962 228.189 220.586 236.081 237.681 236.709H239.918C259.698 236.709 267.038 227.92 269.723 222.718C274.645 212.853 273.84 200.477 273.213 189.625C273.124 188.46 273.034 187.294 273.034 186.128C272.855 182.361 272.766 178.505 272.766 174.738C272.676 164.873 272.676 154.56 268.828 145.053C266.143 139.762 262.115 136.175 256.566 134.112C250.838 132.229 244.393 131.96 239.381 131.96Z" fill="black"/>
</g>
<mask id="mask19_195_322" style="mask-type:luminance" maskUnits="userSpaceOnUse" x="200" y="129" width="81" height="113">
<path d="M200 129H281V242H200V129Z" fill="white"/>
</mask>
<g mask="url(#mask19_195_322)">
<path fill-rule="evenodd" clip-rule="evenodd" d="M241.529 148.013C243.677 160.748 264.442 157.34 261.488 144.515C258.803 133.036 240.813 136.264 241.529 148.013Z" fill="white"/>
</g>
<mask id="mask20_195_322" style="mask-type:luminance" maskUnits="userSpaceOnUse" x="200" y="129" width="81" height="113">
<path d="M200 129H281V242H200V129Z" fill="white"/>
</mask>
<g mask="url(#mask20_195_322)">
<path d="M251.375 156.353C247.347 156.353 242.245 154.201 241.171 148.102C240.992 145.233 241.887 142.632 243.767 140.659C245.825 138.417 248.958 137.161 252.18 137.161C255.939 137.161 260.414 139.134 261.667 144.605C262.384 147.654 261.846 150.344 260.146 152.497C258.266 154.829 254.955 156.353 251.375 156.353ZM241.798 148.013C242.245 150.524 243.409 152.497 245.288 153.932C246.9 155.187 249.137 155.815 251.375 155.815C254.686 155.815 257.908 154.38 259.698 152.138C261.309 150.165 261.757 147.564 261.13 144.694C259.967 139.583 255.76 137.789 252.18 137.789C249.137 137.789 246.184 139.044 244.214 141.107C242.514 142.901 241.619 145.322 241.798 148.013Z" fill="black"/>
</g>
<mask id="mask21_195_322" style="mask-type:luminance" maskUnits="userSpaceOnUse" x="200" y="129" width="81" height="113">
<path d="M200 129H281V242H200V129Z" fill="white"/>
</mask>
<g mask="url(#mask21_195_322)">
<path fill-rule="evenodd" clip-rule="evenodd" d="M216.737 150.075C219.601 161.106 237.233 158.326 236.607 147.206C235.801 133.933 213.963 136.444 216.737 150.075Z" fill="white"/>
</g>
<mask id="mask22_195_322" style="mask-type:luminance" maskUnits="userSpaceOnUse" x="200" y="129" width="81" height="113">
<path d="M200 129H281V242H200V129Z" fill="white"/>
</mask>
<g mask="url(#mask22_195_322)">
<path d="M226.135 157.429C222.286 157.429 217.811 155.546 216.379 150.165C215.752 147.026 216.379 144.156 218.169 142.004C220.138 139.583 223.36 138.148 226.851 138.148C231.505 138.148 236.428 140.928 236.786 147.206C236.965 149.806 236.159 152.138 234.369 154.022C232.489 156.084 229.357 157.429 226.135 157.429ZM226.851 138.775C223.539 138.775 220.496 140.121 218.617 142.363C216.916 144.425 216.379 147.026 217.005 149.986C218.258 155.008 222.555 156.802 226.135 156.802C229.178 156.802 232.131 155.636 234.011 153.573C235.622 151.869 236.428 149.627 236.249 147.206C236.07 143.349 233.474 138.775 226.851 138.775Z" fill="black"/>
</g>
<mask id="mask23_195_322" style="mask-type:luminance" maskUnits="userSpaceOnUse" x="200" y="129" width="81" height="113">
<path d="M200 129H281V242H200V129Z" fill="white"/>
</mask>
<g mask="url(#mask23_195_322)">
<path fill-rule="evenodd" clip-rule="evenodd" d="M244.036 163.259C244.036 164.873 244.394 166.756 244.125 168.55C243.678 169.357 242.872 169.447 242.156 169.716C241.171 169.536 240.366 168.909 239.918 168.012C239.65 166.039 240.008 164.066 240.097 162.093L244.036 163.259Z" fill="white"/>
</g>
<mask id="mask24_195_322" style="mask-type:luminance" maskUnits="userSpaceOnUse" x="200" y="129" width="81" height="113">
<path d="M200 129H281V242H200V129Z" fill="white"/>
</mask>
<g mask="url(#mask24_195_322)">
<path d="M242.156 170.075C240.992 169.895 240.097 169.178 239.65 168.191C239.471 166.756 239.56 165.411 239.65 164.066C239.739 163.438 239.739 162.81 239.739 162.182V161.824L244.304 163.259V163.438C244.304 163.976 244.393 164.514 244.393 165.142C244.483 166.308 244.572 167.563 244.393 168.729V168.819C244.035 169.536 243.409 169.716 242.782 169.985C242.603 169.895 242.424 169.985 242.156 170.075ZM240.187 167.922C240.545 168.729 241.261 169.267 242.066 169.447C242.245 169.357 242.424 169.357 242.514 169.267C243.051 169.088 243.498 168.909 243.767 168.46C243.946 167.384 243.856 166.218 243.767 165.052C243.767 164.514 243.677 163.976 243.677 163.528L240.276 162.452C240.276 162.99 240.187 163.528 240.187 163.976C240.097 165.411 240.008 166.667 240.187 167.922Z" fill="black"/>
</g>
<mask id="mask25_195_322" style="mask-type:luminance" maskUnits="userSpaceOnUse" x="200" y="129" width="81" height="113">
<path d="M200 129H281V242H200V129Z" fill="white"/>
</mask>
<g mask="url(#mask25_195_322)">
<path fill-rule="evenodd" clip-rule="evenodd" d="M224.613 148.282C224.613 150.075 223.271 151.51 221.66 151.51C220.049 151.51 218.706 150.075 218.706 148.282C218.706 146.488 220.049 145.053 221.66 145.053C223.271 145.053 224.613 146.488 224.613 148.282Z" fill="black"/>
</g>
<mask id="mask26_195_322" style="mask-type:luminance" maskUnits="userSpaceOnUse" x="200" y="129" width="81" height="113">
<path d="M200 129H281V242H200V129Z" fill="white"/>
</mask>
<g mask="url(#mask26_195_322)">
<path fill-rule="evenodd" clip-rule="evenodd" d="M223.629 148.999C223.629 149.448 223.271 149.806 222.913 149.806C222.555 149.806 222.197 149.448 222.197 148.999C222.197 148.551 222.555 148.192 222.913 148.192C223.36 148.192 223.629 148.551 223.629 148.999Z" fill="white"/>
</g>
<mask id="mask27_195_322" style="mask-type:luminance" maskUnits="userSpaceOnUse" x="200" y="129" width="81" height="113">
<path d="M200 129H281V242H200V129Z" fill="white"/>
</mask>
<g mask="url(#mask27_195_322)">
<path fill-rule="evenodd" clip-rule="evenodd" d="M249.584 147.475C249.584 149.268 248.242 150.703 246.631 150.703C245.02 150.703 243.677 149.268 243.677 147.475C243.677 145.681 245.02 144.246 246.631 144.246C248.242 144.246 249.584 145.681 249.584 147.475Z" fill="black"/>
</g>
<mask id="mask28_195_322" style="mask-type:luminance" maskUnits="userSpaceOnUse" x="200" y="129" width="81" height="113">
<path d="M200 129H281V242H200V129Z" fill="white"/>
</mask>
<g mask="url(#mask28_195_322)">
<path fill-rule="evenodd" clip-rule="evenodd" d="M248.689 148.192C248.689 148.641 248.421 148.999 247.973 148.999C247.615 148.999 247.257 148.641 247.257 148.192C247.257 147.744 247.526 147.385 247.973 147.385C248.331 147.385 248.689 147.744 248.689 148.192ZM235.443 163.079C234.1 166.218 236.159 172.586 239.739 167.922C239.471 165.949 239.829 163.976 239.918 162.003L235.443 163.079Z" fill="white"/>
</g>
<mask id="mask29_195_322" style="mask-type:luminance" maskUnits="userSpaceOnUse" x="200" y="129" width="81" height="113">
<path d="M200 129H281V242H200V129Z" fill="white"/>
</mask>
<g mask="url(#mask29_195_322)">
<path d="M237.323 169.895C236.696 169.895 236.07 169.536 235.622 168.819C234.638 167.384 234.459 164.694 235.175 162.99L235.264 162.81L240.187 161.555V161.913L240.097 163.886C240.008 165.232 239.918 166.487 240.097 167.832V167.922L240.008 168.012C239.113 169.267 238.218 169.895 237.323 169.895ZM235.712 163.348C235.175 164.873 235.354 167.294 236.159 168.46C236.517 168.998 236.875 169.267 237.323 169.267C237.949 169.267 238.665 168.729 239.381 167.832C239.202 166.487 239.292 165.142 239.471 163.886L239.56 162.362L235.712 163.348Z" fill="black"/>
</g>
<mask id="mask30_195_322" style="mask-type:luminance" maskUnits="userSpaceOnUse" x="200" y="129" width="81" height="113">
<path d="M200 129H281V242H200V129Z" fill="white"/>
</mask>
<g mask="url(#mask30_195_322)">
<path fill-rule="evenodd" clip-rule="evenodd" d="M235.891 156.981C233.474 157.16 231.505 160.12 232.758 162.362C234.459 165.411 238.128 162.093 240.455 162.362C243.14 162.452 245.288 165.232 247.437 162.9C249.853 160.299 246.363 157.788 243.767 156.622L235.891 156.981Z" fill="#F6D2A2"/>
</g>
<mask id="mask31_195_322" style="mask-type:luminance" maskUnits="userSpaceOnUse" x="200" y="129" width="81" height="113">
<path d="M200 129H281V242H200V129Z" fill="white"/>
</mask>
<g mask="url(#mask31_195_322)">
<path d="M245.557 164.156C244.751 164.156 243.946 163.797 243.14 163.438C242.335 163.079 241.44 162.721 240.455 162.721H240.187C239.471 162.721 238.665 162.99 237.77 163.349C236.786 163.707 235.801 163.976 234.906 163.976C233.832 163.976 233.027 163.528 232.49 162.541C231.863 161.465 231.953 160.21 232.579 159.044C233.295 157.699 234.548 156.891 235.891 156.712L243.856 156.353H243.946C245.915 157.16 248.153 158.685 248.6 160.479C248.779 161.375 248.511 162.272 247.795 163.079C247.078 163.887 246.362 164.156 245.557 164.156ZM240.545 162.183C241.529 162.183 242.514 162.631 243.409 162.99C244.214 163.349 244.93 163.618 245.646 163.618C246.273 163.618 246.81 163.349 247.347 162.81C247.974 162.183 248.153 161.465 248.063 160.748C247.705 159.223 245.557 157.788 243.856 157.071L236.07 157.429C234.906 157.519 233.832 158.326 233.206 159.402C232.669 160.389 232.669 161.465 233.116 162.362C233.564 163.169 234.101 163.528 234.996 163.528C235.801 163.528 236.696 163.169 237.591 162.9C238.576 162.541 239.381 162.272 240.276 162.272C240.276 162.093 240.366 162.093 240.545 162.183Z" fill="#231F20"/>
</g>
<mask id="mask32_195_322" style="mask-type:luminance" maskUnits="userSpaceOnUse" x="200" y="129" width="81" height="113">
<path d="M200 129H281V242H200V129Z" fill="white"/>
</mask>
<g mask="url(#mask32_195_322)">
<path fill-rule="evenodd" clip-rule="evenodd" d="M235.622 156.891C235.443 152.676 243.498 152.138 244.393 155.636C245.378 159.223 235.98 160.03 235.622 156.891Z" fill="black"/>
</g>
</g>
<defs>
<clipPath id="clip0_195_322">
<rect width="81" height="113" fill="white" transform="translate(200 129)"/>
</clipPath>
</defs>
</svg>
