<svg width="313" height="313" viewBox="0 0 313 313" fill="none" xmlns="http://www.w3.org/2000/svg">
<path d="M135.477 73.9804L122.924 63.5196C119.419 60.5993 115.002 59 110.44 59H39.5C34.3283 59 29.3684 61.0545 25.7114 64.7114C22.0545 68.3684 20 73.3283 20 78.5V234.5C20 239.672 22.0545 244.632 25.7114 248.289C29.3684 251.946 34.3283 254 39.5 254H273.5C278.672 254 283.632 251.946 287.289 248.289C290.946 244.632 293 239.672 293 234.5V98C293 92.8283 290.946 87.8684 287.289 84.2114C283.632 80.5545 278.672 78.5 273.5 78.5H147.96C143.398 78.5 138.981 76.9007 135.477 73.9804Z" fill="#382432"/>
<path fill-rule="evenodd" clip-rule="evenodd" d="M240.196 141.064L263.531 154.598C264.205 153.882 264.978 153.268 265.826 152.774C270.666 149.979 276.838 151.638 279.649 156.5C282.432 161.362 280.78 167.562 275.94 170.386C275.098 170.873 274.19 171.236 273.245 171.464V198.543C274.18 198.771 275.078 199.131 275.911 199.614C280.78 202.437 282.432 208.638 279.621 213.5C276.838 218.361 270.637 220.021 265.797 217.226C264.859 216.686 264.015 215.997 263.296 215.186L240.103 228.638C240.443 229.671 240.615 230.752 240.614 231.84C240.614 237.429 236.093 242 230.5 242C224.907 242 220.386 237.458 220.386 231.84C220.386 230.841 220.529 229.876 220.795 228.965L197.467 215.435C196.8 216.137 196.038 216.74 195.203 217.226C190.334 220.021 184.162 218.361 181.379 213.5C178.598 208.638 180.249 202.437 185.089 199.614C185.922 199.131 186.82 198.771 187.755 198.542V171.464C186.81 171.236 185.902 170.873 185.06 170.386C180.22 167.591 178.568 161.362 181.351 156.5C184.133 151.638 190.334 149.979 195.174 152.774C196.018 153.265 196.787 153.876 197.458 154.587L220.8 141.049C220.525 140.111 220.385 139.138 220.386 138.16C220.386 132.542 224.907 128 230.5 128C236.093 128 240.614 132.541 240.614 138.16C240.614 139.17 240.468 140.144 240.196 141.064ZM237.765 145.234L261.155 158.8C260.783 160.108 260.676 161.478 260.841 162.828C261.006 164.178 261.44 165.481 262.117 166.66C263.541 169.148 265.86 170.797 268.434 171.44V198.553C268.303 198.585 268.173 198.62 268.043 198.657L237.493 145.506C237.585 145.417 237.676 145.326 237.765 145.234ZM223.513 145.512L192.964 198.663C192.832 198.624 192.699 198.589 192.566 198.556V171.441C195.14 170.798 197.459 169.148 198.883 166.66C199.561 165.479 199.995 164.174 200.16 162.821C200.324 161.468 200.216 160.095 199.841 158.786L223.224 145.223C223.319 145.321 223.415 145.418 223.513 145.512ZM233.326 147.919L263.868 201.058C263.169 201.729 262.569 202.497 262.088 203.34C261.608 204.177 261.249 205.079 261.022 206.018H199.979C199.752 205.079 199.393 204.177 198.912 203.34C198.429 202.503 197.831 201.739 197.135 201.071L227.683 147.922C228.599 148.186 229.547 148.32 230.5 148.319C231.481 148.319 232.429 148.18 233.326 147.919ZM237.98 224.995L261.218 211.517C261.148 211.297 261.086 211.075 261.032 210.851H199.966C199.934 210.982 199.899 211.113 199.861 211.244L223.213 224.788C224.156 223.803 225.288 223.02 226.54 222.486C227.793 221.952 229.14 221.678 230.5 221.68C231.908 221.678 233.301 221.971 234.589 222.542C235.877 223.113 237.032 223.949 237.98 224.995Z" fill="#E535AB"/>
</svg>
