<svg width="313" height="313" viewBox="0 0 313 313" fill="none" xmlns="http://www.w3.org/2000/svg">
<path d="M135.477 73.9804L122.924 63.5196C119.419 60.5993 115.002 59 110.44 59H39.5C34.3283 59 29.3684 61.0545 25.7114 64.7114C22.0545 68.3684 20 73.3283 20 78.5V234.5C20 239.672 22.0545 244.632 25.7114 248.289C29.3684 251.946 34.3283 254 39.5 254H273.5C278.672 254 283.632 251.946 287.289 248.289C290.946 244.632 293 239.672 293 234.5V98C293 92.8283 290.946 87.8684 287.289 84.2114C283.632 80.5545 278.672 78.5 273.5 78.5H147.96C143.398 78.5 138.981 76.9007 135.477 73.9804Z" fill="black"/>
<path fill-rule="evenodd" clip-rule="evenodd" d="M190 151L235.5 130.778L281 151V181.333C281 209.392 261.587 235.63 235.5 242C209.413 235.63 190 209.392 190 181.333V151ZM210.222 169.633C207.989 169.633 206.178 171.444 206.178 173.678C206.178 175.912 207.989 177.722 210.222 177.722H261.067C263.3 177.722 265.111 175.912 265.111 173.678C265.111 171.444 263.3 169.633 261.067 169.633H210.222Z" fill="#9997B1"/>
</svg>
