<svg width="313" height="313" viewBox="0 0 313 313" fill="none" xmlns="http://www.w3.org/2000/svg">
<path d="M135.477 73.9804L122.924 63.5196C119.419 60.5993 115.002 59 110.44 59H39.5C34.3283 59 29.3684 61.0545 25.7114 64.7114C22.0545 68.3684 20 73.3283 20 78.5V234.5C20 239.672 22.0545 244.632 25.7114 248.289C29.3684 251.946 34.3283 254 39.5 254H273.5C278.672 254 283.632 251.946 287.289 248.289C290.946 244.632 293 239.672 293 234.5V98C293 92.8283 290.946 87.8684 287.289 84.2114C283.632 80.5545 278.672 78.5 273.5 78.5H147.96C143.398 78.5 138.981 76.9007 135.477 73.9804Z" fill="#0C5964"/>
<g clip-path="url(#clip0_195_227)">
<path d="M226.948 129.904C226.266 129.321 225.398 129 224.5 129C223.602 129 222.734 129.321 222.052 129.904L168 176.234V230.7C168 233.697 169.191 236.571 171.31 238.691C173.429 240.81 176.303 242 179.3 242H209.433C210.432 242 211.39 241.603 212.097 240.897C212.803 240.191 213.2 239.233 213.2 238.234V215.634C213.2 212.637 214.391 209.762 216.51 207.643C218.629 205.524 221.503 204.334 224.5 204.334C227.497 204.334 230.371 205.524 232.49 207.643C234.609 209.762 235.8 212.637 235.8 215.634V238.234C235.8 239.233 236.197 240.191 236.903 240.897C237.61 241.603 238.568 242 239.567 242H269.7C272.697 242 275.571 240.81 277.69 238.691C279.809 236.571 281 233.697 281 230.7V176.234L226.948 129.904Z" fill="#F0E9FF"/>
</g>
<defs>
<clipPath id="clip0_195_227">
<rect width="113" height="113" fill="white" transform="translate(168 129)"/>
</clipPath>
</defs>
</svg>
