<svg width="313" height="313" viewBox="0 0 313 313" fill="none" xmlns="http://www.w3.org/2000/svg">
<path d="M135.477 73.9804L122.924 63.5196C119.419 60.5993 115.002 59 110.44 59H39.5C34.3283 59 29.3684 61.0545 25.7114 64.7114C22.0545 68.3684 20 73.3283 20 78.5V234.5C20 239.672 22.0545 244.632 25.7114 248.289C29.3684 251.946 34.3283 254 39.5 254H273.5C278.672 254 283.632 251.946 287.289 248.289C290.946 244.632 293 239.672 293 234.5V98C293 92.8283 290.946 87.8684 287.289 84.2114C283.632 80.5545 278.672 78.5 273.5 78.5H147.96C143.398 78.5 138.981 76.9007 135.477 73.9804Z" fill="#120817"/>
<rect width="205" height="131" transform="translate(88 123)" fill="#120817"/>
<circle cx="223.5" cy="184.5" r="57" fill="#130817" stroke="#CC68FB"/>
<path d="M223 140L242.417 151.368L261.971 162.5L261.835 185L261.971 207.5L242.417 218.632L223 230L203.583 218.632L184.029 207.5L184.165 185L184.029 162.5L203.583 151.368L223 140Z" fill="#CC68FB"/>
<path d="M223.5 148L233.734 170.415L258.214 173.221L240.058 189.88L244.954 214.029L223.5 201.91L202.046 214.029L206.942 189.88L188.786 173.221L213.266 170.415L223.5 148Z" fill="#F6E4FF"/>
</svg>
