<svg width="313" height="313" viewBox="0 0 313 313" fill="none" xmlns="http://www.w3.org/2000/svg">
<path d="M135.477 73.9804L122.924 63.5196C119.419 60.5993 115.002 59 110.44 59H39.5C34.3283 59 29.3684 61.0545 25.7114 64.7114C22.0545 68.3684 20 73.3283 20 78.5V234.5C20 239.672 22.0545 244.632 25.7114 248.289C29.3684 251.946 34.3283 254 39.5 254H273.5C278.672 254 283.632 251.946 287.289 248.289C290.946 244.632 293 239.672 293 234.5V98C293 92.8283 290.946 87.8684 287.289 84.2114C283.632 80.5545 278.672 78.5 273.5 78.5H147.96C143.398 78.5 138.981 76.9007 135.477 73.9804Z" fill="#FFC700"/>
<g opacity="0.73">
<path d="M69.8465 189.958L67.4577 189.08C66.0098 190.153 64.2048 195.52 65.3945 199.033C67.2188 204.419 72.7422 205.766 75.2758 205.766C107.019 203.57 172.308 199.15 179.518 199.033C188.531 198.887 189.4 192.885 189.942 192.3C190.485 191.714 187.011 189.958 186.793 189.958C186.88 194.759 182.414 195.081 180.17 194.642C163.628 194.691 129.417 194.935 124.9 195.52C119.253 196.252 87.4374 200.497 74.7329 201.082C64.5693 201.55 67.2405 193.861 69.8465 189.958Z" fill="#4D2817"/>
<path d="M68.8252 210.477L66.349 210.462C65.1567 212.004 64.4436 217.818 66.2673 220.796C69.0636 225.363 74.6573 224.736 77.1047 223.852C107.345 210.657 169.56 183.609 176.502 180.981C185.18 177.695 184.867 171.595 185.279 170.84C185.691 170.085 181.997 169.601 181.787 169.677C182.793 174.284 178.54 176.153 176.288 176.512C160.32 182.33 127.321 194.501 123.07 196.643C117.757 199.32 87.8402 214.52 75.6809 219.517C65.9535 223.516 67.0573 215.157 68.8252 210.477Z" fill="#4D2817"/>
<path d="M79.5696 238.661L77.7007 240.544C76.244 240.837 73.6149 239.072 73.9251 236.508C74.4007 232.577 78.8599 228.584 81.0301 227.078C108.662 209.382 165.476 172.935 171.675 168.714C179.424 163.437 181.379 166.094 181.962 166.081C182.546 166.068 179.924 169.06 179.738 169.189C178.843 166.6 174.953 169.083 173.119 170.648C158.941 180.448 129.589 200.643 125.602 203.017C120.618 205.984 92.5101 222.64 81.5102 229.877C72.7102 235.667 76.5498 238.145 79.5696 238.661Z" fill="#4D2817"/>
<path d="M155.909 187.882C154.738 189.989 141.76 197.054 135.417 200.323C139.955 202.763 149.85 208.52 153.128 212.033C157.227 216.424 155.177 224.328 154.885 228.573C154.592 232.817 155.909 236.477 154.153 236.477C145.371 236.477 135.417 228.573 133.661 224.328C132.256 220.932 130.831 211.203 130.295 206.763C129.416 212.228 127.133 224.24 125.025 228.573C122.391 233.988 118.146 234.72 112.876 238.233C107.607 241.746 106.436 242.624 104.826 241.6C103.216 240.575 105.704 235.891 105.704 234.72C104.387 231.207 105.704 222.279 106.436 218.327C107.022 215.165 114.096 208.032 117.56 204.861C113.901 206.324 102.484 206.178 99.264 204.275C96.0439 202.372 96.6294 200.323 92.531 199.884C86.3835 199.006 83.7488 195.932 83.8952 193.883C84.0415 191.834 87.5544 191.102 89.0181 190.809C90.4818 190.516 94.5802 187.882 103.655 186.125C110.915 184.72 115.072 187.296 116.243 188.76C114.389 185.93 110.535 179.246 109.949 175.147C109.217 170.024 112.291 165.341 113.755 162.56C115.218 159.778 113.462 156.705 116.243 156.119C119.024 155.534 117.999 157.144 119.902 160.071C121.805 162.999 125.025 161.096 129.416 170.024C132.929 177.167 132.832 188.126 132.344 192.712C133.71 191.199 136.735 187.15 137.906 183.051C139.077 178.953 141.907 175.294 143.175 173.976C148.737 169.195 160.066 160.218 160.886 162.56C163.667 178.514 157.373 185.247 155.909 187.882Z" fill="url(#paint0_radial_151_40)"/>
<path d="M123.737 193.571C125.417 191.897 128.134 191.897 129.814 193.571V193.571C130.131 193.886 130.494 194.151 130.892 194.354V194.354C133.003 195.434 133.843 198.019 132.77 200.134V200.134C132.568 200.532 132.429 200.96 132.358 201.401V201.401C131.983 203.742 129.785 205.34 127.442 204.973V204.973C127 204.904 126.551 204.904 126.11 204.973V204.973C123.767 205.34 121.568 203.742 121.193 201.401V201.401C121.122 200.96 120.984 200.532 120.782 200.134V200.134C119.709 198.019 120.548 195.434 122.66 194.354V194.354C123.057 194.151 123.421 193.886 123.737 193.571V193.571Z" fill="#FFCA2B"/>
<path d="M130.142 200.497C130.142 201.026 130.012 201.548 129.762 202.015C129.512 202.482 129.151 202.88 128.711 203.174C128.271 203.468 127.765 203.649 127.238 203.701C126.711 203.753 126.179 203.674 125.69 203.472C125.201 203.269 124.769 202.949 124.433 202.539C124.097 202.13 123.867 201.644 123.764 201.125C123.66 200.605 123.687 200.069 123.841 199.562C123.994 199.055 124.271 198.594 124.645 198.22L126.922 200.497H130.142Z" fill="#E07709"/>
</g>
<path d="M207.415 242C206.46 242 205.308 241.944 203.96 241.831C202.668 241.719 201.348 241.523 200 241.242V232.647C201.067 232.872 202.078 233.041 203.033 233.153C204.045 233.265 204.887 233.322 205.561 233.322C208.145 233.322 209.999 232.563 211.122 231.047C212.302 229.53 212.892 227.115 212.892 223.8V166.843H223.761V223.8C223.761 227.845 223.2 231.215 222.076 233.911C220.953 236.608 219.183 238.63 216.768 239.978C214.409 241.326 211.291 242 207.415 242Z" fill="#1F1908"/>
<path d="M257.66 227.086C252.885 227.086 248.475 226.497 244.431 225.317C240.443 224.081 237.016 222.396 234.151 220.262L237.522 211.752C239.431 213.1 241.426 214.251 243.504 215.206C245.583 216.105 247.801 216.807 250.161 217.313C252.52 217.762 255.02 217.987 257.66 217.987C262.098 217.987 265.299 217.256 267.266 215.796C269.232 214.336 270.215 212.426 270.215 210.067C270.215 207.988 269.541 206.415 268.192 205.348C266.844 204.225 264.429 203.298 260.946 202.568L251.425 200.63C245.976 199.506 241.903 197.625 239.207 194.984C236.51 192.344 235.162 188.806 235.162 184.368C235.162 180.661 236.145 177.431 238.111 174.678C240.077 171.926 242.83 169.792 246.369 168.275C249.908 166.758 254.037 166 258.755 166C262.968 166 266.872 166.618 270.467 167.854C274.063 169.033 277.068 170.746 279.483 172.993L276.113 181.082C273.697 179.06 271.057 177.571 268.192 176.616C265.328 175.605 262.126 175.1 258.587 175.1C254.598 175.1 251.481 175.886 249.234 177.459C247.043 178.976 245.948 181.082 245.948 183.778C245.948 185.857 246.622 187.514 247.97 188.749C249.374 189.985 251.734 190.94 255.048 191.614L264.485 193.468C270.102 194.591 274.259 196.445 276.955 199.029C279.652 201.557 281 204.983 281 209.308C281 212.847 280.045 215.965 278.135 218.661C276.225 221.301 273.529 223.379 270.046 224.896C266.563 226.356 262.435 227.086 257.66 227.086Z" fill="#1F1908"/>
<defs>
<radialGradient id="paint0_radial_151_40" cx="0" cy="0" r="1" gradientUnits="userSpaceOnUse" gradientTransform="translate(122.738 199) rotate(90) scale(43 38.8487)">
<stop offset="0.29" stop-color="#EDEECD"/>
<stop offset="0.705" stop-color="#F3E276"/>
<stop offset="1" stop-color="#EBC76B"/>
</radialGradient>
</defs>
</svg>
