<svg width="313" height="313" viewBox="0 0 313 313" fill="none" xmlns="http://www.w3.org/2000/svg">
<path d="M135.477 73.9804L122.924 63.5196C119.419 60.5993 115.002 59 110.44 59H39.5C34.3283 59 29.3684 61.0545 25.7114 64.7114C22.0545 68.3684 20 73.3283 20 78.5V234.5C20 239.672 22.0545 244.632 25.7114 248.289C29.3684 251.946 34.3283 254 39.5 254H273.5C278.672 254 283.632 251.946 287.289 248.289C290.946 244.632 293 239.672 293 234.5V98C293 92.8283 290.946 87.8684 287.289 84.2114C283.632 80.5545 278.672 78.5 273.5 78.5H147.96C143.398 78.5 138.981 76.9007 135.477 73.9804Z" fill="black"/>
<path d="M167.545 213.667C159.745 213.667 153.364 207.292 153.364 199.5C153.364 191.708 159.745 185.333 167.545 185.333C175.345 185.333 181.727 191.708 181.727 199.5C181.727 207.292 175.345 213.667 167.545 213.667ZM207.255 185.333C201.582 169.042 185.982 157 167.545 157C144.145 157 125 176.125 125 199.5C125 222.875 144.145 242 167.545 242C185.982 242 201.582 229.958 207.255 213.667H231.364V242H259.727V213.667H281V185.333H207.255Z" fill="#9997B1"/>
</svg>
