<?xml version="1.0" encoding="utf-8"?>
<!-- Generator: Adobe Illustrator 28.0.0, SVG Export Plug-In . SVG Version: 6.00 Build 0)  -->
<svg version="1.1" id="Capa_1" xmlns="http://www.w3.org/2000/svg" xmlns:xlink="http://www.w3.org/1999/xlink" x="0px" y="0px"
	 viewBox="0 0 313 313" style="enable-background:new 0 0 313 313;" xml:space="preserve">
<style type="text/css">
	.st0{fill:#F72C1F;}
	.st1{fill:#FFFFFF;}
</style>
<path class="st0" d="M135.5,74l-12.6-10.5c-3.5-2.9-7.9-4.5-12.5-4.5H39.5c-5.2,0-10.1,2-13.8,5.7C22,68.4,20,73.3,20,78.5v156
	c0,5.2,2,10.1,5.7,13.8c3.7,3.7,8.6,5.7,13.8,5.7h234c5.2,0,10.1-2.1,13.8-5.7s5.7-8.6,5.7-13.8V98c0-5.2-2-10.1-5.7-13.8
	s-8.6-5.7-13.8-5.7H148C143.4,78.5,139,76.9,135.5,74z"/>
<path class="st1" d="M280.1,181.1c-1.2-1.2-16.5-20.4-19-23.6c-2.8-3.2-4-2.6-5.8-2.4c-1.8,0.2-21,3.6-23.2,3.8
	c-2.2,0.4-3.6,1.2-2.2,3.2c1.2,1.8,13.9,19.7,16.7,23.8L195.9,198l-40.1-67.3c-1.6-2.4-2-3.2-5.6-3c-3.6,0.2-31.6,2.6-33.5,2.6
	c-2,0.2-4.2,1-2.2,5.8c2,4.8,33.7,73,34.5,75s3.2,5.2,8.5,4c5.6-1.4,24.6-6.4,35.1-9.1c5.6,9.9,16.7,30.2,18.9,33.1
	c2.8,4,4.8,3.2,8.9,2c3.4-1,52-18.5,54.2-19.4s3.6-1.6,2-3.8c-1.2-1.6-13.9-18.9-20.6-27.8c4.6-1.2,21-5.6,22.8-6.1
	C280.8,183.3,281.2,182.3,280.1,181.1L280.1,181.1L280.1,181.1z M188.2,199.9c-0.6,0.2-29,6.9-30.4,7.3c-1.6,0.4-1.6,0.2-1.6-0.4
	c-0.4-0.6-33.7-69.7-34.3-70.4c-0.4-0.8-0.4-1.6,0-1.6s26.8-2.4,27.6-2.4c1,0,0.8,0.2,1.2,0.8c0,0,37.1,64.1,37.7,65.1
	C189.2,199.3,188.8,199.7,188.2,199.9L188.2,199.9L188.2,199.9z M268,214.8c0.4,0.8,1,1.2-0.6,1.6c-1.4,0.6-47.8,16.3-48.8,16.7
	c-1,0.4-1.6,0.6-2.8-1.2s-16.3-27.8-16.3-27.8l49.4-12.9c1.2-0.4,1.6-0.6,2.4,0.6C252.1,193.2,267.6,214.2,268,214.8L268,214.8
	L268,214.8z M271.1,179.9c-1.2,0.2-19.3,4.8-19.3,4.8L237,164.4c-0.4-0.6-0.8-1.2,0.2-1.4c1-0.2,17.9-3.2,18.7-3.4
	c0.8-0.2,1.4-0.4,2.4,1c1,1.2,13.7,17.5,14.3,18.1C273.1,179.3,272.3,179.7,271.1,179.9L271.1,179.9L271.1,179.9z"/>
</svg>
