<svg width="313" height="313" viewBox="0 0 313 313" fill="none" xmlns="http://www.w3.org/2000/svg">
<path d="M135.477 73.9804L122.924 63.5196C119.419 60.5993 115.002 59 110.44 59H39.5C34.3283 59 29.3684 61.0545 25.7114 64.7114C22.0545 68.3684 20 73.3283 20 78.5V234.5C20 239.672 22.0545 244.632 25.7114 248.289C29.3684 251.946 34.3283 254 39.5 254H273.5C278.672 254 283.632 251.946 287.289 248.289C290.946 244.632 293 239.672 293 234.5V98C293 92.8283 290.946 87.8684 287.289 84.2114C283.632 80.5545 278.672 78.5 273.5 78.5H147.96C143.398 78.5 138.981 76.9007 135.477 73.9804Z" fill="#2C1C35"/>
<path d="M226.357 132.146C242.365 132.146 257.373 146.825 258.706 161.329C258.837 162.749 259.555 166.086 260.483 170.347L260.658 170.537C266.422 176.885 287.092 205.104 279.245 212.947C276.65 215.542 271.032 213.88 264.78 210.492C263.669 215.145 261.67 219.616 258.96 223.655L257.738 237.854C257.738 237.854 233.982 242.119 225.365 241.996C217.113 241.877 194.262 237.854 194.262 237.854L192.825 223.651C190.167 219.656 188.231 215.224 187.105 210.559C180.896 213.899 175.33 215.526 172.755 212.951C165.114 205.306 184.518 178.345 190.862 171.077L191.766 166.8C192.314 164.221 192.73 162.277 192.893 161.329C195.448 146.491 208.46 132.146 226.357 132.146Z" fill="#533566"/>
<path d="M247.621 178.9C249.958 175.175 251.279 170.354 251.279 164.32C251.279 152.307 239.314 140.834 230.967 140.834C229.856 140.834 229.467 142.032 229.042 143.345C228.527 144.928 227.963 146.674 226.015 146.674C224.028 146.674 223.373 144.849 222.798 143.242C222.342 141.973 221.933 140.83 220.949 140.83C212.658 140.83 200.474 152.018 200.474 164.32C200.474 170.458 201.819 175.25 204.124 178.908C200.859 181.848 198.248 185.442 196.46 189.455C194.672 193.469 193.747 197.814 193.746 202.208C193.746 219.695 208.131 233.875 225.877 233.875C243.622 233.875 258.008 219.695 258.008 202.208C258.006 197.811 257.08 193.464 255.29 189.448C253.5 185.432 250.886 181.837 247.617 178.896" fill="white"/>
<path d="M214.098 174.441L226.02 176.121L237.969 174.441C237.958 171.274 236.695 168.239 234.457 165.998C232.219 163.757 229.187 162.491 226.02 162.476C222.852 162.482 219.817 163.746 217.581 165.99C215.346 168.234 214.093 171.273 214.098 174.441ZM187.93 240.218C188.195 234.337 189.826 228.598 192.694 223.457C199.732 234.208 211.698 241.797 225.365 241.996C239.409 242.194 251.787 234.418 259.035 223.54C261.876 228.66 263.491 234.369 263.756 240.218C263.765 240.452 263.726 240.684 263.642 240.902C263.558 241.12 263.43 241.318 263.267 241.484C263.103 241.651 262.908 241.783 262.692 241.871C262.476 241.96 262.244 242.004 262.011 242H189.675C189.442 242.003 189.211 241.959 188.996 241.87C188.78 241.781 188.585 241.65 188.422 241.483C188.259 241.316 188.132 241.118 188.048 240.901C187.964 240.683 187.925 240.451 187.934 240.218" fill="#FF822D"/>
<path d="M218.065 155.311C218.065 156.414 218.946 157.294 220.049 157.294C221.151 157.294 222.032 156.414 222.032 155.311V152.557C222.032 151.454 221.151 150.574 220.049 150.574C218.946 150.574 218.065 151.454 218.065 152.557V155.311ZM229.967 155.311C229.967 156.414 230.848 157.294 231.95 157.294C233.053 157.294 233.934 156.414 233.934 155.311V152.557C233.934 151.454 233.053 150.574 231.95 150.574C230.848 150.574 229.967 151.454 229.967 152.557V155.311Z" fill="#1C1C1C"/>
</svg>
