<svg width="313" height="313" viewBox="0 0 313 313" fill="none" xmlns="http://www.w3.org/2000/svg">
<path d="M135.477 73.9804L122.924 63.5196C119.419 60.5993 115.002 59 110.44 59H39.5C34.3283 59 29.3684 61.0545 25.7114 64.7114C22.0545 68.3684 20 73.3283 20 78.5V234.5C20 239.672 22.0545 244.632 25.7114 248.289C29.3684 251.946 34.3283 254 39.5 254H273.5C278.672 254 283.632 251.946 287.289 248.289C290.946 244.632 293 239.672 293 234.5V98C293 92.8283 290.946 87.8684 287.289 84.2114C283.632 80.5545 278.672 78.5 273.5 78.5H147.96C143.398 78.5 138.981 76.9007 135.477 73.9804Z" fill="#120817"/>
<rect width="205" height="131" transform="translate(88 123)" fill="#120817"/>
<path d="M171.254 214.528H261.858M171.254 177.472H242.605M171.254 196.639H232.412M112.552 242H278.448C279.857 242 281 240.856 281 239.444V152.556C281 151.144 279.857 150 278.448 150H112.552C111.143 150 110 151.144 110 152.556V239.444C110 240.856 111.143 242 112.552 242ZM274.411 180.04L258.627 163.81C257.192 162.334 255.223 161.499 253.166 161.492L140.293 161.127C138.289 161.12 136.362 161.901 134.926 163.301L118.652 179.169C117.198 180.587 116.365 182.526 116.338 184.559L116.037 207.257C116.01 209.29 116.791 211.251 118.208 212.707L133.992 228.938C135.427 230.414 137.395 231.249 139.453 231.256L252.326 231.621C254.33 231.628 256.257 230.847 257.692 229.447L273.966 213.579C275.421 212.161 276.254 210.222 276.281 208.188L276.582 185.491C276.609 183.458 275.828 181.497 274.411 180.04ZM153.229 176.136L152.848 204.189H148.432L148.052 176.136H153.229ZM150.64 215.472C149.701 215.472 148.895 215.135 148.223 214.462C147.55 213.788 147.214 212.981 147.214 212.041C147.214 211.101 147.55 210.294 148.223 209.621C148.895 208.947 149.701 208.611 150.64 208.611C151.579 208.611 152.385 208.947 153.057 209.621C153.73 210.294 154.066 211.101 154.066 212.041C154.066 212.664 153.907 213.235 153.59 213.756C153.286 214.277 152.873 214.697 152.353 215.014C151.845 215.319 151.274 215.472 150.64 215.472Z" stroke="#CC68FB"/>
</svg>
