<svg width="313" height="313" viewBox="0 0 313 313" fill="none" xmlns="http://www.w3.org/2000/svg">
<path d="M135.477 73.9804L122.924 63.5196C119.419 60.5993 115.002 59 110.44 59H39.5C34.3283 59 29.3684 61.0545 25.7114 64.7114C22.0545 68.3684 20 73.3283 20 78.5V234.5C20 239.672 22.0545 244.632 25.7114 248.289C29.3684 251.946 34.3283 254 39.5 254H273.5C278.672 254 283.632 251.946 287.289 248.289C290.946 244.632 293 239.672 293 234.5V98C293 92.8283 290.946 87.8684 287.289 84.2114C283.632 80.5545 278.672 78.5 273.5 78.5H147.96C143.398 78.5 138.981 76.9007 135.477 73.9804Z" fill="#023430"/>
<path d="M273.026 172.163C266.606 145.204 253.225 138.027 249.812 132.954C248.404 130.719 247.157 128.396 246.08 126C245.899 128.396 245.568 129.904 243.429 131.72C239.135 135.364 220.898 149.511 219.363 180.142C217.933 208.702 241.421 226.313 244.523 228.134C246.909 229.251 249.815 228.157 251.233 227.131C262.555 219.735 278.024 200.016 273.038 172.163" fill="#10AA50"/>
<path d="M247.052 212.925C246.461 219.994 246.037 224.102 244.536 228.142C244.536 228.142 245.521 234.871 246.214 242H248.662C249.247 236.98 250.138 231.997 251.334 227.076C248.163 225.591 247.174 219.128 247.052 212.925Z" fill="#B8C4C2"/>
<path d="M251.329 227.08C248.125 225.671 247.199 219.072 247.056 212.925C247.848 202.785 248.079 192.613 247.748 182.449C247.58 177.117 247.827 133.058 246.368 126.607C247.367 128.792 248.517 130.911 249.811 132.95C253.225 138.027 266.61 145.204 273.026 172.163C278.024 199.969 262.639 219.635 251.329 227.08Z" fill="#12924F"/>
</svg>
