<svg width="313" height="313" viewBox="0 0 313 313" fill="none" xmlns="http://www.w3.org/2000/svg">
<path d="M135.477 73.9804L122.924 63.5196C119.419 60.5993 115.002 59 110.44 59H39.5C34.3283 59 29.3684 61.0545 25.7114 64.7114C22.0545 68.3684 20 73.3283 20 78.5V234.5C20 239.672 22.0545 244.632 25.7114 248.289C29.3684 251.946 34.3283 254 39.5 254H273.5C278.672 254 283.632 251.946 287.289 248.289C290.946 244.632 293 239.672 293 234.5V98C293 92.8283 290.946 87.8684 287.289 84.2114C283.632 80.5545 278.672 78.5 273.5 78.5H147.96C143.398 78.5 138.981 76.9007 135.477 73.9804Z" fill="#004655"/>
<path d="M178.432 208.056L182.869 222.537C183.866 225.825 184.282 228.12 184.115 229.428C186.542 222.891 188.238 215.767 189.202 208.056H194.537C192.243 220.609 189.218 229.731 185.462 235.422C182.536 239.807 179.33 242 175.839 242C174.908 242 173.761 241.717 172.399 241.156V238.13C173.064 238.228 173.845 238.28 174.743 238.28C176.371 238.28 177.684 237.826 178.682 236.92C179.878 235.816 180.476 234.575 180.476 233.2C180.476 232.261 180.01 230.334 179.08 227.418L172.898 208.056H178.432ZM144.474 199.155L152.601 224.097H152.651L160.828 199.155H167.508C168.971 211.524 169.835 222.842 170.1 233.1H164.468C164.27 223.511 163.721 214.493 162.823 206.047H162.774L154.197 233.1H149.908L141.383 206.047H141.333C140.7 214.159 140.302 223.176 140.136 233.1H135C135.332 221.031 136.163 209.717 137.492 199.155H144.474Z" fill="#00758F"/>
<path d="M235.517 198.652C244.259 198.652 248.63 204.269 248.63 215.5C248.63 221.602 247.316 226.212 244.689 229.326C244.216 229.895 243.692 230.387 243.142 230.842L249.328 233.919L249.322 233.919L247.125 237.734L239.069 233.006C237.734 233.403 236.264 233.602 234.663 233.602C230.371 233.602 227.164 232.344 225.044 229.83C222.717 227.05 221.555 222.673 221.555 216.706C221.555 210.638 222.867 206.046 225.494 202.928C227.887 200.075 231.229 198.652 235.517 198.652ZM208.747 198.701C211.871 198.701 214.712 199.542 217.271 201.218L215.971 204.131C213.782 203.195 211.623 202.725 209.494 202.725C207.766 202.725 206.435 203.143 205.507 203.984C204.574 204.818 203.997 205.892 203.997 207.2C203.997 209.211 205.421 210.955 208.05 212.428C208.912 212.901 209.77 213.38 210.626 213.865L211.117 214.143L211.411 214.31C213.401 215.438 215.274 216.516 215.274 216.516C217.903 218.393 219.214 220.394 219.214 223.691C219.214 226.57 218.165 228.933 216.074 230.782C213.982 232.623 211.172 233.546 207.652 233.546C204.359 233.546 201.169 232.484 198.078 230.377L199.524 227.461C202.184 228.802 204.59 229.471 206.752 229.471C208.778 229.471 210.365 229.016 211.513 228.117C212.658 227.212 213.345 225.949 213.345 224.347C213.345 222.332 211.951 220.609 209.394 219.164C208.593 218.719 207.796 218.27 207 217.816L206.804 217.705C206.444 217.5 206.082 217.293 205.727 217.09L205.534 216.98C203.808 215.992 202.315 215.129 202.315 215.129C199.759 213.249 198.477 211.231 198.477 207.906C198.477 205.156 199.433 202.933 201.342 201.242C203.255 199.548 205.724 198.701 208.747 198.701ZM258.904 199.155V228.924H269.523V233.1H253.519V199.155L258.904 199.155ZM275.423 228.937V229.643H274.256V233.096H273.363V229.643H272.15V228.937H275.423ZM277.579 228.937L278.7 231.772L279.73 228.937H280.995V233.096H280.154V229.931L278.982 233.096H278.375L277.201 229.931H277.156V233.096H276.36V228.937H277.579ZM234.967 202.826C229.816 202.826 227.238 207.103 227.238 215.65C227.238 220.546 227.921 224.097 229.285 226.31C230.547 228.358 232.525 229.38 235.218 229.38C240.369 229.38 242.946 225.07 242.946 216.454C242.946 211.626 242.263 208.106 240.902 205.892C239.638 203.849 237.661 202.826 234.968 202.826" fill="#F29111"/>
<path d="M221.465 144.103C223.173 139.879 229.149 143.078 231.468 144.554C232.036 144.923 232.688 145.703 233.34 145.991C234.356 146.031 235.372 146.111 236.39 146.154C238.3 146.605 240.089 146.974 241.594 147.836C248.589 151.98 253.142 156.202 257.332 163.176C258.227 164.653 258.675 166.251 259.406 167.85C260.421 170.233 261.562 172.734 262.74 174.987C263.268 176.055 263.676 177.243 264.408 178.145C264.694 178.557 265.507 178.679 265.993 178.925C267.335 179.624 268.962 180.155 270.224 180.975C272.582 182.454 274.862 184.216 276.935 186.02C277.707 186.717 278.233 187.703 278.969 188.439V188.811C278.316 189.013 277.665 189.219 277.014 189.385C275.59 189.752 274.33 189.669 272.949 190.037C272.096 190.286 271.036 190.615 270.142 190.698L270.224 190.782C270.751 192.295 273.599 193.525 274.901 194.43C276.483 195.579 277.949 196.972 279.129 198.571C279.537 198.979 279.944 199.351 280.35 199.758C280.633 200.17 280.713 200.704 281 201.072V201.196C280.682 201.083 280.454 200.868 280.237 200.643L280.108 200.508C279.979 200.373 279.849 200.24 279.7 200.131C278.803 199.514 277.911 198.777 277.014 198.203C275.47 197.218 273.68 196.647 272.096 195.658C271.2 195.084 270.346 194.43 269.492 193.773C268.717 193.198 267.865 192.092 267.378 191.272C267.092 190.819 267.052 190.286 266.725 189.958C266.784 189.411 267.282 189.248 267.786 189.115L267.901 189.084C268.075 189.039 268.245 188.993 268.393 188.933C270.507 188.03 273.028 187.703 276.283 187.785C276.16 186.963 274.126 185.938 273.477 185.446C272.174 184.501 270.794 183.516 269.412 182.656C268.679 182.205 267.417 181.877 266.605 181.509C265.507 181.057 263.066 180.606 262.458 179.746C261.424 178.391 260.681 176.774 259.961 175.141L259.764 174.695C259.699 174.546 259.633 174.398 259.568 174.249C258.716 172.283 257.657 170.232 256.803 168.218C256.357 167.236 256.151 166.374 255.662 165.431C252.695 159.649 248.303 154.809 242.977 151.404C241.227 150.297 239.276 149.271 237.122 148.575C235.901 148.204 234.436 148.409 233.135 148.124H232.279C231.549 147.917 230.939 147.138 230.369 146.728C229.11 145.868 227.849 145.29 226.343 144.677C225.816 144.431 224.309 143.858 223.783 144.309C223.458 144.391 223.293 144.515 223.213 144.843C222.889 145.334 223.173 146.073 223.375 146.525C223.986 147.836 224.839 148.615 225.614 149.723C226.302 150.705 227.158 151.813 227.647 152.881C228.701 155.177 229.191 157.721 230.168 160.017C230.53 160.88 231.103 161.862 231.63 162.641C232.077 163.259 232.89 163.706 233.135 164.489C233.625 165.309 232.402 168.016 232.119 168.875C231.059 172.239 231.265 176.915 232.485 179.83L232.55 179.984L232.615 180.14C233.06 181.208 233.537 182.357 234.721 182.656C234.803 182.575 234.721 182.617 234.883 182.575C235.169 180.318 235.25 178.144 236.023 176.379C236.47 175.275 237.363 174.494 237.974 173.593C238.382 173.839 238.382 174.579 238.625 175.069C239.154 176.339 239.722 177.733 240.375 179.007C241.714 181.631 243.221 184.176 244.928 186.472C245.5 187.292 246.311 188.194 247.043 188.933C247.369 189.219 247.734 189.384 247.979 189.752H248.058V189.876C246.839 189.424 246.065 188.154 245.092 187.413C243.26 186.02 241.067 183.928 239.804 181.92C239.276 180.768 238.705 179.663 238.136 178.516V178.434C237.893 178.761 237.974 179.086 237.852 179.582C237.324 181.631 237.731 183.969 235.901 184.707C233.827 185.57 232.28 183.313 231.63 182.288C229.556 178.884 228.987 173.143 230.45 168.508C230.775 167.482 230.82 166.251 231.387 165.432C231.264 164.692 230.697 164.489 230.369 164.035C229.8 163.26 229.312 162.356 228.867 161.495C228.011 159.812 227.401 157.802 226.752 155.998C226.466 155.261 226.384 154.521 226.099 153.823C225.613 152.759 224.718 151.691 224.027 150.749C223.091 149.395 220.366 146.771 221.465 144.103ZM234.802 152.139C234.91 152.248 235.042 152.344 235.177 152.439L235.341 152.552C235.559 152.704 235.771 152.864 235.9 153.082C236.105 153.37 236.144 153.655 236.389 153.944C236.389 154.93 236.105 155.585 235.532 155.994C235.532 155.994 235.493 156.037 235.453 156.077C235.127 155.42 234.843 154.766 234.515 154.11C234.112 153.537 233.542 153.082 233.214 152.427H233.135V152.345C233.625 152.223 234.112 152.139 234.802 152.139Z" fill="#00758F"/>
</svg>
