<svg width="313" height="313" viewBox="0 0 313 313" fill="none" xmlns="http://www.w3.org/2000/svg">
<path d="M135.477 73.9804L122.924 63.5196C119.419 60.5993 115.002 59 110.44 59H39.5C34.3283 59 29.3684 61.0545 25.7114 64.7114C22.0545 68.3684 20 73.3283 20 78.5V234.5C20 239.672 22.0545 244.632 25.7114 248.289C29.3684 251.946 34.3283 254 39.5 254H273.5C278.672 254 283.632 251.946 287.289 248.289C290.946 244.632 293 239.672 293 234.5V98C293 92.8283 290.946 87.8684 287.289 84.2114C283.632 80.5545 278.672 78.5 273.5 78.5H147.96C143.398 78.5 138.981 76.9007 135.477 73.9804Z" fill="#480010"/>
<path d="M232.068 124C231.208 124 230.409 124.184 229.671 124.429C231.238 125.468 232.099 126.845 232.529 128.405C232.56 128.62 232.621 128.773 232.652 128.987C232.683 129.17 232.713 129.354 232.713 129.537C232.837 132.23 232.007 132.566 231.423 134.157C230.531 136.207 230.777 138.41 231.853 140.184C231.945 140.398 232.068 140.643 232.222 140.857C231.054 133.117 237.539 131.954 238.737 129.537C238.829 127.427 237.077 126.019 235.694 125.04C234.373 124.244 233.175 124 232.068 124ZM241.841 125.744C241.718 126.447 241.81 126.264 241.779 126.631C241.749 126.876 241.749 127.182 241.718 127.427C241.657 127.671 241.595 127.916 241.503 128.161C241.441 128.406 241.349 128.65 241.257 128.895C241.134 129.14 241.042 129.354 240.919 129.598C240.827 129.721 240.765 129.844 240.673 129.966L240.489 130.241C240.335 130.455 240.182 130.67 240.028 130.853C239.843 131.037 239.69 131.251 239.475 131.404V131.434C239.29 131.587 239.106 131.771 238.891 131.924C238.246 132.413 237.508 132.78 236.831 133.239C236.617 133.392 236.402 133.515 236.217 133.698C236.002 133.851 235.817 134.004 235.633 134.188C235.418 134.371 235.265 134.555 235.08 134.769C234.927 134.952 234.742 135.167 234.619 135.381C234.465 135.595 234.312 135.809 234.189 136.023C234.066 136.268 233.974 136.482 233.85 136.727C233.758 136.972 233.666 137.186 233.605 137.43C233.513 137.706 233.451 137.951 233.39 138.195C233.359 138.318 233.359 138.471 233.328 138.593C233.297 138.716 233.297 138.838 233.267 138.96C233.267 139.205 233.236 139.48 233.236 139.725C233.236 139.909 233.236 140.092 233.267 140.276C233.267 140.521 233.298 140.766 233.359 141.041C233.39 141.286 233.451 141.53 233.513 141.775C233.605 142.02 233.666 142.264 233.759 142.509C233.82 142.662 233.912 142.815 233.974 142.938L226.906 140.215C225.725 139.88 224.536 139.574 223.341 139.297L221.405 138.838C219.561 138.471 217.686 138.195 215.812 138.012C215.75 138.012 215.719 137.981 215.658 137.981C213.83 137.798 211.994 137.706 210.157 137.706C208.805 137.706 207.452 137.767 206.131 137.859C204.256 137.981 202.382 138.226 200.507 138.532C200.046 138.593 199.585 138.685 199.124 138.777C198.171 138.96 197.25 139.175 196.358 139.389L194.975 139.756C194.514 139.94 194.084 140.154 193.654 140.337L192.64 140.796C192.578 140.827 192.517 140.827 192.486 140.857C192.179 141.01 191.902 141.132 191.625 141.285C191.551 141.31 191.479 141.341 191.41 141.377C191.072 141.53 190.734 141.714 190.458 141.867C190.243 141.958 190.027 142.081 189.843 142.172C189.754 142.229 189.662 142.28 189.567 142.325C189.29 142.478 189.013 142.631 188.767 142.785C188.513 142.924 188.267 143.077 188.03 143.244C187.815 143.396 187.6 143.519 187.415 143.672C187.385 143.702 187.354 143.702 187.323 143.733C187.139 143.855 186.924 144.008 186.739 144.161L186.678 144.222L186.217 144.589C186.155 144.62 186.094 144.681 186.032 144.712C185.879 144.834 185.725 144.987 185.571 145.11C185.541 145.17 185.479 145.201 185.449 145.232C185.264 145.416 185.079 145.568 184.895 145.752C184.864 145.752 184.864 145.783 184.834 145.813C184.65 145.966 184.465 146.15 184.281 146.333C184.25 146.364 184.25 146.394 184.219 146.394C184.066 146.547 183.912 146.7 183.758 146.884C183.697 146.945 183.605 147.006 183.543 147.067C183.39 147.251 183.205 147.435 183.021 147.618C182.99 147.679 182.929 147.71 182.898 147.771C182.652 148.016 182.437 148.261 182.191 148.506L182.099 148.597C181.607 149.117 181.085 149.637 180.531 150.096C179.987 150.581 179.412 151.03 178.81 151.443C178.214 151.859 177.599 152.247 176.967 152.605C176.339 152.947 175.693 153.254 175.031 153.523C174.377 153.799 173.71 154.044 173.033 154.257C171.742 154.532 170.42 155.053 169.284 155.144C169.037 155.144 168.761 155.205 168.515 155.236C168.258 155.294 168.002 155.355 167.747 155.419L167.009 155.695C166.763 155.786 166.518 155.909 166.272 156.031C166.057 156.184 165.811 156.307 165.596 156.46C165.38 156.612 165.166 156.796 164.981 156.98C164.766 157.133 164.551 157.347 164.367 157.531C164.182 157.745 163.997 157.929 163.844 158.142C163.691 158.387 163.506 158.601 163.383 158.846C163.23 159.06 163.076 159.305 162.952 159.55C162.83 159.825 162.707 160.07 162.615 160.345C162.518 160.609 162.425 160.874 162.338 161.141C162.277 161.385 162.215 161.63 162.185 161.875C162.185 161.905 162.153 161.936 162.153 161.967C162.092 162.242 162.092 162.609 162.061 162.793C162.031 163.007 162 163.19 162 163.404C162 163.527 162 163.68 162.031 163.802C162.061 164.017 162.092 164.2 162.154 164.383C162.215 164.567 162.277 164.75 162.369 164.934V164.965C162.461 165.148 162.584 165.332 162.707 165.515C162.83 165.699 162.953 165.883 163.107 166.066C163.26 166.219 163.444 166.403 163.629 166.556C163.813 166.739 163.998 166.892 164.213 167.045C164.95 167.688 165.135 167.902 166.087 168.391C166.241 168.483 166.395 168.544 166.579 168.636C166.61 168.636 166.641 168.667 166.671 168.667C166.671 168.728 166.671 168.758 166.702 168.819C166.733 169.065 166.794 169.309 166.856 169.554C166.917 169.829 167.009 170.074 167.102 170.288C167.194 170.472 167.255 170.655 167.348 170.839C167.378 170.9 167.409 170.961 167.44 170.992C167.563 171.237 167.686 171.451 167.809 171.665L168.269 172.307C168.423 172.491 168.607 172.705 168.792 172.889C168.976 173.072 169.161 173.225 169.376 173.409C169.376 173.409 169.407 173.44 169.437 173.44C169.622 173.592 169.806 173.745 169.99 173.868C170.205 174.02 170.421 174.143 170.667 174.266C170.882 174.388 171.128 174.51 171.373 174.602C171.558 174.694 171.773 174.755 171.988 174.816C172.019 174.847 172.049 174.847 172.111 174.877C172.234 174.908 172.387 174.938 172.511 174.969C172.418 176.621 172.387 178.181 172.633 178.732C172.91 179.344 174.262 177.478 175.614 175.336C175.43 177.447 175.308 179.925 175.614 180.659C175.952 181.424 177.796 179.038 179.394 176.407C201.184 171.39 221.067 186.38 223.157 207.551C222.757 204.247 218.67 202.412 216.795 202.871C215.873 205.134 214.306 208.041 211.786 209.846C212.001 207.827 211.909 205.746 211.478 203.727C210.803 206.542 209.481 209.173 207.668 211.437C204.748 211.651 201.829 210.244 200.292 208.133C200.169 208.041 200.139 207.857 200.047 207.735C199.954 207.521 199.862 207.307 199.8 207.092C199.711 206.887 199.649 206.671 199.616 206.45C199.585 206.236 199.585 206.021 199.585 205.777V205.318C199.616 205.104 199.677 204.89 199.739 204.675C199.8 204.462 199.862 204.247 199.954 204.033C200.077 203.819 200.169 203.605 200.323 203.391C200.845 201.922 200.845 200.729 199.893 200.025C199.708 199.905 199.513 199.803 199.309 199.72C199.186 199.689 199.032 199.627 198.909 199.597C198.817 199.566 198.756 199.536 198.663 199.505C198.448 199.444 198.233 199.383 198.018 199.352C197.808 199.292 197.591 199.261 197.373 199.26C197.158 199.23 196.912 199.199 196.696 199.199C196.543 199.199 196.39 199.23 196.235 199.23C195.99 199.23 195.775 199.261 195.559 199.322C195.344 199.352 195.129 199.383 194.914 199.444C194.699 199.505 194.484 199.567 194.269 199.658C194.054 199.75 193.869 199.842 193.654 199.933C193.469 200.025 193.285 200.148 193.07 200.239C185.91 204.89 190.181 215.781 195.068 218.932C193.224 219.269 191.349 219.667 190.827 220.064L190.765 220.125C192.087 220.921 193.469 221.594 194.914 222.175C196.881 222.818 198.971 223.399 199.893 223.644V223.674C202.439 224.194 205.042 224.379 207.637 224.225C221.251 223.276 232.407 212.966 234.435 199.383C234.497 199.658 234.558 199.903 234.62 200.178C234.712 200.729 234.835 201.31 234.896 201.891V201.922C234.958 202.198 234.988 202.473 235.02 202.718V202.84C235.05 203.115 235.081 203.391 235.081 203.636C235.112 203.972 235.142 204.308 235.142 204.645V205.134C235.142 205.288 235.173 205.471 235.173 205.624C235.173 205.808 235.142 205.991 235.142 206.175V206.603C235.142 206.817 235.112 207.001 235.112 207.215C235.112 207.338 235.112 207.46 235.08 207.613C235.08 207.827 235.05 208.041 235.05 208.286C235.019 208.377 235.019 208.469 235.019 208.561C234.988 208.806 234.958 209.02 234.927 209.264C234.927 209.357 234.927 209.448 234.896 209.54C234.865 209.846 234.804 210.121 234.773 210.427V210.488C234.712 210.764 234.65 211.07 234.589 211.345V211.437L234.404 212.263C234.404 212.294 234.373 212.355 234.373 212.385C234.312 212.661 234.251 212.936 234.158 213.212V213.303C234.066 213.609 233.974 213.885 233.913 214.16C233.882 214.19 233.882 214.221 233.882 214.221L233.605 215.139C233.482 215.445 233.39 215.72 233.267 216.026C233.144 216.332 233.052 216.638 232.929 216.913C232.806 217.219 232.683 217.494 232.561 217.8H232.529C232.407 218.076 232.283 218.382 232.13 218.657C232.105 218.731 232.074 218.802 232.038 218.871C232.007 218.902 232.007 218.932 231.976 218.963C229.979 222.971 227.028 226.489 223.341 229.242C223.094 229.395 222.849 229.579 222.603 229.763C222.542 229.824 222.45 229.855 222.388 229.915C222.173 230.068 221.958 230.222 221.712 230.374L221.804 230.558H221.835L223.126 230.374H223.156C223.956 230.252 224.754 230.099 225.553 229.946C225.769 229.916 226.015 229.855 226.229 229.794C226.383 229.763 226.506 229.732 226.66 229.701C226.875 229.671 227.09 229.61 227.305 229.579C227.49 229.518 227.674 229.487 227.858 229.426C230.932 228.692 233.913 227.682 236.771 226.489C231.884 233.128 225.338 238.482 217.686 242C221.22 241.755 224.754 241.174 228.166 240.195C240.551 236.554 250.969 228.264 257.207 217.097C255.941 224.18 253.118 230.898 248.94 236.769C251.919 234.813 254.67 232.535 257.146 229.977C264.03 222.818 268.547 213.731 270.084 203.972C271.132 208.814 271.433 213.786 270.975 218.718C293.164 187.91 272.819 155.971 264.307 147.557C264.275 147.496 264.245 147.466 264.245 147.405C264.214 147.435 264.214 147.435 264.214 147.466C264.214 147.435 264.214 147.435 264.183 147.405C264.183 147.772 264.153 148.139 264.122 148.506C264.03 149.209 263.937 149.883 263.815 150.556C263.661 151.229 263.477 151.902 263.292 152.575C263.073 153.237 262.827 153.89 262.555 154.532C262.272 155.166 261.965 155.789 261.633 156.399C261.295 156.98 260.926 157.592 260.526 158.143C260.131 158.712 259.711 159.263 259.267 159.795C258.805 160.345 258.314 160.835 257.822 161.325C257.533 161.588 257.235 161.843 256.931 162.089C256.685 162.303 256.47 162.487 256.224 162.701C255.671 163.129 255.118 163.527 254.503 163.894C253.919 164.261 253.304 164.629 252.69 164.935C252.044 165.24 251.399 165.516 250.754 165.791C250.099 166.037 249.432 166.252 248.756 166.433C248.077 166.616 247.39 166.769 246.697 166.893C245.99 167.015 245.284 167.076 244.607 167.137C244.116 167.168 243.624 167.198 243.132 167.198C242.425 167.198 241.718 167.137 241.043 167.076C240.335 167.015 239.628 166.923 238.953 166.77C238.246 166.648 237.57 166.464 236.893 166.25H236.863C237.539 166.189 238.215 166.128 238.891 166.005C239.585 165.885 240.272 165.732 240.95 165.546C241.626 165.365 242.293 165.15 242.947 164.904C243.624 164.659 244.269 164.353 244.884 164.047C245.529 163.742 246.113 163.405 246.728 163.038C247.311 162.64 247.896 162.242 248.449 161.814C248.999 161.388 249.523 160.928 250.016 160.437C250.538 159.978 250.999 159.458 251.461 158.938C251.91 158.402 252.34 157.851 252.751 157.286C252.812 157.194 252.874 157.072 252.936 156.98C253.243 156.491 253.55 156.001 253.827 155.512C254.165 154.905 254.473 154.282 254.749 153.645C255.026 153.005 255.273 152.352 255.486 151.688C255.701 151.045 255.855 150.372 256.009 149.699C256.132 148.996 256.255 148.322 256.316 147.649C256.377 146.946 256.439 146.242 256.439 145.569C256.439 145.079 256.408 144.59 256.378 144.1C256.316 143.397 256.224 142.723 256.131 142.05C256.011 141.36 255.857 140.676 255.671 140.001C255.455 139.358 255.241 138.685 254.995 138.043C254.748 137.4 254.442 136.758 254.134 136.146C253.796 135.534 253.458 134.922 253.089 134.341C252.697 133.768 252.287 133.206 251.86 132.658C251.397 132.13 250.926 131.61 250.446 131.098C250.187 130.835 249.921 130.58 249.647 130.333C248.27 129.269 246.845 128.268 245.375 127.335C245.177 127.221 244.972 127.119 244.761 127.029C243.747 126.386 242.795 126.05 241.842 125.744L241.841 125.744Z" fill="#E0234E"/>
</svg>
