<svg width="313" height="313" viewBox="0 0 313 313" fill="none" xmlns="http://www.w3.org/2000/svg">
<path d="M135.477 73.9804L122.924 63.5196C119.419 60.5993 115.002 59 110.44 59H39.5C34.3283 59 29.3684 61.0545 25.7114 64.7114C22.0545 68.3684 20 73.3283 20 78.5V234.5C20 239.672 22.0545 244.632 25.7114 248.289C29.3684 251.946 34.3283 254 39.5 254H273.5C278.672 254 283.632 251.946 287.289 248.289C290.946 244.632 293 239.672 293 234.5V98C293 92.8283 290.946 87.8684 287.289 84.2114C283.632 80.5545 278.672 78.5 273.5 78.5H147.96C143.398 78.5 138.981 76.9007 135.477 73.9804Z" fill="black"/>
<path d="M221.5 123C205.72 123 190.586 129.269 179.427 140.427C168.269 151.586 162 166.72 162 182.5C162 198.28 168.269 213.414 179.427 224.573C190.586 235.731 205.72 242 221.5 242C233.258 241.977 244.745 238.471 254.511 231.924L205.708 168.871V206.28H197.7V158.7H207.711L260.819 227.11C267.155 221.532 272.232 214.669 275.711 206.977C279.19 199.286 280.993 190.942 281 182.5C281 166.72 274.731 151.586 263.573 140.427C252.414 129.269 237.28 123 221.5 123ZM238.027 158.7H245.961V204.046L238.027 193.628V158.7Z" fill="#3F3F3F"/>
</svg>
