<svg width="313" height="313" viewBox="0 0 313 313" fill="none" xmlns="http://www.w3.org/2000/svg">
<path d="M135.477 73.9804L122.924 63.5196C119.419 60.5993 115.002 59 110.44 59H39.5C34.3283 59 29.3684 61.0545 25.7114 64.7114C22.0545 68.3684 20 73.3283 20 78.5V234.5C20 239.672 22.0545 244.632 25.7114 248.289C29.3684 251.946 34.3283 254 39.5 254H273.5C278.672 254 283.632 251.946 287.289 248.289C290.946 244.632 293 239.672 293 234.5V98C293 92.8283 290.946 87.8684 287.289 84.2114C283.632 80.5545 278.672 78.5 273.5 78.5H147.96C143.398 78.5 138.981 76.9007 135.477 73.9804Z" fill="#013213"/>
<path d="M180.81 213.272C181.331 214.2 182.084 214.896 183.01 215.418L227.577 241.174C229.429 242.276 231.686 242.276 233.481 241.174L278.048 215.418C279.9 214.374 281 212.402 281 210.255V158.745C281 156.599 279.9 154.626 278.048 153.582L233.481 127.827C231.629 126.724 229.371 126.724 227.577 127.827L183.01 153.582C181.1 154.626 180 156.599 180 158.745V210.313C180 211.358 180.232 212.344 180.81 213.272Z" fill="#009639"/>
<path d="M216.233 204.165C216.236 204.92 216.09 205.668 215.803 206.366C215.516 207.064 215.094 207.699 214.561 208.233C214.029 208.766 213.396 209.189 212.699 209.477C212.002 209.764 211.256 209.911 210.502 209.907C209.749 209.911 209.003 209.764 208.306 209.477C207.609 209.189 206.976 208.766 206.444 208.232C205.911 207.699 205.489 207.064 205.202 206.366C204.915 205.668 204.769 204.92 204.773 204.165V164.778C204.773 161.703 207.493 159.209 211.255 159.209C213.975 159.209 217.159 160.311 219.069 162.689L220.805 164.778L244.767 193.491V164.894C244.764 164.139 244.91 163.39 245.197 162.692C245.484 161.994 245.906 161.36 246.439 160.826C246.971 160.292 247.604 159.869 248.301 159.582C248.998 159.294 249.744 159.148 250.498 159.151C251.251 159.148 251.997 159.294 252.694 159.582C253.391 159.869 254.024 160.292 254.556 160.826C255.089 161.36 255.511 161.994 255.798 162.692C256.085 163.391 256.231 164.139 256.227 164.894V204.281C256.227 207.355 253.507 209.849 249.745 209.849C247.025 209.849 243.841 208.747 241.931 206.369L216.233 175.625V204.165Z" fill="white"/>
</svg>
