<svg width="313" height="313" viewBox="0 0 313 313" fill="none" xmlns="http://www.w3.org/2000/svg">
<path d="M135.477 73.9804L122.924 63.5196C119.419 60.5993 115.002 59 110.44 59H39.5C34.3283 59 29.3684 61.0545 25.7114 64.7114C22.0545 68.3684 20 73.3283 20 78.5V234.5C20 239.672 22.0545 244.632 25.7114 248.289C29.3684 251.946 34.3283 254 39.5 254H273.5C278.672 254 283.632 251.946 287.289 248.289C290.946 244.632 293 239.672 293 234.5V98C293 92.8283 290.946 87.8684 287.289 84.2114C283.632 80.5545 278.672 78.5 273.5 78.5H147.96C143.398 78.5 138.981 76.9007 135.477 73.9804Z" fill="#003F21"/>
<g clip-path="url(#clip0_176_4)">
<path d="M231 241.79C229.447 241.79 227.998 241.376 226.652 240.651L212.884 232.465C210.814 231.325 211.849 230.91 212.47 230.703C215.265 229.771 215.782 229.563 218.681 227.905C218.992 227.698 219.406 227.802 219.716 228.009L230.275 234.33C230.689 234.537 231.207 234.537 231.518 234.33L272.822 210.394C273.236 210.186 273.443 209.772 273.443 209.254V161.485C273.443 160.967 273.236 160.552 272.822 160.345L231.518 136.512C231.104 136.305 230.586 136.305 230.275 136.512L188.971 160.345C188.557 160.552 188.35 161.071 188.35 161.485V209.254C188.35 209.668 188.557 210.186 188.971 210.394L200.255 216.921C206.362 220.03 210.192 216.403 210.192 212.777V165.629C210.192 165.008 210.71 164.386 211.435 164.386H216.714C217.336 164.386 217.957 164.904 217.957 165.629V212.776C217.957 220.962 213.505 225.729 205.741 225.729C203.36 225.729 201.497 225.729 196.218 223.138L185.348 216.921C182.656 215.367 181 212.466 181 209.357V161.589C181 158.48 182.656 155.579 185.348 154.024L226.652 130.088C229.24 128.638 232.76 128.638 235.348 130.088L276.652 154.024C279.344 155.579 281 158.48 281 161.589V209.358C281 212.466 279.344 215.367 276.652 216.921L235.348 240.858C234.002 241.48 232.449 241.791 231 241.791M243.733 208.943C225.617 208.943 221.89 200.654 221.89 193.608C221.89 192.986 222.408 192.364 223.132 192.364H228.515C229.136 192.364 229.654 192.779 229.654 193.4C230.482 198.892 232.863 201.586 243.836 201.586C252.532 201.586 256.259 199.618 256.259 194.955C256.259 192.26 255.224 190.292 241.663 188.944C230.379 187.805 223.339 185.318 223.339 176.303C223.339 167.91 230.379 162.936 242.18 162.936C255.43 162.936 261.952 167.495 262.78 177.443C262.78 177.753 262.677 178.064 262.47 178.375C262.263 178.582 261.952 178.79 261.642 178.79H256.259C255.741 178.79 255.224 178.375 255.12 177.857C253.878 172.158 250.669 170.293 242.18 170.293C232.657 170.293 231.518 173.609 231.518 176.096C231.518 179.101 232.863 180.033 245.7 181.691C258.433 183.349 264.437 185.732 264.437 194.644C264.333 203.762 256.88 208.943 243.733 208.943Z" fill="#4CC667"/>
</g>
<defs>
<clipPath id="clip0_176_4">
<rect width="100" height="113" fill="white" transform="translate(181 129)"/>
</clipPath>
</defs>
</svg>
