<svg width="313" height="313" viewBox="0 0 313 313" fill="none" xmlns="http://www.w3.org/2000/svg">
<path d="M135.477 73.9804L122.924 63.5196C119.419 60.5993 115.002 59 110.44 59H39.5C34.3283 59 29.3684 61.0545 25.7114 64.7114C22.0545 68.3684 20 73.3283 20 78.5V234.5C20 239.672 22.0545 244.632 25.7114 248.289C29.3684 251.946 34.3283 254 39.5 254H273.5C278.672 254 283.632 251.946 287.289 248.289C290.946 244.632 293 239.672 293 234.5V98C293 92.8283 290.946 87.8684 287.289 84.2114C283.632 80.5545 278.672 78.5 273.5 78.5H147.96C143.398 78.5 138.981 76.9007 135.477 73.9804Z" fill="#FF003D"/>
<path d="M88 231.13H141.503V242H184.305V230.742H281V163H88V231.13Z" fill="#D51341"/>
<path d="M205.901 174.646C204.656 174.646 205.382 204.667 205.901 219.678H227.108V185.516H238.003V219.678H248.898V185.516H259.404V219.678H270.105V174.646H205.901Z" fill="#F0E9FF"/>
<path fill-rule="evenodd" clip-rule="evenodd" d="M152.398 230.936H173.605V219.872H195.201V174.258H152.398V230.936ZM173.799 185.904H183.916V208.42H173.799V185.904Z" fill="#F0E9FF"/>
<path d="M120.102 185.322V219.484H98.8952V174.452H141.892V219.484H130.802V185.322H120.102Z" fill="#F0E9FF"/>
</svg>
