<svg width="313" height="313" viewBox="0 0 313 313" fill="none" xmlns="http://www.w3.org/2000/svg">
<path d="M135.477 73.9804L122.924 63.5196C119.419 60.5993 115.002 59 110.44 59H39.5C34.3283 59 29.3684 61.0545 25.7114 64.7114C22.0545 68.3684 20 73.3283 20 78.5V234.5C20 239.672 22.0545 244.632 25.7114 248.289C29.3684 251.946 34.3283 254 39.5 254H273.5C278.672 254 283.632 251.946 287.289 248.289C290.946 244.632 293 239.672 293 234.5V98C293 92.8283 290.946 87.8684 287.289 84.2114C283.632 80.5545 278.672 78.5 273.5 78.5H147.96C143.398 78.5 138.981 76.9007 135.477 73.9804Z" fill="#1B5D93"/>
<path d="M219.156 165.215C218.033 165.058 217.017 165.203 216.502 165.595C216.213 165.816 216.123 166.071 216.099 166.247C216.035 166.713 216.359 167.228 216.558 167.494C217.122 168.246 217.946 168.763 218.761 168.877C218.879 168.893 218.997 168.901 219.114 168.901C220.474 168.901 221.71 167.836 221.819 167.049C221.955 166.065 220.534 165.408 219.156 165.215ZM256.354 165.246C256.247 164.475 254.882 164.254 253.587 164.436C252.293 164.617 251.038 165.205 251.143 165.978C251.227 166.58 252.307 167.607 253.585 167.607C253.693 167.607 253.802 167.6 253.911 167.584C254.764 167.465 255.39 166.92 255.688 166.606C256.14 166.127 256.403 165.593 256.354 165.246Z" fill="white"/>
<path d="M277.698 198.309C277.223 196.863 275.693 196.398 273.153 196.926C265.609 198.493 262.908 197.408 262.021 196.75C267.884 187.762 272.708 176.897 275.31 166.761C276.543 161.959 277.223 157.5 277.279 153.865C277.341 149.875 276.665 146.944 275.273 145.153C269.658 137.933 261.416 134.061 251.441 133.955C244.583 133.877 238.788 135.643 237.665 136.14C235.299 135.548 232.721 135.184 229.913 135.138C224.765 135.054 220.314 136.294 216.63 138.823C215.029 138.223 210.893 136.794 205.835 135.974C197.09 134.558 190.141 135.631 185.182 139.166C179.265 143.384 176.533 150.925 177.063 161.577C177.241 165.161 179.27 176.186 182.473 186.744C186.688 200.641 191.271 208.508 196.093 210.126C196.657 210.316 197.308 210.448 198.025 210.448C199.784 210.448 201.941 209.65 204.184 206.936C206.921 203.633 209.752 200.41 212.673 197.271C214.569 198.295 216.651 198.867 218.781 198.924C218.785 198.98 218.79 199.036 218.795 199.092C218.429 199.532 218.07 199.978 217.718 200.43C216.243 202.315 215.936 202.708 211.186 203.692C209.835 203.972 206.246 204.716 206.193 207.247C206.136 210.013 210.435 211.174 210.925 211.298C212.632 211.728 214.277 211.94 215.845 211.94C219.659 211.94 223.015 210.678 225.697 208.238C225.615 218.097 226.023 227.811 227.2 230.771C228.163 233.195 230.517 239.116 237.952 239.116C239.043 239.116 240.244 238.988 241.565 238.703C249.325 237.03 252.695 233.579 253.998 225.97C254.696 221.904 255.893 212.195 256.456 206.987C257.644 207.36 259.174 207.531 260.827 207.53C264.276 207.53 268.256 206.793 270.752 205.627C273.556 204.317 278.615 201.102 277.698 198.309ZM259.219 163.116C259.193 164.653 258.983 166.049 258.76 167.506C258.52 169.073 258.272 170.693 258.209 172.66C258.148 174.574 258.385 176.564 258.615 178.488C259.079 182.375 259.555 186.377 257.711 190.325C257.405 189.779 257.132 189.215 256.894 188.635C256.665 188.076 256.168 187.178 255.478 185.935C252.797 181.097 246.519 169.768 249.733 165.145C250.69 163.769 253.12 162.354 259.219 163.116ZM251.826 137.068C260.765 137.267 267.835 140.631 272.841 147.068C276.68 152.005 272.453 174.469 260.213 193.849C260.09 193.692 259.966 193.535 259.842 193.379L259.687 193.184C262.85 187.928 262.231 182.728 261.681 178.118C261.455 176.225 261.241 174.438 261.295 172.76C261.352 170.981 261.585 169.455 261.812 167.979C262.089 166.161 262.372 164.279 262.294 162.061C262.352 161.829 262.376 161.554 262.345 161.228C262.146 159.101 259.733 152.735 254.814 146.974C252.124 143.823 248.2 140.296 242.843 137.918C245.147 137.437 248.298 136.989 251.826 137.068ZM201.81 204.95C199.338 207.941 197.631 207.367 197.07 207.179C193.412 205.952 189.168 198.173 185.426 185.837C182.188 175.164 180.296 164.431 180.146 161.421C179.674 151.903 181.967 145.27 186.962 141.705C195.092 135.904 208.458 139.376 213.829 141.137C213.752 141.214 213.671 141.285 213.595 141.363C204.781 150.319 204.99 165.621 205.012 166.556C205.011 166.917 205.042 167.428 205.083 168.131C205.234 170.705 205.517 175.494 204.763 180.919C204.062 185.96 205.606 190.893 208.999 194.455C209.347 194.82 209.713 195.167 210.095 195.496C208.585 197.123 205.303 200.722 201.81 204.95ZM211.228 192.306C208.494 189.435 207.252 185.442 207.821 181.349C208.617 175.619 208.323 170.628 208.165 167.947C208.143 167.572 208.123 167.243 208.112 166.984C209.399 165.835 215.366 162.618 219.621 163.599C221.563 164.047 222.746 165.377 223.238 167.665C225.783 179.513 223.574 184.451 221.8 188.419C221.434 189.237 221.088 190.009 220.793 190.809L220.565 191.427C219.985 192.989 219.447 194.442 219.113 195.821C216.206 195.813 213.378 194.563 211.228 192.305M211.674 208.283C210.825 208.07 210.062 207.699 209.614 207.392C209.988 207.215 210.654 206.973 211.809 206.734C217.397 205.577 218.26 204.76 220.144 202.352C220.576 201.8 221.066 201.174 221.744 200.412L221.745 200.411C222.755 199.273 223.217 199.466 224.055 199.816C224.735 200.098 225.396 200.955 225.664 201.898C225.791 202.343 225.934 203.188 225.467 203.845C221.531 209.392 215.794 209.32 211.674 208.283ZM240.918 235.665C234.082 237.139 231.662 233.629 230.067 229.617C229.037 227.027 228.531 215.347 228.89 202.448C228.895 202.276 228.871 202.111 228.824 201.955C228.782 201.647 228.718 201.342 228.633 201.043C228.099 199.166 226.798 197.596 225.237 196.945C224.617 196.687 223.479 196.213 222.112 196.565C222.403 195.356 222.909 193.99 223.458 192.512L223.688 191.89C223.946 191.189 224.272 190.462 224.615 189.694C226.472 185.542 229.016 179.855 226.255 167.009C225.221 162.197 221.768 159.847 216.534 160.393C213.395 160.72 210.524 161.994 209.092 162.724C208.784 162.881 208.503 163.033 208.24 163.18C208.639 158.332 210.149 149.272 215.798 143.539C219.355 139.93 224.091 138.148 229.862 138.244C241.233 138.431 248.525 144.303 252.64 149.196C256.186 153.412 258.106 157.66 258.872 159.951C253.109 159.361 249.19 160.505 247.203 163.364C242.881 169.581 249.568 181.648 252.782 187.448C253.371 188.511 253.88 189.429 254.04 189.82C255.087 192.372 256.442 194.076 257.431 195.319C257.734 195.701 258.028 196.07 258.252 196.393C256.507 196.9 253.371 198.069 253.657 203.917C253.427 206.851 251.788 220.589 250.956 225.442C249.857 231.854 247.512 234.242 240.918 235.665ZM269.452 202.81C267.667 203.643 264.68 204.268 261.843 204.403C258.709 204.55 257.114 204.049 256.738 203.741C256.562 200.097 257.91 199.716 259.337 199.313C259.561 199.25 259.78 199.188 259.991 199.114C260.122 199.222 260.266 199.328 260.423 199.433C262.942 201.106 267.435 201.286 273.777 199.969L273.847 199.955C272.991 200.759 271.528 201.84 269.452 202.81Z" fill="white"/>
</svg>
