<svg width="313" height="313" viewBox="0 0 313 313" fill="none" xmlns="http://www.w3.org/2000/svg">
<path d="M135.477 73.9804L122.924 63.5196C119.419 60.5993 115.002 59 110.44 59H39.5C34.3283 59 29.3684 61.0545 25.7114 64.7114C22.0545 68.3684 20 73.3283 20 78.5V234.5C20 239.672 22.0545 244.632 25.7114 248.289C29.3684 251.946 34.3283 254 39.5 254H273.5C278.672 254 283.632 251.946 287.289 248.289C290.946 244.632 293 239.672 293 234.5V98C293 92.8283 290.946 87.8684 287.289 84.2114C283.632 80.5545 278.672 78.5 273.5 78.5H147.96C143.398 78.5 138.981 76.9007 135.477 73.9804Z" fill="#001F38"/>
<path d="M224.093 129.589C195.406 129.589 197.198 142.029 197.198 142.029L197.23 154.916H224.605V158.787H186.356C186.356 158.787 168 156.704 168 185.649C168 214.594 184.022 213.567 184.022 213.567H193.584V200.136C193.584 200.136 193.069 184.114 209.35 184.114H236.501C236.501 184.114 251.755 184.36 251.755 169.371V144.587C251.755 144.587 254.071 129.589 224.093 129.589ZM208.998 138.255C209.645 138.254 210.286 138.381 210.884 138.629C211.482 138.876 212.025 139.239 212.482 139.696C212.94 140.154 213.302 140.697 213.55 141.295C213.797 141.893 213.924 142.533 213.923 143.18C213.924 143.827 213.797 144.468 213.55 145.066C213.302 145.663 212.939 146.207 212.482 146.664C212.025 147.121 211.481 147.484 210.884 147.731C210.286 147.979 209.645 148.105 208.998 148.105C208.351 148.105 207.711 147.978 207.113 147.731C206.515 147.484 205.972 147.121 205.515 146.664C205.057 146.206 204.695 145.663 204.447 145.066C204.2 144.468 204.073 143.827 204.074 143.18C204.073 142.533 204.2 141.893 204.447 141.295C204.694 140.697 205.057 140.154 205.514 139.696C205.972 139.239 206.515 138.876 207.113 138.629C207.711 138.382 208.351 138.255 208.998 138.255Z" fill="url(#paint0_linear_196_621)"/>
<path d="M224.907 242C253.593 242 251.802 229.56 251.802 229.56L251.77 216.672H224.395V212.803H262.643C262.643 212.803 281 214.885 281 185.94C281 156.995 264.978 158.021 264.978 158.021H255.416V171.453C255.416 171.453 255.931 187.475 239.65 187.475H212.499C212.499 187.475 197.244 187.228 197.244 202.217V227.002C197.244 227.002 194.928 242 224.907 242ZM240.002 233.334C239.355 233.334 238.714 233.207 238.116 232.96C237.518 232.713 236.975 232.35 236.518 231.893C236.06 231.435 235.698 230.892 235.45 230.294C235.203 229.697 235.076 229.056 235.077 228.409C235.076 227.762 235.203 227.121 235.45 226.523C235.697 225.926 236.06 225.382 236.518 224.925C236.975 224.467 237.518 224.105 238.116 223.857C238.714 223.61 239.355 223.483 240.002 223.484C240.649 223.483 241.289 223.61 241.887 223.858C242.485 224.105 243.028 224.468 243.486 224.925C243.943 225.383 244.306 225.926 244.553 226.524C244.8 227.121 244.927 227.762 244.927 228.409C244.927 229.056 244.8 229.697 244.553 230.294C244.306 230.892 243.943 231.435 243.485 231.893C243.028 232.35 242.485 232.713 241.887 232.96C241.289 233.207 240.649 233.334 240.002 233.334Z" fill="url(#paint1_linear_196_621)"/>
<defs>
<linearGradient id="paint0_linear_196_621" x1="178.859" y1="139.7" x2="234.858" y2="195.14" gradientUnits="userSpaceOnUse">
<stop stop-color="#387EB8"/>
<stop offset="1" stop-color="#366994"/>
</linearGradient>
<linearGradient id="paint1_linear_196_621" x1="213.231" y1="175.3" x2="273.368" y2="232.149" gradientUnits="userSpaceOnUse">
<stop stop-color="#FFE052"/>
<stop offset="1" stop-color="#FFC331"/>
</linearGradient>
</defs>
</svg>
