<svg width="313" height="313" viewBox="0 0 313 313" fill="none" xmlns="http://www.w3.org/2000/svg">
<path d="M135.477 73.9804L122.924 63.5196C119.419 60.5993 115.002 59 110.44 59H39.5C34.3283 59 29.3684 61.0545 25.7114 64.7114C22.0545 68.3684 20 73.3283 20 78.5V234.5C20 239.672 22.0545 244.632 25.7114 248.289C29.3684 251.946 34.3283 254 39.5 254H273.5C278.672 254 283.632 251.946 287.289 248.289C290.946 244.632 293 239.672 293 234.5V98C293 92.8283 290.946 87.8684 287.289 84.2114C283.632 80.5545 278.672 78.5 273.5 78.5H147.96C143.398 78.5 138.981 76.9007 135.477 73.9804Z" fill="#23272F"/>
<path d="M215.326 194.812C221.725 194.812 226.913 189.609 226.913 183.191C226.913 176.773 221.725 171.57 215.326 171.57C208.927 171.57 203.739 176.773 203.739 183.191C203.739 189.609 208.927 194.812 215.326 194.812Z" fill="#149ECA"/>
<path fill-rule="evenodd" clip-rule="evenodd" d="M203.881 163.294C201.798 166.373 199.762 169.626 197.801 173.033C195.838 176.442 194.046 179.84 192.428 183.191C194.046 186.542 195.838 189.94 197.801 193.349C199.762 196.756 201.798 200.009 203.881 203.088C207.58 203.357 211.405 203.499 215.326 203.499C219.247 203.499 223.073 203.357 226.771 203.088C228.854 200.009 230.89 196.756 232.851 193.349C234.814 189.94 236.606 186.542 238.224 183.191C236.606 179.84 234.814 176.442 232.851 173.033C230.89 169.626 228.854 166.373 226.771 163.294C223.073 163.025 219.247 162.883 215.326 162.883C211.405 162.883 207.579 163.025 203.881 163.294ZM194.925 164.226C193.841 165.958 192.776 167.73 191.734 169.541C190.697 171.343 189.703 173.145 188.754 174.944C187.49 171.845 186.387 168.815 185.451 165.885C188.449 165.235 191.616 164.677 194.925 164.226ZM209.152 155.996C211.186 155.921 213.245 155.883 215.326 155.883C217.407 155.883 219.466 155.921 221.5 155.996C219.455 153.346 217.388 150.872 215.326 148.591C213.264 150.872 211.197 153.346 209.152 155.996ZM210.448 143.55C206.914 147.427 203.4 151.805 200.006 156.595C194.18 157.147 188.65 158.009 183.54 159.138C183.009 156.967 182.583 154.873 182.263 152.872C181.35 147.155 181.337 142.385 182.103 138.797C182.868 135.208 184.311 133.193 185.993 132.219C187.673 131.246 190.128 131.001 193.604 132.129C197.081 133.257 201.191 135.651 205.67 139.302C207.24 140.582 208.837 142.001 210.448 143.55ZM220.204 143.55C223.738 147.427 227.252 151.805 230.646 156.595C236.472 157.147 242.002 158.009 247.112 159.138C247.643 156.967 248.069 154.873 248.389 152.872C249.302 147.155 249.315 142.385 248.549 138.797C247.784 135.208 246.341 133.193 244.659 132.219C242.979 131.246 240.524 131.001 237.048 132.129C233.571 133.257 229.461 135.651 224.982 139.302C223.412 140.582 221.815 142.001 220.204 143.55ZM253.896 160.865C254.478 158.491 254.948 156.19 255.301 153.976C256.293 147.767 256.403 142.063 255.395 137.337C254.388 132.613 252.162 128.474 248.167 126.161C244.17 123.847 239.476 123.982 234.887 125.471C230.299 126.96 225.426 129.909 220.559 133.876C218.829 135.287 217.081 136.841 215.326 138.529C213.572 136.841 211.823 135.287 210.093 133.876C205.226 129.909 200.353 126.96 195.765 125.471C191.176 123.982 186.482 123.847 182.485 126.161C178.49 128.474 176.264 132.613 175.257 137.337C174.249 142.063 174.359 147.767 175.351 153.976C175.704 156.19 176.174 158.491 176.756 160.865C174.417 161.546 172.197 162.289 170.111 163.088C164.251 165.332 159.268 168.089 155.689 171.329C152.11 174.57 149.652 178.573 149.652 183.191C149.652 187.81 152.11 191.813 155.689 195.053C159.268 198.293 164.251 201.051 170.111 203.295C172.197 204.094 174.417 204.836 176.756 205.517C176.174 207.891 175.704 210.193 175.351 212.406C174.359 218.615 174.249 224.319 175.257 229.045C176.264 233.769 178.49 237.908 182.485 240.221C186.482 242.535 191.176 242.4 195.765 240.911C200.353 239.422 205.226 236.473 210.093 232.506C211.823 231.096 213.572 229.541 215.326 227.853C217.081 229.541 218.829 231.096 220.559 232.506C225.426 236.473 230.299 239.422 234.887 240.911C239.476 242.4 244.17 242.535 248.167 240.221C252.162 237.908 254.388 233.769 255.395 229.045C256.403 224.319 256.293 218.615 255.301 212.406C254.948 210.193 254.478 207.891 253.896 205.517C256.235 204.836 258.455 204.094 260.541 203.295C266.401 201.051 271.384 198.293 274.963 195.053C278.542 191.813 281 187.81 281 183.191C281 178.573 278.542 174.57 274.963 171.329C271.384 168.089 266.401 165.332 260.541 163.088C258.455 162.289 256.235 161.546 253.896 160.865ZM245.201 165.885C242.203 165.235 239.036 164.677 235.727 164.226C236.811 165.958 237.876 167.73 238.918 169.541C239.955 171.343 240.949 173.145 241.898 174.944C243.163 171.845 244.265 168.815 245.201 165.885ZM245.957 183.191C248.396 177.85 250.419 172.611 252 167.604C254.137 168.228 256.154 168.903 258.038 169.625C263.429 171.689 267.552 174.062 270.265 176.518C272.978 178.975 274 181.235 274 183.191C274 185.147 272.978 187.407 270.265 189.864C267.552 192.32 263.429 194.693 258.038 196.758C256.154 197.479 254.137 198.155 252 198.778C250.419 193.771 248.396 188.533 245.957 183.191ZM241.898 191.438C240.949 193.237 239.955 195.04 238.918 196.841C237.876 198.652 236.811 200.425 235.727 202.156C239.036 201.705 242.203 201.148 245.201 200.497C244.265 197.567 243.163 194.538 241.898 191.438ZM247.112 207.244C242.002 208.373 236.472 209.235 230.646 209.787C227.252 214.577 223.738 218.955 220.204 222.832C221.815 224.382 223.412 225.801 224.982 227.08C229.461 230.731 233.571 233.125 237.048 234.253C240.524 235.381 242.979 235.136 244.659 234.163C246.341 233.189 247.784 231.174 248.549 227.585C249.315 223.997 249.302 219.227 248.389 213.51C248.069 211.509 247.643 209.416 247.112 207.244ZM215.326 217.791C217.388 215.511 219.455 213.036 221.5 210.386C219.466 210.461 217.407 210.499 215.326 210.499C213.245 210.499 211.186 210.461 209.152 210.386C211.197 213.036 213.264 215.511 215.326 217.791ZM194.925 202.156C193.841 200.425 192.776 198.652 191.734 196.841C190.697 195.04 189.703 193.237 188.754 191.438C187.49 194.538 186.387 197.567 185.451 200.497C188.449 201.148 191.616 201.705 194.925 202.156ZM183.54 207.244C188.65 208.373 194.18 209.235 200.006 209.787C203.4 214.577 206.914 218.955 210.448 222.832C208.837 224.382 207.24 225.801 205.67 227.08C201.191 230.731 197.081 233.125 193.604 234.253C190.128 235.381 187.673 235.136 185.993 234.163C184.311 233.189 182.868 231.174 182.103 227.585C181.337 223.997 181.35 219.227 182.263 213.51C182.583 211.509 183.009 209.416 183.54 207.244ZM178.652 198.778C176.515 198.155 174.498 197.479 172.614 196.758C167.223 194.693 163.1 192.32 160.387 189.864C157.674 187.407 156.652 185.147 156.652 183.191C156.652 181.235 157.674 178.975 160.387 176.518C163.1 174.062 167.223 171.689 172.614 169.625C174.498 168.903 176.515 168.228 178.652 167.604C180.233 172.611 182.256 177.85 184.695 183.191C182.256 188.533 180.233 193.771 178.652 198.778Z" fill="#149ECA"/>
</svg>
