<svg width="313" height="313" viewBox="0 0 313 313" fill="none" xmlns="http://www.w3.org/2000/svg">
<path d="M135.477 73.9804L122.924 63.5196C119.419 60.5993 115.002 59 110.44 59H39.5C34.3283 59 29.3684 61.0545 25.7114 64.7114C22.0545 68.3684 20 73.3283 20 78.5V234.5C20 239.672 22.0545 244.632 25.7114 248.289C29.3684 251.946 34.3283 254 39.5 254H273.5C278.672 254 283.632 251.946 287.289 248.289C290.946 244.632 293 239.672 293 234.5V98C293 92.8283 290.946 87.8684 287.289 84.2114C283.632 80.5545 278.672 78.5 273.5 78.5H147.96C143.398 78.5 138.981 76.9007 135.477 73.9804Z" fill="#63153C"/>
<path fill-rule="evenodd" clip-rule="evenodd" d="M133 177.286C133 178.117 133.244 178.665 133.381 179.198C134.272 182.665 136.187 185.641 138.46 188.355C141.697 192.222 145.661 195.336 149.722 198.264C153.244 200.803 156.838 203.286 160.375 205.806C160.982 206.238 161.556 206.736 162.215 207.267C161.648 207.574 161.176 207.845 160.686 208.094C156.019 210.468 151.529 213.129 147.39 216.352C144.896 218.296 142.484 220.361 140.781 223.059C138.04 227.4 137.07 232.024 139.113 236.962C139.71 238.404 140.62 239.65 141.903 240.571C142.319 240.869 142.786 241.164 143.273 241.28C144.52 241.574 145.791 241.767 147.053 242L150.629 241.998C154.582 241.644 158.181 240.286 161.433 238.035C166.516 234.517 169.94 229.801 171.413 223.747C172.483 219.348 172.527 214.943 171.265 210.564C171.144 210.158 171.005 209.758 170.848 209.365C170.695 208.971 170.515 208.588 170.302 208.098L178.408 203.424L178.529 203.528C178.382 204.011 178.225 204.494 178.092 204.982C177.129 208.509 176.489 212.098 176.718 215.759C176.964 219.66 178.049 223.311 180.327 226.57C182.168 229.206 186.555 229.304 188.512 226.659C189.206 225.719 189.879 224.737 190.385 223.688C191.707 220.952 192.93 218.167 194.193 215.401L194.413 214.895C194.322 216.205 194.216 217.355 194.168 218.506C194.092 220.304 194.197 222.091 194.81 223.802C195.335 225.265 196.227 226.359 197.899 226.551C199.042 226.683 199.953 226.158 200.794 225.492C202.095 224.46 203.175 223.174 203.966 221.711C206.207 217.584 208.508 213.482 210.539 209.252C212.736 204.676 214.657 199.966 216.698 195.312L217.035 194.487C217.517 196.387 217.853 198.248 218.472 200.009C219.191 202.053 220.081 204.048 221.05 205.988C221.508 206.904 221.455 207.499 220.82 208.267C218.161 211.482 215.547 214.736 212.932 217.987C212.353 218.705 211.776 219.435 211.294 220.219C211.002 220.714 210.809 221.262 210.728 221.831C210.647 222.356 210.772 222.891 211.076 223.325C211.38 223.76 211.839 224.059 212.359 224.161C213.407 224.387 214.481 224.464 215.551 224.389C219.202 224.12 222.516 222.835 225.447 220.657C229.243 217.837 230.462 213.988 229.543 209.427C229.294 208.189 228.854 206.986 228.427 205.793C228.234 205.255 228.221 204.878 228.572 204.377C231.607 200.03 234.2 195.419 236.612 190.701C236.707 190.516 236.805 190.33 236.973 190.131C237.754 194.21 238.931 198.14 241.038 201.706C239.963 202.745 238.899 203.687 237.936 204.725C235.815 207.012 233.976 209.494 233.017 212.521C232.604 213.826 232.287 215.153 232.471 216.546C232.756 218.711 234.524 220.117 236.647 219.624C241.19 218.57 245.112 216.423 247.978 212.62C249.906 210.06 250.082 207.204 249.274 204.212C249.053 203.399 248.79 202.599 248.507 201.666C249.628 201.317 250.721 200.899 251.851 200.64C257.72 199.297 263.526 199.531 269.182 201.657C272.483 202.898 275.151 204.975 276.733 208.242C278.665 212.236 277.597 216.026 273.842 218.551C273.492 218.786 273.092 218.972 272.802 219.266C272.709 219.374 272.639 219.5 272.598 219.637C272.556 219.773 272.543 219.917 272.56 220.058C272.585 220.204 272.968 220.386 273.188 220.383C274.422 220.374 275.423 219.725 276.384 219.058C278.791 217.388 280.547 215.141 280.926 212.182L281 211.96L280.909 210.033C280.873 209.922 280.936 209.812 280.928 209.728C280.417 205.419 278.121 202.078 274.783 199.458C270.917 196.426 266.351 195.178 261.523 194.98C257.607 194.811 253.696 195.415 250.012 196.757C248.955 197.141 247.907 197.596 246.844 198.025C246.701 197.766 246.548 197.518 246.422 197.262C245.33 195.02 244.008 192.879 243.715 190.309C243.508 188.484 243.253 186.661 243.686 184.856C244.102 183.119 244.644 181.412 245.155 179.699C245.417 178.818 245.232 178.324 244.393 177.926C244.1 177.782 243.788 177.68 243.467 177.621C241.404 177.321 239.369 177.493 237.371 178.075C236.664 178.282 236.15 178.679 235.993 179.464C235.904 179.915 235.721 180.346 235.594 180.791C235.071 182.638 234.701 184.521 233.857 186.281C231.742 190.696 229.328 194.945 226.858 199.162C226.59 199.618 226.308 200.064 225.971 200.616C225.104 198.796 224.178 197.162 223.898 195.247C223.581 193.082 223.331 190.92 223.868 188.771C224.268 187.168 224.79 185.595 225.271 184.013C225.499 183.261 225.394 182.866 224.715 182.47C224.372 182.271 223.984 182.093 223.597 182.035C221.482 181.712 219.321 181.889 217.286 182.553C216.646 182.761 216.31 183.176 216.114 183.838C215.539 185.791 215.049 187.791 214.241 189.648C210.971 197.166 207.607 204.645 204.246 212.123C203.545 213.684 202.723 215.192 201.932 216.712C201.732 217.097 201.44 217.436 201.19 217.798C200.989 217.56 200.912 217.397 200.913 217.234C200.919 216.273 200.804 215.284 200.987 214.355C201.548 211.545 202.168 208.747 202.847 205.963C203.401 203.663 204.046 201.384 204.66 199.099C204.866 198.334 204.87 197.619 204.322 196.976C203.401 195.899 201.477 195.662 200.336 196.492L199.832 196.778L199.93 195.963C200.17 194.214 200.219 192.472 199.74 190.75C199.143 188.603 197.616 187.368 195.395 187.436C194.36 187.468 193.273 187.645 192.315 188.024C188.285 189.608 185.186 192.413 182.547 195.788C182.303 196.101 182 196.363 181.655 196.561C178.245 198.457 174.824 200.329 171.405 202.209L167.598 204.3C166.577 203.323 165.65 202.31 164.597 201.451C161.383 198.822 158.116 196.258 154.879 193.659C152.01 191.355 149.231 188.955 147.104 185.904C145.522 183.635 144.502 181.151 144.405 178.345C144.281 174.769 145.292 171.502 147.108 168.46C149.43 164.569 152.597 161.446 156.079 158.617C159.763 155.626 163.747 153.087 167.876 150.769C173.654 147.527 179.596 144.657 185.967 142.762C192.5 140.818 199.128 139.706 205.965 140.481C208.653 140.786 211.262 141.404 213.659 142.722C215.494 143.73 217 145.05 217.7 147.114C218.391 149.145 218.369 151.203 217.891 153.266C216.918 157.443 214.637 160.887 211.767 163.964C207.059 169.008 201.316 172.441 194.85 174.71C191.133 176.016 187.265 176.843 183.34 177.172C180.123 177.443 176.973 177.157 173.927 176.035C171.91 175.291 170.154 174.154 168.742 172.504C168.489 172.209 168.166 171.888 167.696 172.165C167.235 172.437 167.154 172.876 167.308 173.322C167.566 174.062 167.805 174.833 168.206 175.495C169.217 177.156 170.69 178.36 172.312 179.393C175.428 181.38 178.91 182.048 182.52 182.203C187.999 182.441 193.345 181.62 198.615 180.146C206.139 178.042 212.682 174.326 217.928 168.463C222.297 163.581 225.417 158.071 226.086 151.418C226.412 148.171 226.064 144.99 224.548 142.028C222.904 138.818 220.29 136.432 217.163 134.787C212.611 132.394 207.698 131 202.627 131H197.546C191.405 131 185.467 132.765 179.696 134.87C175.327 136.465 171.044 138.347 166.885 140.429C157.829 144.967 149.394 150.439 142.467 157.963C139.015 161.712 136.093 165.848 134.412 170.718C133.906 172.172 133.469 173.65 133.103 175.146M165.918 217.716C165.526 222.987 163.144 227.261 159.25 230.722C157.06 232.667 154.548 234.053 151.622 234.54C150.561 234.716 149.476 234.759 148.447 234.318C146.979 233.689 146.65 232.383 146.622 230.991C146.578 228.774 147.353 226.769 148.415 224.861C149.801 222.374 151.833 220.478 154.003 218.707C157.422 215.916 161.13 213.554 164.928 211.325L165.215 211.207C165.802 213.382 166.081 215.53 165.918 217.716ZM195.574 194.809C195.297 196.492 194.951 198.177 194.46 199.808C192.765 205.455 190.588 210.927 188.234 216.325C187.799 217.324 187.166 218.235 186.615 219.182C186.522 219.328 186.41 219.46 186.282 219.577C185.601 220.252 184.955 220.217 184.61 219.334C184.21 218.308 183.963 217.209 183.751 216.123C183.608 215.394 183.643 214.628 183.598 213.881C183.644 208.568 185.26 203.741 188.002 199.246C189.132 197.393 190.363 195.627 192.243 194.454C192.828 194.09 193.461 193.809 194.123 193.62C195.125 193.337 195.74 193.802 195.574 194.809ZM215.807 220.659L223.079 212.144C223.381 215.306 218.022 221.619 215.807 220.659ZM239.032 214.929C238.518 215.225 237.958 215.437 237.431 215.71C236.949 215.961 236.79 215.708 236.776 215.292C236.769 215.004 236.806 214.717 236.885 214.44C237.867 210.967 239.674 208.002 242.363 205.591L242.552 205.494C243.831 209.081 242.353 213.021 239.032 214.929Z" fill="#CB6699"/>
</svg>
