<svg width="313" height="313" viewBox="0 0 313 313" fill="none" xmlns="http://www.w3.org/2000/svg">
<path d="M135.477 73.9804L122.924 63.5196C119.419 60.5993 115.002 59 110.44 59H39.5C34.3283 59 29.3684 61.0545 25.7114 64.7114C22.0545 68.3684 20 73.3283 20 78.5V234.5C20 239.672 22.0545 244.632 25.7114 248.289C29.3684 251.946 34.3283 254 39.5 254H273.5C278.672 254 283.632 251.946 287.289 248.289C290.946 244.632 293 239.672 293 234.5V98C293 92.8283 290.946 87.8684 287.289 84.2114C283.632 80.5545 278.672 78.5 273.5 78.5H147.96C143.398 78.5 138.981 76.9007 135.477 73.9804Z" fill="black"/>
<path d="M235.5 128C219.82 128 207.062 140.785 207.062 156.5V173.6H201.375C198.358 173.6 195.465 174.801 193.332 176.939C191.198 179.077 190 181.977 190 185V230.6C190 233.623 191.198 236.523 193.332 238.661C195.465 240.799 198.358 242 201.375 242H269.625C272.642 242 275.535 240.799 277.668 238.661C279.802 236.523 281 233.623 281 230.6V185C281 181.977 279.802 179.077 277.668 176.939C275.535 174.801 272.642 173.6 269.625 173.6H263.938V156.5C263.938 140.785 251.18 128 235.5 128ZM218.438 156.5C218.438 147.072 226.093 139.4 235.5 139.4C244.907 139.4 252.562 147.072 252.562 156.5V173.6H218.438V156.5ZM241.188 217.621V230.6H229.812V217.621C227.824 216.48 226.227 214.762 225.233 212.693C224.239 210.624 223.893 208.301 224.243 206.032C224.592 203.762 225.619 201.652 227.189 199.979C228.759 198.307 230.798 197.15 233.037 196.662C234.7 196.294 236.425 196.304 238.084 196.692C239.742 197.081 241.293 197.837 242.621 198.906C243.949 199.975 245.02 201.329 245.757 202.868C246.493 204.408 246.875 206.093 246.875 207.8C246.872 209.794 246.344 211.751 245.346 213.475C244.347 215.199 242.913 216.629 241.188 217.621Z" fill="#9997B1"/>
</svg>
