<svg width="313" height="313" viewBox="0 0 313 313" fill="none" xmlns="http://www.w3.org/2000/svg">
<path d="M135.477 73.9804L122.924 63.5196C119.419 60.5993 115.002 59 110.44 59H39.5C34.3283 59 29.3684 61.0545 25.7114 64.7114C22.0545 68.3684 20 73.3283 20 78.5V234.5C20 239.672 22.0545 244.632 25.7114 248.289C29.3684 251.946 34.3283 254 39.5 254H273.5C278.672 254 283.632 251.946 287.289 248.289C290.946 244.632 293 239.672 293 234.5V98C293 92.8283 290.946 87.8684 287.289 84.2114C283.632 80.5545 278.672 78.5 273.5 78.5H147.96C143.398 78.5 138.981 76.9007 135.477 73.9804Z" fill="#0C5964"/>
<path d="M163.327 155.635L104.96 189.775C103.671 190.529 103.682 192.389 104.98 193.127L163.327 226.333M221.673 157.572L280.04 191.712C281.329 192.466 281.318 194.326 280.02 195.064L221.673 228.27M171.444 242L215.501 139" stroke="#F0E9FF" stroke-width="9" stroke-linecap="round"/>
</svg>
