<svg width="313" height="313" viewBox="0 0 313 313" fill="none" xmlns="http://www.w3.org/2000/svg">
<path d="M135.477 73.9804L122.924 63.5196C119.419 60.5993 115.002 59 110.44 59H39.5C34.3283 59 29.3684 61.0545 25.7114 64.7114C22.0545 68.3684 20 73.3283 20 78.5V234.5C20 239.672 22.0545 244.632 25.7114 248.289C29.3684 251.946 34.3283 254 39.5 254H273.5C278.672 254 283.632 251.946 287.289 248.289C290.946 244.632 293 239.672 293 234.5V98C293 92.8283 290.946 87.8684 287.289 84.2114C283.632 80.5545 278.672 78.5 273.5 78.5H147.96C143.398 78.5 138.981 76.9007 135.477 73.9804Z" fill="#BD4119"/>
<path fill-rule="evenodd" clip-rule="evenodd" d="M230.48 147.406C244.981 139.042 265.041 142.941 275.196 156.099L275.197 156.114C278.973 160.892 281.002 166.62 281 172.494C280.996 174.15 280.835 175.801 280.52 177.433C279.813 180.958 278.326 184.317 276.149 187.31C278.452 191.3 279.658 195.733 279.665 200.234C279.667 201.89 279.503 203.544 279.175 205.173C278.463 208.797 276.921 212.246 274.648 215.299C272.375 218.351 269.421 220.94 265.976 222.899L240.531 237.595C226.076 245.958 205.971 242.058 195.815 228.902C193.403 225.848 191.688 222.39 190.771 218.729C189.855 215.093 189.754 211.27 190.476 207.583C191.181 204.055 192.667 200.692 194.844 197.697C192.521 193.707 191.3 189.267 191.285 184.757C191.288 183.094 191.452 181.436 191.774 179.811C192.496 176.188 194.047 172.742 196.326 169.692C198.605 166.643 201.562 164.057 205.009 162.101L230.48 147.406ZM222.901 230.726C224.612 230.725 226.318 230.528 227.991 230.138C229.794 229.703 231.537 229.01 233.171 228.075L258.598 213.387C260.667 212.207 262.441 210.649 263.808 208.814C265.175 206.979 266.105 204.906 266.537 202.728C266.978 200.502 266.923 198.218 266.374 196.012C265.825 193.805 264.794 191.72 263.342 189.879C261.48 187.449 258.995 185.464 256.099 184.093C253.204 182.723 249.984 182.007 246.716 182.007C245.005 182.008 243.299 182.205 241.626 182.595C239.826 183.026 238.087 183.717 236.455 184.649L226.736 190.289C226.243 190.575 225.716 190.783 225.169 190.909C224.667 191.029 224.153 191.088 223.639 191.087C222.668 191.089 221.708 190.876 220.816 190.459C219.945 190.047 219.197 189.45 218.637 188.718C217.954 187.85 217.587 186.811 217.587 185.745C217.602 185.457 217.641 185.171 217.704 184.891C217.842 184.217 218.124 183.587 218.527 183.053C218.959 182.481 219.493 182.01 220.097 181.668L245.569 166.981C246.061 166.694 246.588 166.485 247.134 166.36C247.63 166.231 248.138 166.161 248.648 166.151C249.618 166.149 250.578 166.363 251.469 166.78C252.341 167.191 253.089 167.789 253.649 168.52C254.332 169.394 254.699 170.439 254.699 171.509V171.952L254.61 172.806L255.554 173.072C259.137 174.051 262.508 175.577 265.521 177.584L266.821 178.445L267.302 177.124C267.558 176.426 267.763 175.707 267.915 174.973C268.104 173.996 268.199 172.999 268.201 172C268.215 168.469 267.011 165.022 264.756 162.139C262.888 159.707 260.395 157.721 257.492 156.351C254.589 154.981 251.362 154.269 248.088 154.275C246.371 154.275 244.66 154.47 242.997 154.855C241.168 155.302 239.425 155.998 237.826 156.918L212.355 171.606C210.288 172.788 208.514 174.346 207.148 176.181C205.781 178.016 204.851 180.088 204.415 182.265C204.228 183.244 204.132 184.235 204.131 185.229C204.131 188.762 205.351 192.207 207.619 195.083C209.977 198.162 213.324 200.512 217.206 201.815C221.089 203.117 225.32 203.31 229.327 202.366C231.126 201.933 232.865 201.242 234.498 200.311L244.198 194.704C244.688 194.419 245.213 194.211 245.756 194.084C246.259 193.965 246.772 193.905 247.287 193.907C248.258 193.903 249.221 194.116 250.114 194.533C250.986 194.946 251.735 195.544 252.297 196.275C252.99 197.14 253.367 198.18 253.374 199.248C253.376 200.066 253.15 200.87 252.716 201.587C252.282 202.305 251.654 202.91 250.891 203.349L225.447 218.117C224.953 218.399 224.425 218.608 223.88 218.737C223.377 218.857 222.864 218.916 222.349 218.914C221.375 218.913 220.41 218.693 219.518 218.267C218.646 217.846 217.901 217.238 217.348 216.497C216.663 215.627 216.296 214.585 216.298 213.516V213.073L216.387 212.219L215.443 211.962C211.862 210.978 208.492 209.453 205.476 207.45L204.176 206.555L203.696 207.876C203.44 208.575 203.234 209.295 203.081 210.028C202.893 211.003 202.798 211.997 202.796 212.993C202.794 216.526 204.014 219.971 206.284 222.846C208.144 225.277 210.627 227.263 213.521 228.636C216.415 230.008 219.633 230.725 222.901 230.726Z" fill="#FFA386"/>
</svg>
