<svg width="313" height="313" viewBox="0 0 313 313" fill="none" xmlns="http://www.w3.org/2000/svg">
<path d="M135.477 73.9804L122.924 63.5196C119.419 60.5993 115.002 59 110.44 59H39.5C34.3283 59 29.3684 61.0545 25.7114 64.7114C22.0545 68.3684 20 73.3283 20 78.5V234.5C20 239.672 22.0545 244.632 25.7114 248.289C29.3684 251.946 34.3283 254 39.5 254H273.5C278.672 254 283.632 251.946 287.289 248.289C290.946 244.632 293 239.672 293 234.5V98C293 92.8283 290.946 87.8684 287.289 84.2114C283.632 80.5545 278.672 78.5 273.5 78.5H147.96C143.398 78.5 138.981 76.9007 135.477 73.9804Z" fill="#00582E"/>
<path d="M222.001 231.923C209.03 231.909 196.594 226.75 187.422 217.578C178.25 208.406 173.091 195.971 173.077 183C173.077 156.022 195.022 134.077 222 134.077C248.978 134.077 270.923 156.022 270.923 183C270.923 209.978 248.979 231.922 222.001 231.923ZM222 123C206.087 123 190.826 129.321 179.574 140.574C168.321 151.826 162 167.087 162 183C162 198.913 168.321 214.174 179.574 225.426C190.826 236.679 206.087 243 222 243C237.913 243 253.174 236.679 264.426 225.426C275.679 214.174 282 198.913 282 183C282 167.087 275.679 151.826 264.426 140.574C253.174 129.321 237.913 123 222 123ZM249.231 177.462H227.538V146.692C227.538 145.223 226.955 143.815 225.916 142.776C224.878 141.737 223.469 141.154 222 141.154C220.531 141.154 219.122 141.737 218.084 142.776C217.045 143.815 216.462 145.223 216.462 146.692V183C216.462 184.469 217.045 185.878 218.084 186.916C219.122 187.955 220.531 188.538 222 188.538H249.231C250.7 188.538 252.108 187.955 253.147 186.916C254.186 185.878 254.769 184.469 254.769 183C254.769 181.531 254.186 180.122 253.147 179.084C252.108 178.045 250.7 177.462 249.231 177.462Z" fill="#B4DECA" stroke="#B4DECA" stroke-width="2"/>
</svg>
