<svg width="313" height="313" viewBox="0 0 313 313" fill="none" xmlns="http://www.w3.org/2000/svg">
<path d="M135.477 73.9804L122.924 63.5196C119.419 60.5993 115.002 59 110.44 59H39.5C34.3283 59 29.3684 61.0545 25.7114 64.7114C22.0545 68.3684 20 73.3283 20 78.5V234.5C20 239.672 22.0545 244.632 25.7114 248.289C29.3684 251.946 34.3283 254 39.5 254H273.5C278.672 254 283.632 251.946 287.289 248.289C290.946 244.632 293 239.672 293 234.5V98C293 92.8283 290.946 87.8684 287.289 84.2114C283.632 80.5545 278.672 78.5 273.5 78.5H147.96C143.398 78.5 138.981 76.9007 135.477 73.9804Z" fill="#232A37"/>
<path d="M205.287 157.051L181.713 145.264L194.81 123H224.932L205.287 157.051Z" fill="#E4EAFF"/>
<path d="M235.409 123H209.216L222.312 154.432L215.764 159.67L245.886 168.838L256.364 136.097L245.886 141.335L235.409 123Z" fill="#E4EAFF"/>
<path d="M239.724 180.741L261.719 166.219L274.452 188.693L259.391 214.779L239.724 180.741Z" fill="#E4EAFF"/>
<path d="M254.152 223.853L267.249 201.169L233.48 196.795L232.217 188.505L209.216 210.008L232.333 235.452L233.035 223.759L254.152 223.853Z" fill="#E4EAFF"/>
<path d="M200.264 198.333L203.386 224.504L177.589 225.812L161.021 200.655L200.264 198.333Z" fill="#E4EAFF"/>
<path d="M155.259 191.905L169.665 213.78L188.712 185.555L196.689 188.143L187.778 157.943L154.671 167.201L164.809 173.07L155.259 191.905Z" fill="#E4EAFF"/>
</svg>
