<svg width="313" height="313" viewBox="0 0 313 313" fill="none" xmlns="http://www.w3.org/2000/svg">
<path d="M135.477 73.9804L122.924 63.5196C119.419 60.5993 115.002 59 110.44 59H39.5C34.3283 59 29.3684 61.0545 25.7114 64.7114C22.0545 68.3684 20 73.3283 20 78.5V234.5C20 239.672 22.0545 244.632 25.7114 248.289C29.3684 251.946 34.3283 254 39.5 254H273.5C278.672 254 283.632 251.946 287.289 248.289C290.946 244.632 293 239.672 293 234.5V98C293 92.8283 290.946 87.8684 287.289 84.2114C283.632 80.5545 278.672 78.5 273.5 78.5H147.96C143.398 78.5 138.981 76.9007 135.477 73.9804Z" fill="#3178C6"/>
<g opacity="0.73">
<path d="M72.1677 189.408L70.0039 188.521C68.6926 189.606 67.0576 195.029 68.1352 198.579C69.7876 204.022 74.7905 205.383 77.0855 205.383C105.838 203.165 164.975 198.697 171.506 198.579C179.669 198.431 180.456 192.367 180.948 191.775C181.44 191.183 178.292 189.408 178.096 189.408C178.174 194.26 174.129 194.585 172.096 194.142C157.113 194.191 126.125 194.437 122.034 195.029C116.919 195.769 88.1012 200.058 76.5937 200.65C67.3877 201.123 69.8072 193.353 72.1677 189.408Z" fill="#4D2817"/>
<path d="M71.2424 210.144L68.9996 210.129C67.9196 211.687 67.2737 217.563 68.9256 220.572C71.4584 225.187 76.5251 224.554 78.7419 223.661C106.133 210.326 162.486 182.993 168.774 180.336C176.634 177.016 176.35 170.852 176.723 170.089C177.097 169.326 173.751 168.836 173.561 168.913C174.472 173.569 170.62 175.458 168.58 175.82C154.117 181.7 124.227 194 120.376 196.164C115.564 198.869 88.4658 214.229 77.4522 219.28C68.6414 223.321 69.6412 214.873 71.2424 210.144Z" fill="#4D2817"/>
<path d="M80.9746 238.626L79.2818 240.529C77.9624 240.824 75.581 239.041 75.862 236.45C76.2928 232.477 80.3318 228.442 82.2975 226.921C107.326 209.038 158.787 172.205 164.402 167.94C171.421 162.607 173.192 165.292 173.72 165.279C174.248 165.266 171.873 168.29 171.705 168.42C170.895 165.803 167.371 168.313 165.71 169.894C152.868 179.798 126.281 200.206 122.669 202.605C118.155 205.603 92.6959 222.435 82.7324 229.749C74.7616 235.6 78.2394 238.105 80.9746 238.626Z" fill="#4D2817"/>
<path d="M150.121 187.31C149.061 189.44 137.305 196.579 131.56 199.883C135.67 202.348 144.632 208.166 147.602 211.716C151.314 216.154 149.458 224.141 149.193 228.431C148.928 232.72 150.121 236.418 148.53 236.418C140.576 236.418 131.56 228.431 129.969 224.141C128.696 220.71 127.406 210.878 126.92 206.391C126.124 211.913 124.056 224.052 122.147 228.431C119.761 233.904 115.916 234.643 111.143 238.193C106.37 241.743 105.31 242.631 103.851 241.595C102.393 240.56 104.647 235.827 104.647 234.643C103.453 231.093 104.647 222.07 105.31 218.077C105.84 214.882 112.248 207.673 115.386 204.468C112.071 205.947 101.73 205.8 98.8132 203.877C95.8965 201.954 96.4268 199.883 92.7146 199.439C87.1463 198.552 84.7598 195.445 84.8924 193.375C85.025 191.304 88.2069 190.564 89.5327 190.268C90.8585 189.973 94.5707 187.31 102.791 185.535C109.366 184.115 113.132 186.718 114.192 188.198C112.513 185.338 109.022 178.583 108.491 174.441C107.829 169.264 110.613 164.531 111.939 161.721C113.264 158.91 111.673 155.804 114.192 155.212C116.711 154.621 115.783 156.248 117.507 159.206C119.23 162.164 122.147 160.241 126.124 169.264C129.306 176.483 129.218 187.557 128.776 192.191C130.013 190.663 132.753 186.57 133.814 182.429C134.875 178.287 137.438 174.589 138.587 173.258C143.625 168.426 153.886 159.354 154.629 161.721C157.148 177.843 151.447 184.648 150.121 187.31Z" fill="url(#paint0_radial_166_2)"/>
<path d="M120.951 193.092C122.438 191.44 125.028 191.44 126.515 193.092V193.092C126.782 193.389 127.095 193.641 127.441 193.839L127.519 193.884C129.446 194.984 130.217 197.371 129.299 199.391L129.139 199.744C128.971 200.112 128.857 200.502 128.8 200.903L128.723 201.436C128.423 203.524 126.456 204.952 124.377 204.589V204.589C123.951 204.514 123.515 204.514 123.089 204.589V204.589C121.011 204.952 119.043 203.524 118.743 201.436L118.667 200.903C118.609 200.502 118.495 200.112 118.328 199.744L118.167 199.391C117.249 197.371 118.02 194.984 119.947 193.884L120.025 193.839C120.371 193.641 120.684 193.389 120.951 193.092V193.092Z" fill="#FFCA2B"/>
<path d="M126.782 200.058C126.782 200.593 126.664 201.12 126.438 201.592C126.212 202.064 125.885 202.467 125.486 202.764C125.087 203.061 124.629 203.244 124.151 203.297C123.674 203.349 123.192 203.269 122.749 203.065C122.306 202.86 121.915 202.536 121.611 202.123C121.307 201.709 121.098 201.218 121.005 200.693C120.911 200.168 120.935 199.626 121.074 199.114C121.214 198.601 121.464 198.136 121.803 197.757L123.865 200.058H126.782Z" fill="#E07709"/>
</g>
<path d="M208.686 241.145V189.92H191V180.855H236.163V189.92H218.477V241.145H208.686Z" fill="#342C15"/>
<path d="M259.974 242C255.673 242 251.701 241.401 248.058 240.204C244.465 238.95 241.378 237.24 238.797 235.073L241.833 226.436C243.554 227.804 245.35 228.973 247.223 229.942C249.095 230.854 251.094 231.567 253.219 232.08C255.344 232.536 257.596 232.764 259.974 232.764C263.972 232.764 266.856 232.023 268.628 230.541C270.399 229.058 271.284 227.12 271.284 224.726C271.284 222.616 270.677 221.02 269.463 219.937C268.248 218.796 266.072 217.856 262.935 217.114L254.358 215.148C249.449 214.007 245.78 212.097 243.351 209.418C240.923 206.738 239.708 203.147 239.708 198.643C239.708 194.88 240.594 191.602 242.365 188.808C244.136 186.015 246.615 183.848 249.803 182.309C252.991 180.77 256.711 180 260.961 180C264.756 180 268.273 180.627 271.512 181.881C274.751 183.079 277.458 184.817 279.634 187.098L276.598 195.308C274.422 193.255 272.043 191.744 269.463 190.775C266.882 189.749 263.997 189.236 260.809 189.236C257.217 189.236 254.408 190.034 252.384 191.63C250.411 193.17 249.424 195.308 249.424 198.044C249.424 200.154 250.031 201.835 251.245 203.09C252.511 204.344 254.636 205.313 257.621 205.997L266.123 207.879C271.183 209.019 274.928 210.9 277.357 213.523C279.786 216.088 281 219.566 281 223.956C281 227.548 280.14 230.712 278.419 233.448C276.699 236.128 274.27 238.237 271.132 239.777C267.995 241.259 264.276 242 259.974 242Z" fill="#342C15"/>
<defs>
<radialGradient id="paint0_radial_166_2" cx="0" cy="0" r="1" gradientUnits="userSpaceOnUse" gradientTransform="translate(120.076 198.546) rotate(90) scale(43.4542 35.1883)">
<stop offset="0.29" stop-color="#EDEECD"/>
<stop offset="0.705" stop-color="#F3E276"/>
<stop offset="1" stop-color="#EBC76B"/>
</radialGradient>
</defs>
</svg>
