<svg width="313" height="313" viewBox="0 0 313 313" fill="none" xmlns="http://www.w3.org/2000/svg">
<path d="M135.477 73.9804L122.924 63.5196C119.419 60.5993 115.002 59 110.44 59H39.5C34.3283 59 29.3684 61.0545 25.7114 64.7114C22.0545 68.3684 20 73.3283 20 78.5V234.5C20 239.672 22.0545 244.632 25.7114 248.289C29.3684 251.946 34.3283 254 39.5 254H273.5C278.672 254 283.632 251.946 287.289 248.289C290.946 244.632 293 239.672 293 234.5V98C293 92.8283 290.946 87.8684 287.289 84.2114C283.632 80.5545 278.672 78.5 273.5 78.5H147.96C143.398 78.5 138.981 76.9007 135.477 73.9804Z" fill="#0C3953"/>
<path d="M276.934 139.785L253.255 128.385C251.917 127.74 250.413 127.527 248.949 127.776C247.485 128.025 246.135 128.723 245.086 129.773L167.571 200.442C166.63 201.296 166.067 202.488 166.006 203.756C165.944 205.025 166.389 206.266 167.242 207.206C167.345 207.317 167.448 207.424 167.558 207.522L173.887 213.272C174.714 214.025 175.778 214.464 176.895 214.513C178.013 214.563 179.112 214.219 180.002 213.543L273.37 142.742C274.075 142.207 274.915 141.879 275.797 141.796C276.678 141.713 277.565 141.877 278.358 142.27C279.151 142.664 279.819 143.271 280.285 144.023C280.752 144.776 281 145.643 281 146.529V146.253C281 144.902 280.618 143.578 279.899 142.433C279.18 141.289 278.152 140.371 276.934 139.785Z" fill="#0065A9"/>
<path d="M276.934 229.888L253.255 241.293C251.917 241.936 250.413 242.147 248.949 241.899C247.486 241.65 246.136 240.953 245.086 239.905L167.571 169.231C166.63 168.378 166.067 167.186 166.006 165.917C165.944 164.649 166.389 163.408 167.242 162.467C167.345 162.356 167.448 162.249 167.558 162.151L173.887 156.401C174.715 155.646 175.782 155.204 176.901 155.155C178.021 155.105 179.123 155.451 180.014 156.13L273.37 226.931C274.075 227.466 274.915 227.794 275.797 227.877C276.678 227.961 277.565 227.796 278.358 227.403C279.151 227.009 279.819 226.402 280.285 225.65C280.752 224.898 281 224.03 281 223.145V223.441C280.996 224.788 280.612 226.108 279.893 227.248C279.174 228.388 278.149 229.303 276.934 229.888Z" fill="#007ACC"/>
<path d="M253.254 241.293C251.917 241.936 250.412 242.147 248.949 241.899C247.486 241.65 246.136 240.953 245.086 239.904C245.676 240.487 246.424 240.882 247.237 241.04C248.051 241.199 248.893 241.114 249.658 240.796C250.423 240.478 251.078 239.941 251.539 239.253C252.001 238.565 252.249 237.756 252.252 236.927V132.746C252.253 131.914 252.007 131.1 251.544 130.407C251.082 129.715 250.425 129.176 249.655 128.857C248.886 128.539 248.04 128.456 247.223 128.619C246.407 128.782 245.657 129.184 245.07 129.773C246.119 128.723 247.469 128.025 248.932 127.776C250.395 127.526 251.9 127.738 253.238 128.381L276.914 139.765C278.135 140.348 279.167 141.265 279.89 142.409C280.613 143.554 280.998 144.879 281 146.233V223.44C281 224.793 280.618 226.118 279.898 227.263C279.178 228.409 278.149 229.327 276.93 229.913L253.254 241.293Z" fill="#1F9CF0"/>
</svg>
