<svg width="313" height="313" viewBox="0 0 313 313" fill="none" xmlns="http://www.w3.org/2000/svg">
<path d="M135.477 73.9804L122.924 63.5196C119.419 60.5993 115.002 59 110.44 59H39.5C34.3283 59 29.3684 61.0545 25.7114 64.7114C22.0545 68.3684 20 73.3283 20 78.5V234.5C20 239.672 22.0545 244.632 25.7114 248.289C29.3684 251.946 34.3283 254 39.5 254H273.5C278.672 254 283.632 251.946 287.289 248.289C290.946 244.632 293 239.672 293 234.5V98C293 92.8283 290.946 87.8684 287.289 84.2114C283.632 80.5545 278.672 78.5 273.5 78.5H147.96C143.398 78.5 138.981 76.9007 135.477 73.9804Z" fill="#29314A"/>
<rect width="205" height="131" transform="translate(88 123)" fill="#29314A"/>
<path d="M114.584 242C112.888 242 111.376 240.93 110.812 239.33L99.6292 207.62C98.8338 205.364 100.507 203 102.899 203C104.393 203 105.719 203.957 106.189 205.375L115.663 233.939C115.832 234.449 115.452 234.974 114.915 234.974C114.37 234.974 113.99 234.435 114.173 233.922L124.349 205.466C124.877 203.987 126.278 203 127.849 203C129.451 203 130.873 204.027 131.378 205.547L140.818 234.012C140.975 234.486 140.623 234.974 140.123 234.974C139.62 234.974 139.266 234.478 139.432 234.002L149.433 205.198C149.89 203.882 151.13 203 152.522 203C154.782 203 156.36 205.237 155.604 207.366L144.237 239.34C143.67 240.935 142.161 242 140.468 242H140.239C138.53 242 137.01 240.914 136.455 239.297L127.304 212.588C127.208 212.308 127.416 212.017 127.712 212.017C128.01 212.017 128.218 212.312 128.119 212.593L118.609 239.34C118.042 240.935 116.533 242 114.84 242H114.584Z" fill="#F0E9FF"/>
<path d="M176.506 242C174.81 242 173.298 240.93 172.734 239.33L161.551 207.62C160.756 205.364 162.429 203 164.821 203C166.315 203 167.641 203.957 168.111 205.375L177.585 233.939C177.754 234.449 177.375 234.974 176.837 234.974C176.293 234.974 175.912 234.435 176.096 233.922L186.271 205.466C186.8 203.987 188.201 203 189.771 203C191.374 203 192.795 204.027 193.3 205.547L202.741 234.012C202.898 234.486 202.545 234.974 202.046 234.974C201.542 234.974 201.189 234.478 201.354 234.002L211.355 205.198C211.812 203.882 213.052 203 214.445 203C216.704 203 218.283 205.237 217.526 207.366L206.16 239.34C205.593 240.935 204.083 242 202.391 242H202.162C200.452 242 198.932 240.914 198.378 239.297L189.226 212.588C189.13 212.308 189.338 212.017 189.634 212.017C189.932 212.017 190.141 212.312 190.041 212.593L180.531 239.34C179.964 240.935 178.455 242 176.762 242H176.506Z" fill="#F0E9FF"/>
<path d="M238.429 242C236.732 242 235.22 240.93 234.656 239.33L223.474 207.62C222.678 205.364 224.352 203 226.743 203C228.237 203 229.563 203.957 230.034 205.375L239.507 233.939C239.676 234.449 239.297 234.974 238.76 234.974C238.215 234.974 237.835 234.435 238.018 233.922L248.193 205.466C248.722 203.987 250.123 203 251.694 203C253.296 203 254.718 204.027 255.222 205.547L264.663 234.012C264.82 234.486 264.467 234.974 263.968 234.974C263.464 234.974 263.111 234.478 263.276 234.002L273.277 205.198C273.734 203.882 274.974 203 276.367 203C278.626 203 280.205 205.237 279.448 207.366L268.082 239.34C267.515 240.935 266.006 242 264.313 242H264.084C262.375 242 260.854 240.914 260.3 239.297L251.149 212.588C251.053 212.308 251.261 212.017 251.557 212.017C251.855 212.017 252.063 212.312 251.963 212.593L242.454 239.34C241.887 240.935 240.377 242 238.685 242H238.429Z" fill="#F0E9FF"/>
</svg>
