<svg width="313" height="313" viewBox="0 0 313 313" fill="none" xmlns="http://www.w3.org/2000/svg">
<path d="M135.477 73.9804L122.924 63.5196C119.419 60.5993 115.002 59 110.44 59H39.5C34.3283 59 29.3684 61.0545 25.7114 64.7114C22.0545 68.3684 20 73.3283 20 78.5V234.5C20 239.672 22.0545 244.632 25.7114 248.289C29.3684 251.946 34.3283 254 39.5 254H273.5C278.672 254 283.632 251.946 287.289 248.289C290.946 244.632 293 239.672 293 234.5V98C293 92.8283 290.946 87.8684 287.289 84.2114C283.632 80.5545 278.672 78.5 273.5 78.5H147.96C143.398 78.5 138.981 76.9007 135.477 73.9804Z" fill="#2E2A64"/>
<path d="M202.243 228.487C201.607 228.097 201.004 227.655 200.441 227.166C200.307 227.026 200.197 226.88 200.047 226.679C199.932 226.525 199.794 226.341 199.603 226.104L199.595 226.093C199.462 225.929 199.136 225.522 198.706 225.252C198.491 225.117 197.87 224.77 197.054 224.953C196.131 225.16 195.704 225.859 195.546 226.226L195.54 226.241L195.533 226.257C195.236 226.984 194.999 227.901 194.787 228.765C194.732 228.992 194.677 229.219 194.622 229.448C194.454 230.145 194.283 230.851 194.084 231.572C193.535 233.553 192.892 235.108 192.043 235.959L192.038 235.965C190.865 237.15 189.031 237.677 186.801 237.583C184.589 237.489 182.29 236.786 180.601 235.901C180.023 235.593 179.926 235.314 179.89 235.139C179.83 234.855 179.869 234.402 180.104 233.779C180.33 233.18 180.673 232.594 180.982 232.138C181.132 231.915 181.266 231.736 181.359 231.617C181.405 231.557 181.441 231.513 181.463 231.486L181.484 231.461L181.484 231.46C181.484 231.46 181.484 231.46 181.48 231.457L179.061 228.375C178.939 228.437 178.805 228.474 178.667 228.483C178.53 228.493 178.392 228.474 178.262 228.429C178.132 228.384 178.012 228.314 177.91 228.222C177.808 228.129 177.725 228.018 177.668 227.893L177.624 227.799L177.57 227.71C175.61 224.439 174.736 220.633 175.069 216.837C176.053 212.634 178.353 208.853 181.638 206.046L182.426 205.373L182.33 204.342C181.789 198.485 182.664 192.585 184.882 187.139C187.86 181.438 192.13 176.511 197.351 172.752L199.164 171.447L197.669 169.791L197.668 169.79L197.668 169.79L197.668 169.79L197.667 169.789L197.658 169.778C197.647 169.766 197.629 169.746 197.605 169.718C197.557 169.662 197.482 169.575 197.385 169.458C197.192 169.224 196.913 168.875 196.585 168.428C195.925 167.532 195.079 166.266 194.325 164.778C192.777 161.725 191.816 158.146 193.016 154.939L193.018 154.935C193.98 152.346 194.577 151.293 194.899 150.875C194.936 150.827 194.965 150.793 194.985 150.771C195.017 150.761 195.066 150.744 195.14 150.717C197.679 149.928 199.999 148.555 201.914 146.708L201.962 146.663L202.006 146.614C204.083 144.328 206.666 142.559 209.548 141.448C212.431 140.337 215.533 139.915 218.608 140.216L220.199 140.372L220.701 138.855L220.701 138.855L220.701 138.854L220.701 138.854L220.703 138.849L220.712 138.822C220.72 138.798 220.733 138.761 220.75 138.711C220.784 138.611 220.836 138.463 220.904 138.273C221.04 137.893 221.24 137.349 221.494 136.705C222.006 135.409 222.723 133.736 223.561 132.168C224.422 130.558 225.318 129.239 226.137 128.501C226.466 128.204 226.699 128.079 226.831 128.029C229.08 131.549 231.027 135.254 232.65 139.103L233.535 141.2L235.501 140.053L235.501 140.053L235.501 140.052L235.502 140.052L235.511 140.047L235.549 140.025C235.584 140.005 235.636 139.975 235.704 139.936C235.841 139.86 236.039 139.75 236.279 139.621C236.762 139.361 237.4 139.033 238.042 138.744C238.387 138.589 238.705 138.458 238.984 138.357C241.516 145.748 242.081 153.679 240.61 161.368C238.745 169.234 235.199 176.604 230.216 182.972L230.14 183.069L230.076 183.175C229.699 183.804 229.709 184.462 229.848 184.951C229.968 185.372 230.184 185.688 230.318 185.867C230.588 186.225 230.964 186.58 231.268 186.862C231.398 186.983 231.535 187.108 231.679 187.24C232.294 187.803 233.034 188.48 233.886 189.391C235.954 191.602 238.646 195.166 240.747 200.987L240.749 200.993C242.657 206.231 242.769 211.058 242.467 214.745C242.327 216.444 242.102 217.886 241.919 219.05C241.903 219.153 241.887 219.254 241.872 219.353C241.781 219.937 241.695 220.508 241.658 220.974C241.639 221.207 241.627 221.482 241.647 221.757C241.664 221.983 241.716 222.461 242.002 222.934C242.023 222.97 242.04 222.999 242.053 223.022C242.067 223.046 242.077 223.063 242.083 223.074C242.084 223.075 242.084 223.076 242.085 223.077L242.58 224.066L243.704 224.156L243.864 222.163C243.704 224.156 243.706 224.156 243.707 224.156L243.71 224.157L243.716 224.157L243.729 224.158L243.762 224.16C243.771 224.161 243.781 224.161 243.791 224.162C243.808 224.163 243.826 224.163 243.846 224.164C243.912 224.166 243.996 224.168 244.098 224.167C244.302 224.166 244.579 224.155 244.929 224.121C245.629 224.055 246.617 223.9 247.892 223.556C250.443 222.869 254.134 221.429 258.968 218.445L259.034 218.405L259.096 218.359C263.993 214.784 269.775 212.616 275.816 212.091L275.926 212.081L276.034 212.06C276.67 211.933 277.331 212.06 277.874 212.414C278.417 212.767 278.8 213.32 278.941 213.952C279.082 214.585 278.969 215.247 278.627 215.798C278.29 216.34 277.753 216.732 277.125 216.89C270.949 218.287 265.133 220.958 260.049 224.732C252.692 229.34 244.745 232.933 236.425 235.413L235.861 235.582L235.478 236.029C234.745 236.883 233.734 237.451 232.623 237.631C223.849 238.878 215.016 239.669 206.159 239.999C203.922 240.014 202.259 239.72 201.132 239.281C199.989 238.837 199.584 238.327 199.455 238.016L199.45 238.005C199.216 237.451 199.094 236.857 199.093 236.256C199.092 235.655 199.21 235.059 199.442 234.505C199.673 233.95 200.014 233.447 200.442 233.026C200.871 232.604 201.379 232.272 201.938 232.049L205.643 230.572L202.243 228.487ZM196.385 228.491C196.385 228.491 196.386 228.492 196.387 228.493C196.382 228.488 196.38 228.486 196.38 228.486C196.381 228.487 196.382 228.488 196.385 228.491ZM195.024 150.733C195.024 150.733 195.022 150.734 195.02 150.736C195.022 150.734 195.024 150.733 195.024 150.733ZM242.089 223.084L242.088 223.083C242.089 223.085 242.089 223.086 242.089 223.084Z" fill="#2E2A64" stroke="#DFEAEF" stroke-width="4"/>
</svg>
